<?xml version="1.0" encoding="utf-8"?>
<!-- Generator: Adobe Illustrator 16.0.0, SVG Export Plug-In . SVG Version: 6.00 Build 0)  -->
<!DOCTYPE svg PUBLIC "-//W3C//DTD SVG 1.1//EN" "http://www.w3.org/Graphics/SVG/1.1/DTD/svg11.dtd">
<svg version="1.1" id="Layer_1" xmlns="http://www.w3.org/2000/svg" xmlns:xlink="http://www.w3.org/1999/xlink" x="0px" y="0px"
	 width="290px" height="290px" viewBox="0 0 290 290" enable-background="new 0 0 290 290" xml:space="preserve">
<path class="mask_item" id="mask_img_simplicidade" onclick="window.parent.showMore(this)" opacity="0.01" fill-rule="evenodd" clip-rule="evenodd" fill="#000305"  d="M230,27.2
	c0,0.333-0.084,0.617-0.25,0.85c-10.4,14.9-20.983,29.617-31.75,44.15c-0.334,0-0.601-0.083-0.8-0.25
	c-9.733-8.233-21.134-13.15-34.2-14.75c-0.334,0-0.566,0.083-0.7,0.25c-5.7,7-12.134,13.25-19.3,18.75
	c-0.333,0-0.583-0.083-0.75-0.25c-6.034-6.3-11.784-12.883-17.25-19.75c-0.333,0-0.65,0.05-0.95,0.15
	C111.384,60.283,99.7,65.233,89,71.2c0-0.333-0.083-0.6-0.25-0.8c-7.098-8.866-13.848-18.083-20.25-27.65
	C64.89,37.342,61.389,31.825,58,26.2c3.339-2.443,6.839-4.727,10.5-6.85C84.999,9.734,104.758,3.284,127.774,0H154.5
	c8.68,0.834,13.088,1.226,13.225,1.175C192.751,5.568,213.509,14.243,230,27.2z M166.3,0.95c-3.864-0.498-5.631-0.748-5.3-0.75
	c0.333,0,0.666,0.017,1,0.05c1.64,0.24,3.265,0.498,4.875,0.775C166.703,1.002,166.512,0.977,166.3,0.95z"/>
<path class="mask_item" id="mask_img_informalidade" onclick="window.parent.showMore(this)" opacity="0.01" fill-rule="evenodd" clip-rule="evenodd" fill="#000305"  d="
	M283.326,189.997c-0.315,0.108-0.611,0.119-0.886,0.037c-17.457-5.042-34.798-10.317-52.027-15.825
	c-0.107-0.316-0.114-0.596-0.021-0.838c4.657-11.867,5.638-24.245,2.94-37.129c-0.107-0.316-0.262-0.51-0.463-0.582
	c-8.463-3.141-16.453-7.216-23.97-12.227c-0.106-0.315-0.108-0.579-0.005-0.791c4.02-7.743,8.398-15.308,13.137-22.695
	c-0.107-0.315-0.257-0.6-0.449-0.851c-7.805-10.723-16.257-20.187-25.354-28.393c0.315-0.107,0.541-0.272,0.677-0.495
	c6.105-9.576,12.655-18.937,19.648-28.081c3.956-5.161,8.049-10.253,12.282-15.274c3.388,2.375,6.679,4.951,9.868,7.732
	C253.125,47.105,265.6,63.73,276.127,84.46l8.613,25.3c2.008,8.485,3.058,12.785,3.15,12.897
	C291.798,147.765,290.276,170.211,283.326,189.997z M287.644,121.236c-0.773-3.819-1.106-5.572-0.998-5.259
	c0.108,0.315,0.199,0.636,0.275,0.963c0.302,1.629,0.581,3.251,0.838,4.865C287.725,121.634,287.688,121.445,287.644,121.236z"/>
<path class="mask_item" id="mask_img_economia_processual" onclick="window.parent.showMore(this)" opacity="0.01" fill-rule="evenodd" clip-rule="evenodd" fill="#000305"  d="
	M142.655,289.888c-0.194-0.271-0.291-0.552-0.291-0.838c-0.212-18.169-0.167-36.295,0.135-54.381
	c0.271-0.194,0.537-0.281,0.795-0.262c12.707,1.033,24.842-1.601,36.397-7.901c0.272-0.196,0.412-0.398,0.424-0.611
	c0.564-9.01,2.16-17.836,4.788-26.479c0.271-0.194,0.522-0.271,0.756-0.234c8.573,1.614,17.08,3.623,25.521,6.026
	c0.271-0.192,0.5-0.418,0.685-0.675c8.014-10.567,14.635-21.393,19.866-32.47c0.195,0.271,0.417,0.438,0.669,0.505
	c10.932,3.081,21.784,6.65,32.557,10.707c6.085,2.297,12.141,4.746,18.17,7.35c-1.296,3.929-2.812,7.823-4.555,11.681
	c-7.824,17.42-20.141,34.163-36.948,50.226l-21.737,15.55c-7.545,4.372-11.358,6.617-11.439,6.738
	C185.536,285.808,163.606,290.831,142.655,289.888z M209.736,274.173c3.432-1.843,5.015-2.667,4.747-2.474
	c-0.272,0.194-0.552,0.375-0.842,0.541c-1.474,0.761-2.946,1.496-4.417,2.207C209.378,274.366,209.549,274.275,209.736,274.173z"/>
<path class="mask_item" id="mask_img_celeridade" onclick="window.parent.showMore(this)" opacity="0.01" fill-rule="evenodd" clip-rule="evenodd" fill="#000305"  d="
	M4.44,192.568c0.186-0.278,0.416-0.466,0.685-0.563c16.97-6.498,33.987-12.736,51.056-18.724c0.277,0.187,0.451,0.407,0.522,0.656
	c3.435,12.276,10.111,22.746,20.027,31.401c0.277,0.188,0.516,0.249,0.72,0.186c8.646-2.593,17.479-4.154,26.497-4.687
	c0.275,0.188,0.435,0.396,0.48,0.628c1.459,8.603,2.522,17.277,3.192,26.029c0.276,0.185,0.566,0.322,0.872,0.406
	c12.69,3.854,25.138,6.315,37.343,7.382c-0.188,0.276-0.268,0.542-0.242,0.803c0.898,11.322,1.312,22.738,1.241,34.25
	c-0.048,6.503-0.244,13.033-0.598,19.591c-4.135,0.146-8.313,0.074-12.535-0.224c-19.053-1.301-39.026-7.053-59.919-17.25
	l-22.12-15.001c-6.716-5.563-10.144-8.361-10.286-8.395C23.128,231.375,10.816,212.545,4.44,192.568z M42.43,250.042
	c2.918,2.581,4.24,3.779,3.965,3.597c-0.276-0.187-0.542-0.388-0.8-0.603c-1.223-1.117-2.423-2.244-3.6-3.378
	C42.125,249.773,42.269,249.901,42.43,250.042z"/>
<path class="mask_item" id="mask_img_oralidade" onclick="window.parent.showMore(this)" opacity="0.01" fill-rule="evenodd" clip-rule="evenodd" fill="#000305"  d="
	M57.309,27.945c0.317,0.103,0.562,0.271,0.732,0.5c10.983,14.476,21.733,29.07,32.253,43.785c-0.104,0.317-0.265,0.546-0.484,0.683
	c-10.827,6.731-19.012,16.069-24.549,28.01c-0.103,0.319-0.093,0.565,0.023,0.742c4.909,7.578,8.878,15.62,11.909,24.129
	c-0.102,0.318-0.259,0.53-0.468,0.64c-7.851,3.804-15.883,7.252-24.097,10.343c-0.102,0.316-0.153,0.633-0.148,0.95
	c-0.151,13.261,0.969,25.902,3.356,37.917c-0.318-0.102-0.596-0.104-0.837-0.008c-10.619,4.029-21.465,7.62-32.537,10.771
	c-6.257,1.774-12.581,3.409-18.976,4.903c-1.297-3.927-2.396-7.959-3.291-12.097C-3.884,160.557-3.949,139.772,0,116.862
	l8.217-25.434c3.462-8.003,5.191-12.077,5.184-12.222C25.274,56.742,39.91,39.655,57.309,27.945z M12.749,80.492
	c-1.662,3.525-2.443,5.128-2.343,4.814c0.104-0.319,0.22-0.63,0.355-0.936c0.731-1.489,1.477-2.956,2.236-4.402
	C12.922,80.125,12.838,80.3,12.749,80.492z"/>
</svg>
