<?xml version="1.0" encoding="utf-8"?>
<!-- Generator: Adobe Illustrator 16.0.0, SVG Export Plug-In . SVG Version: 6.00 Build 0)  -->
<!DOCTYPE svg PUBLIC "-//W3C//DTD SVG 1.1//EN" "http://www.w3.org/Graphics/SVG/1.1/DTD/svg11.dtd">
<svg version="1.1" id="Layer_1" xmlns="http://www.w3.org/2000/svg" xmlns:xlink="http://www.w3.org/1999/xlink" x="0px" y="0px"
	 width="261.711px" height="260.769px" viewBox="0 0 261.711 260.769" enable-background="new 0 0 261.711 260.769"
	 xml:space="preserve">

<style>
	.estado-botao{
		cursor: pointer;
	}
	.estado-botao:hover {
		fill: #00ff2a;
	}
</style>
<g class="estado-botao" id="RN">
	<linearGradient id="RN_2_" gradientUnits="userSpaceOnUse" x1="236.4595" y1="74.4116" x2="257.5161" y2="74.4116">
		<stop  offset="0" style="stop-color:#FFAB00"/>
		<stop  offset="1" style="stop-color:#D07800"/>
	</linearGradient>
	<path id="RN" fill="url(#RN_2_)" d="M242.646,68.285h1.07l1.547,0.595l1.428,0.714l1.903,0.119h2.26h1.904l1.665,0.238l1.309,0.713
		l0.833,1.071v0.833l0.714,1.784v1.309l0.237,1.903l-0.356,0.714h-2.022h-2.379l-1.547-0.595l-1.07-0.238l-0.714,0.238l-0.833,0.833
		l-0.119,0.952l-0.238,1.07h-1.189l-0.595-0.833l-1.546,0.119h-0.596l-0.356-0.833l0.952-1.666v-1.189l-1.785-0.357l-1.665,0.238
		l-0.952,0.952l-1.665,0.952c0,0-0.833,0.238-1.189,0.238c-0.357,0-1.19,0.119-1.19-0.238s1.071-1.784,1.071-1.784l0.832-1.428
		l1.785-2.736L242.646,68.285z"/>
	<g>
		<path d="M249.729,70.002c0.335-0.068,0.814-0.106,1.271-0.106c0.708,0,1.165,0.129,1.484,0.419
			c0.259,0.228,0.403,0.579,0.403,0.975c0,0.677-0.426,1.126-0.967,1.31v0.022c0.396,0.137,0.632,0.503,0.754,1.036
			c0.167,0.716,0.289,1.211,0.396,1.409h-0.685c-0.084-0.145-0.198-0.586-0.343-1.226c-0.152-0.708-0.427-0.975-1.028-0.997h-0.624
			v2.223h-0.662V70.002z M250.391,72.339h0.678c0.708,0,1.157-0.388,1.157-0.975c0-0.662-0.479-0.952-1.181-0.959
			c-0.319,0-0.548,0.03-0.654,0.061V72.339z"/>
		<path d="M253.825,75.065v-5.132h0.723l1.645,2.596c0.381,0.602,0.678,1.142,0.922,1.667l0.015-0.007
			c-0.061-0.686-0.076-1.31-0.076-2.109v-2.147h0.625v5.132h-0.67l-1.63-2.604c-0.357-0.571-0.7-1.157-0.959-1.713l-0.023,0.008
			c0.038,0.647,0.054,1.264,0.054,2.117v2.193H253.825z"/>
	</g>
</g>
<g class="estado-botao" id="PB">
	<linearGradient id="PB_2_" gradientUnits="userSpaceOnUse" x1="235.1509" y1="82.9771" x2="259.3198" y2="82.9771">
		<stop  offset="0" style="stop-color:#FFAB00"/>
		<stop  offset="1" style="stop-color:#D07800"/>
	</linearGradient>
	<path id="PB" fill="url(#PB_2_)" d="M235.746,79.825l-0.595,1.546l0.238,1.071l0.595,0.952l-0.238,1.427l-0.237,1.071l0.714,0.357
		l1.428,0.119l1.903-0.357l1.546-1.071l1.903-1.189l0.714-0.119l1.903,0.357l0.238,1.189l-0.476,0.595l-0.595,2.022v0.833
		l0.356,0.476l1.071,0.238l0.832-1.071l1.547-1.071h1.07l2.261-0.357l1.903-0.476l1.428-1.309l0.951-0.714l1.071-0.238h2.022v-1.19
		c0,0,0.118-1.428-0.238-1.546c-0.357-0.119-0.714-1.309-0.714-1.309l-0.595-0.476l-2.855-0.476h-1.903l-1.665-0.119h-1.428
		l-0.595,1.189l-0.952,1.309l-1.428,0.238l-1.07-0.833l-1.189,0.119l-0.833,0.476l-0.833-0.713l-0.832-1.19l0.595-1.784l0.832-1.19
		h-1.07l-1.309,0.714l-0.595,0.952l-1.07,0.476l-0.714,0.119l-1.666,0.119L235.746,79.825z"/>
	<g>
		<path d="M254.329,79.354c0.319-0.054,0.738-0.099,1.271-0.099c0.654,0,1.134,0.152,1.438,0.426
			c0.282,0.244,0.449,0.617,0.449,1.074c0,0.464-0.137,0.83-0.396,1.096c-0.351,0.373-0.922,0.563-1.568,0.563
			c-0.198,0-0.381-0.007-0.533-0.045v2.056h-0.662V79.354z M254.991,81.828c0.145,0.038,0.327,0.053,0.548,0.053
			c0.8,0,1.287-0.389,1.287-1.097c0-0.678-0.479-1.005-1.211-1.005c-0.289,0-0.51,0.023-0.624,0.053V81.828z"/>
		<path d="M258.379,79.361c0.289-0.061,0.746-0.106,1.21-0.106c0.663,0,1.089,0.114,1.409,0.373
			c0.267,0.198,0.426,0.502,0.426,0.906c0,0.495-0.327,0.929-0.868,1.126v0.016c0.487,0.122,1.059,0.525,1.059,1.287
			c0,0.441-0.175,0.777-0.434,1.028c-0.358,0.328-0.937,0.48-1.774,0.48c-0.457,0-0.807-0.031-1.027-0.061V79.361z M259.042,81.462
			h0.602c0.7,0,1.111-0.365,1.111-0.86c0-0.602-0.457-0.837-1.127-0.837c-0.305,0-0.479,0.022-0.586,0.045V81.462z M259.042,83.922
			c0.129,0.023,0.319,0.03,0.556,0.03c0.686,0,1.317-0.251,1.317-0.998c0-0.7-0.602-0.99-1.325-0.99h-0.548V83.922z"/>
	</g>
</g>
<g class="estado-botao" id="PE">
	<linearGradient id="PE_2_" gradientUnits="userSpaceOnUse" x1="219.0913" y1="91.4233" x2="259.3013" y2="91.4233">
		<stop  offset="0" style="stop-color:#FFAB00"/>
		<stop  offset="1" style="stop-color:#D07800"/>
	</linearGradient>
	<polygon id="PE" fill="url(#PE_2_)" points="219.091,93.029 220.4,94.1 220.875,95.052 220.995,95.885 221.589,96.836 
		221.589,97.312 221.947,97.907 222.779,97.431 223.493,96.598 224.207,95.409 225.396,95.409 226.11,94.338 227.181,93.386 
		228.727,92.435 229.917,92.078 231.107,92.315 232.416,92.792 233.724,93.029 234.914,93.981 236.459,94.814 237.292,95.885 
		238.601,95.766 239.91,94.814 240.862,94.219 241.932,94.933 243.241,95.766 244.43,96.123 245.858,96.717 248.119,96.598 
		250.022,96.479 250.378,95.766 251.211,94.457 252.044,93.862 253.234,93.505 254.542,93.505 255.851,93.505 257.16,93.505 
		257.635,92.672 258.111,91.364 258.587,89.817 259.301,87.557 259.301,85.892 258.349,85.297 256.921,85.178 255.97,85.772 
		255.137,86.486 254.067,87.081 253.115,87.557 251.568,87.795 250.378,87.795 249.308,88.271 248,88.866 247.405,89.698 
		246.572,90.65 245.144,90.769 244.311,90.055 243.955,88.747 243.955,87.438 244.193,85.772 244.311,85.178 243.716,84.94 
		242.646,85.178 241.576,85.892 240.148,86.962 239.077,87.557 237.173,87.438 236.341,87.438 235.27,87.438 233.605,87.438 
		232.058,87.557 230.75,87.438 229.679,86.129 228.371,85.416 227.299,85.416 225.04,85.178 221.947,85.059 222.184,86.011 
		222.303,86.843 222.779,88.152 222.779,88.747 222.184,89.817 221.351,90.769 220.281,91.721 	"/>
	<g>
		<path d="M254.09,88.275c0.319-0.054,0.738-0.099,1.271-0.099c0.654,0,1.134,0.152,1.438,0.426
			c0.282,0.244,0.449,0.617,0.449,1.074c0,0.464-0.137,0.83-0.396,1.096c-0.351,0.373-0.922,0.563-1.568,0.563
			c-0.198,0-0.381-0.007-0.533-0.045v2.056h-0.662V88.275z M254.752,90.75c0.145,0.038,0.327,0.053,0.548,0.053
			c0.8,0,1.287-0.389,1.287-1.097c0-0.678-0.479-1.005-1.211-1.005c-0.289,0-0.51,0.023-0.624,0.053V90.75z"/>
		<path d="M260.798,90.94h-1.995v1.851h2.224v0.556h-2.886v-5.132h2.771v0.556h-2.109v1.622h1.995V90.94z"/>
	</g>
</g>
<g class="estado-botao" id="AM">
	<linearGradient id="AM_2_" gradientUnits="userSpaceOnUse" x1="1.1108" y1="60.8105" x2="116.9014" y2="60.8105">
		<stop  offset="0" style="stop-color:#2E8B00"/>
		<stop  offset="1" style="stop-color:#00D065"/>
	</linearGradient>
	<path id="AM" fill="url(#AM_2_)" d="M1.111,82.323l3.013,1.903c0,0,13.958,4.283,17.131,4.283c0.634,0,1.586,0.793,1.586,0.793
		l1.904,1.269c0,0,17.765,9.675,19.669,9.834c1.903,0.159,1.903-0.634,1.903-0.634l1.11-0.952l1.11-1.11l1.903-0.317l2.221,0.634
		l2.221-0.952h1.427l1.11-0.476l0.476-1.269l2.062-0.476l2.697-0.159l0.634-1.427l0.952-0.635v-1.427l2.063-1.269l0.158-1.428
		l6.345-0.317l0.793,1.586l1.586,1.428l2.062,2.062l1.904-0.159l1.744,0.317h10.469l9.2-0.159l1.586-1.269l0.159-3.172l1.111-2.538
		l0.317-2.697l-0.952-2.221l-0.635-1.586l13.482-27.282l0.635-2.379l0.634-1.269l-2.538,0.634l-2.063-1.428l-2.062-1.744
		l-5.234-0.476l-1.586-2.379c0,0-3.173-4.367-3.49-4.441c-0.476,0.476-0.248-1.264-0.248-1.264l-0.109-2.206l-0.297-1.785
		l-1.169-0.139h-1.943l-2.578,0.04l-0.674,0.179l-1.071,1.467l-1.586,2.102l-0.734,1.169c0,0-0.317,1.547-0.337,1.626
		c-0.02,0.08-0.456,0.615-0.456,0.615l-0.992,0.417l-1.705-0.02l-1.229-0.912l-0.773-0.912l-1.051,0.198
		c0,0-0.892,0.575-0.952,0.615s-0.654,0.952-0.654,0.952l-0.079,1.586l-0.139,2.419l-0.932,0.179l-1.051,0.02
		c0,0-1.031-0.575-1.15-0.634c-0.119-0.06-0.714-0.674-0.714-0.674s-0.912-0.813-1.011-0.912c-0.099-0.099-0.773-0.972-0.773-0.972
		s-0.833-0.813-0.873-0.892s-0.456-0.773-0.456-0.773v-0.595l0.04-1.407l-0.119-2.756c0,0-0.199-1.071-0.218-1.13
		c-0.02-0.059-0.337-1.864-0.337-1.923c0-0.059-0.04-1.804-0.04-1.804s-0.1-1.468-0.179-1.626c-0.079-0.159-0.654-1.09-0.753-1.229
		c-0.099-0.139-0.734-1.309-0.734-1.309l-0.714-1.765c0,0-0.456-1.269-0.634-1.527c-0.179-0.258-0.654-1.249-0.694-1.309
		c-0.04-0.059-0.238-0.496-0.238-0.496l-1.844-0.02l-0.278-0.417l-0.575,0.179l-0.575,0.535l-1.448,0.634l-0.297,1.249l-0.991,1.091
		l-1.031,1.11l-1.407,0.198l-1.13,0.417l-0.912,0.714l-1.071,0.813l-1.448,1.547l-1.229,0.297l-1.15,0.258l-0.714-0.516l-0.06-0.713
		h-0.912l-0.694,0.138l-0.317,0.833l-1.348-0.02l-1.666-0.02l-0.535-0.377c0,0-0.417-0.555-0.476-0.615s-0.853-0.714-0.853-0.714
		l-0.674-0.516L43.343,27.5l-0.08-3.767l-0.734-1.15l-0.436-0.654l-0.417-0.417l-0.932,0.714l-0.813,0.555l-0.456,0.853l-1.15,0.694
		l-0.972-1.229l-0.297-0.635l-0.575,0.853l-0.575,0.773l-3.093,0.02l-2.122-0.119l-3.013-0.08c0,0-0.635,0.159-0.694,0.178
		c-0.06,0.02-0.873,0.456-0.873,0.456s-0.277,0.615-0.257,0.674s0.159,1.289,0.159,1.289l0.099,0.912c0,0,0.198,0.337,0.476,0.357
		s1.189,0.02,1.189,0.02s1.131,0.06,1.229,0.06c0.099,0,0.516,0.337,0.516,0.337s0.416,0.337,0.456,0.417
		c0.04,0.08,0.476,0.793,0.476,0.793l0.179,0.893c0,0,0,0.833,0,0.892s-0.198,0.793-0.198,0.793h-0.694l-1.229,0.079l-0.317-0.317
		l-1.051-0.08l-0.932,0.377l-1.229,0.06l0.02,1.11l-0.04,3.45l0.595,0.575c0,0,0.713,0.396,0.793,0.476
		c0.079,0.08,0.555,0.417,0.674,0.516c0.119,0.099,0.595,0.278,0.595,0.278l0.099,1.685L27.6,41.003l0.852,1.14l0.387,1.101
		l-0.357,4.342v1.993c0,0-0.505,1.546-0.505,1.814s-0.684,1.933-0.684,1.933l-0.03,1.993c0,0-0.387,0.595-0.417,0.803
		c-0.03,0.208-0.089,2.677-0.089,2.677s-0.446,1.189-0.476,1.368c-0.03,0.178,0,1.725,0,1.725s-0.654,1.993-0.744,2.142
		c-0.089,0.148-0.654,1.07-0.773,1.1c-0.119,0.03-1.249-0.03-1.397-0.03c-0.149,0-1.309-0.416-1.398-0.505s-0.625-0.446-0.625-0.446
		h-1.338l-1.011,0.387l-0.417,0.744l-1.576,0.625l-2.23,0.208l-2.022,0.06l-1.189,0.506l-1.368,0.803L9.24,68.196
		c0,0-1.487,1.011-1.487,1.101c0,0.089-1.309,1.695-1.427,1.844c-0.119,0.149-0.506,1.487-0.506,1.487l-0.208,0.952l-0.654,0.922
		c0,0-0.536,0.803-0.565,0.892c-0.03,0.089,0.178,1.368,0.178,1.368l0.208,0.862L4.184,79.2l-1.1,1.011c0,0-1.22,0.654-1.22,0.773
		S1.111,82.323,1.111,82.323z"/>
	<g>
		<path d="M51.294,65.243l-0.533,1.614h-0.685l1.744-5.132h0.799l1.751,5.132h-0.708l-0.548-1.614H51.294z M52.977,64.725
			l-0.502-1.477c-0.114-0.335-0.19-0.64-0.267-0.937h-0.015c-0.076,0.304-0.16,0.617-0.259,0.929l-0.502,1.485H52.977z"/>
		<path d="M59.418,64.603c-0.038-0.716-0.083-1.576-0.076-2.216H59.32c-0.175,0.602-0.389,1.241-0.647,1.949l-0.906,2.49h-0.503
			l-0.83-2.444c-0.244-0.723-0.449-1.386-0.594-1.995h-0.015c-0.015,0.64-0.053,1.5-0.099,2.269l-0.137,2.201h-0.632l0.358-5.132
			h0.845l0.876,2.482c0.213,0.632,0.388,1.196,0.518,1.729h0.023c0.129-0.518,0.312-1.081,0.541-1.729l0.914-2.482h0.845l0.32,5.132
			h-0.647L59.418,64.603z"/>
	</g>
</g>
<g class="estado-botao" id="RR">
	<linearGradient id="RR_2_" gradientUnits="userSpaceOnUse" x1="61.1079" y1="21.9487" x2="98.5811" y2="21.9487">
		<stop  offset="0" style="stop-color:#2E8B00"/>
		<stop  offset="1" style="stop-color:#00D065"/>
	</linearGradient>
	<path id="RR" fill="url(#RR_2_)" d="M61.286,6.483c0.238,0,2.498,0,2.498,0l1.071,1.13l1.071,0.833l2.26,0.238l1.546,0.178
		l0.595,1.189l1.309,0.119h1.487l0.595-0.892l0.179-1.309l1.07-0.595l1.487-0.417h2.32l1.011-0.297l1.427-1.011l1.368-0.714
		l1.13-0.535l1.666-0.179l1.189-1.427l1.249-1.606L87.994,0l2.617,0.119l0.595,1.189L90.611,2.32l-0.476,0.952l0.06,1.189
		l1.189,0.179l1.249,0.535l0.833,1.368l0.476,1.071l-0.297,1.071l-0.892,0.892l-0.238,1.13l-0.595,1.963l0.059,0.952l-0.356,0.773
		v2.26l0.059,1.19l0.654,0.892l0.595,1.189l0.059,1.844l0.893,0.535l1.427,1.249l0.773,1.071l1.844,1.189l0.536,0.714l0.119,3.509
		v1.963l-0.833,0.357h-2.617l-2.558-0.059c0,0-0.536,0.595-0.773,0.654c-0.238,0.059-1.546,1.606-1.546,1.606l-0.595,1.249v0.714
		l-0.595,0.476l-0.476,0.595l-0.595,0.833l-0.119,1.071l-0.357,0.535l-0.892,0.178l-0.536-0.535l-0.535-0.714l-1.249-0.773
		l-0.952-0.357l-1.071,0.238l-0.833,0.773l-0.833,0.595l-0.892,1.13l-0.179,2.974l-0.416,0.357l-0.893-0.595l-1.368-1.666
		l-0.833-0.952l-0.476-0.476l0.713-1.011v-1.13l-0.238-0.654l-0.535-0.892l-0.179-1.13l-0.178-1.487l-0.179-1.25l-0.119-2.022
		v-2.201l-0.595-1.07l-0.714-0.833l-0.595-1.011l-0.654-1.368l-0.476-1.189l-0.654-1.487l-0.238-0.654l-0.952-0.833h-0.536
		l0.06-2.26c0,0-0.952,0-1.13-0.06c-0.178-0.06-1.606-0.06-1.606-0.06l-0.773,0.06l-1.249-0.238L64.32,17.19h-0.536
		c0,0-0.178-4.818-0.178-4.997c0-0.179,0.714-1.011,0.714-1.011l0.417-0.654V8.744l-1.428-0.952l-0.952-0.297l-0.892-0.297
		l-0.357-0.476L61.286,6.483z"/>
	<g>
		<path d="M78.54,19.442c0.335-0.068,0.815-0.106,1.271-0.106c0.708,0,1.165,0.129,1.485,0.419c0.259,0.228,0.404,0.579,0.404,0.975
			c0,0.677-0.427,1.126-0.967,1.31v0.022c0.396,0.137,0.632,0.503,0.754,1.036c0.167,0.716,0.289,1.211,0.396,1.409h-0.686
			c-0.083-0.145-0.198-0.586-0.342-1.226c-0.152-0.708-0.427-0.975-1.028-0.997h-0.624v2.223H78.54V19.442z M79.202,21.78h0.678
			c0.708,0,1.157-0.388,1.157-0.975c0-0.662-0.48-0.952-1.18-0.959c-0.32,0-0.548,0.03-0.655,0.061V21.78z"/>
		<path d="M82.636,19.442c0.335-0.068,0.815-0.106,1.271-0.106c0.708,0,1.165,0.129,1.485,0.419
			c0.259,0.228,0.404,0.579,0.404,0.975c0,0.677-0.427,1.126-0.967,1.31v0.022c0.396,0.137,0.632,0.503,0.754,1.036
			c0.167,0.716,0.289,1.211,0.396,1.409h-0.686c-0.083-0.145-0.198-0.586-0.342-1.226c-0.152-0.708-0.427-0.975-1.028-0.997h-0.624
			v2.223h-0.663V19.442z M83.298,21.78h0.678c0.708,0,1.157-0.388,1.157-0.975c0-0.662-0.48-0.952-1.18-0.959
			c-0.32,0-0.548,0.03-0.655,0.061V21.78z"/>
	</g>
</g>
<g class="estado-botao" id="AP">
	<linearGradient id="AP_2_" gradientUnits="userSpaceOnUse" x1="127.5488" y1="24.6255" x2="158.8364" y2="24.6255">
		<stop  offset="0" style="stop-color:#00D065"/>
		<stop  offset="1" style="stop-color:#2E8B00"/>
	</linearGradient>
	<path id="AP" fill="url(#AP_2_)" d="M128.263,20.105l1.784,0.595l1.19,0.238l1.07-0.178l0.476-0.536l1.487-0.06h1.25l1.07,0.536
		l1.13,0.119l1.547-0.059l1.546-1.011c0,0,0.654-1.011,0.833-1.309s1.309-2.974,1.309-2.974l1.665-2.855l1.547-2.379l1.606-1.963
		l1.249-1.071l1.07,0.833l0.773,0.952c0,0,0.119,1.249,0.119,1.487s0.06,3.034,0.06,3.034l0.297,0.892l0.654,1.011
		c0,0,0.476,0.535,0.476,0.833c0,0.298,0.238,1.725,0.179,1.904c-0.06,0.178,0.417,2.141,0.417,2.141l0.535,1.071l1.13,1.189
		l1.249,0.952l1.428,0.238l0.714,0.713l0.714,1.19l-0.179,1.427c0,0-0.595,0.238-0.773,0.476s-1.546,1.606-2.2,2.201
		c-0.654,0.595-1.785,2.26-1.785,2.26l-1.665,1.368c0,0-1.189,0.833-1.666,1.011c-0.476,0.179-1.189,0.892-1.189,1.071
		c0,0.178-0.773,1.963-0.773,1.963l-0.892,1.249l-1.071,1.368l-0.416,1.666c0,0-0.298,0.357-0.654,0.357s-1.309,0-1.309,0
		s-0.476-0.773-0.654-0.952c-0.179-0.179-0.773-1.25-0.952-1.785c-0.178-0.535-1.07-1.963-1.07-1.963s-0.595-0.952-0.893-1.368
		c-0.297-0.416-0.892-1.606-1.189-1.903c-0.297-0.297-0.832-1.011-0.832-1.011s-0.119-1.309-0.179-1.606s-0.595-2.082-1.011-2.439
		c-0.417-0.356-1.131-2.319-1.309-2.498c-0.18-0.178-0.536-1.13-1.071-1.309c-0.535-0.178-1.309-0.476-1.785-0.773
		c-0.476-0.297-1.487-0.654-1.784-0.713c-0.297-0.06-0.892-0.773-1.546-0.893c-0.654-0.119-1.011-0.416-1.309-0.654
		c-0.298-0.238-1.13-1.07-1.13-1.487S128.263,20.105,128.263,20.105z"/>
	<g>
		<path d="M143.133,26.46l-0.532,1.614h-0.686l1.743-5.132h0.8l1.751,5.132h-0.708l-0.548-1.614H143.133z M144.817,25.943
			l-0.503-1.477c-0.114-0.335-0.19-0.64-0.267-0.937h-0.016c-0.076,0.304-0.159,0.617-0.259,0.929l-0.502,1.485H144.817z"/>
		<path d="M146.963,23.004c0.319-0.054,0.738-0.099,1.271-0.099c0.654,0,1.134,0.152,1.438,0.426
			c0.282,0.244,0.449,0.617,0.449,1.074c0,0.464-0.137,0.83-0.396,1.096c-0.351,0.373-0.922,0.563-1.568,0.563
			c-0.198,0-0.381-0.007-0.533-0.045v2.056h-0.662V23.004z M147.625,25.479c0.145,0.038,0.327,0.053,0.548,0.053
			c0.8,0,1.287-0.389,1.287-1.097c0-0.678-0.479-1.005-1.211-1.005c-0.289,0-0.51,0.023-0.624,0.053V25.479z"/>
	</g>
</g>
<g class="estado-botao" id="RO">
	<linearGradient id="RO_2_" gradientUnits="userSpaceOnUse" x1="47.4268" y1="107.543" x2="91.7607" y2="107.543">
		<stop  offset="0" style="stop-color:#2E8B00"/>
		<stop  offset="1" style="stop-color:#00D065"/>
	</linearGradient>
	<path id="RO" fill="url(#RO_2_)" d="M86.328,125.506c0,0-2.26-0.416-2.617-0.416s-2.439,0.06-2.855,0
		c-0.416-0.059-2.022-0.178-2.022-0.178l-1.428-0.952l-0.654-1.13l-0.892-0.477l-2.201-0.356l-1.427-0.298l-0.833-0.773
		l-0.773-0.951l-0.476-0.893l-0.654-0.416l-1.13,0.477h-1.011l-0.654-0.596l-0.893-0.535l-1.011-0.06l-2.082,0.238l-1.428-0.654
		l-1.189-1.368l-1.666-1.487l-0.952-0.952l-0.893-1.249l-0.654-1.963l0.119-2.677l-0.357-1.249l-0.297-1.546l0.773-0.714
		l0.059-3.093l-0.535-1.13h-1.368c0,0-2.379,0.059-2.736,0.059s-2.439,0.536-2.439,0.536l-1.428,0.417l-0.297-0.417l0.476-0.654
		l0.714-0.773c0,0,0.952-0.178,1.13-0.178c0.179,0,1.487,0,1.487,0l1.844-0.06l1.903-0.357h2.201l0.892-0.595l0.833-1.13
		l0.714-0.773h3.093c0,0,0.892-0.06,1.011-0.357c0.119-0.297,0.238-1.368,0.238-1.368l1.071-0.654l0.238-1.368l0.535-0.714
		l1.011-0.06l0.773-1.427l0.773-0.654l1.13,0.06h1.844l1.13,0.892l1.725,1.13l1.13,1.25l1.13,1.189l0.892,0.595l0.833,0.119
		l0.713-0.179h0.893l0.555,1.567l-0.159,0.872l0.238,1.189l0.158,1.11l-0.08,1.983l-0.396,1.427l0.238,1.983l0.158,1.031v1.031
		l-0.079,1.507l0.317,0.396l0.159,0.793l2.142-0.159l2.855,0.08h2.776l0.317,0.952l1.506,0.238l0.873,0.396l-0.159,0.714
		l-0.873,0.952l-0.079,1.111l0.555,1.506l0.872,1.507l0.08,2.935l-0.714,0.792l-1.427,2.063L86.328,125.506z"/>
	<g>
		<path d="M66.881,107.951c0.335-0.068,0.815-0.106,1.271-0.106c0.708,0,1.165,0.129,1.485,0.419
			c0.259,0.228,0.404,0.579,0.404,0.975c0,0.677-0.427,1.126-0.967,1.31v0.022c0.396,0.137,0.632,0.503,0.754,1.036
			c0.167,0.716,0.289,1.211,0.396,1.409h-0.686c-0.083-0.145-0.198-0.586-0.342-1.226c-0.152-0.708-0.427-0.975-1.028-0.997h-0.624
			v2.223h-0.663V107.951z M67.544,110.289h0.678c0.708,0,1.157-0.388,1.157-0.975c0-0.662-0.48-0.952-1.18-0.959
			c-0.32,0-0.548,0.03-0.655,0.061V110.289z"/>
		<path d="M75.386,110.396c0,1.767-1.074,2.703-2.383,2.703c-1.355,0-2.307-1.051-2.307-2.604c0-1.629,1.013-2.695,2.383-2.695
			C74.48,107.799,75.386,108.873,75.386,110.396z M71.404,110.479c0,1.097,0.594,2.079,1.637,2.079c1.051,0,1.645-0.967,1.645-2.132
			c0-1.02-0.533-2.086-1.637-2.086C71.952,108.339,71.404,109.352,71.404,110.479z"/>
	</g>
</g>
<g class="estado-botao" id="MT">
	<linearGradient id="MT_2_" gradientUnits="userSpaceOnUse" x1="81.4507" y1="120.3911" x2="156.8735" y2="120.3911">
		<stop  offset="0" style="stop-color:#D0B700"/>
		<stop  offset="1" style="stop-color:#FFFF2E"/>
	</linearGradient>
	<path id="MT" fill="url(#MT_2_)" d="M82.006,94.537l20.382,0.317l0.555-1.348l0.714-1.983l0.158-1.982v-1.666l0.317-1.269
		l0.317-1.031l0.555,0.08l0.317,0.396l0.158,0.952l0.714,1.349l0.635,2.141l0.396,3.331l0.952,0.952l5.314,4.362l2.141,0.317
		l8.645,0.317l18.876,0.792l13.72,0.952l-0.079,0.714l-0.555,1.824l-1.903,5.313c0,0-0.238-0.159-0.159,2.3
		c0.079,2.459,0.079,7.614,0.079,7.614l0.476,2.062c0,0,0.08,2.3-0.872,3.569c-0.951,1.269-1.427,3.648-1.427,3.648l-0.714,4.44
		l-0.794,1.27l-1.666,0.872l-1.348,1.27l-1.11,1.586l-0.476,1.427l-0.952,0.556l-1.665,1.11l-1.349,1.189l-1.587,2.617l-1.428,2.063
		l-1.188,1.586l-1.031,1.19l-0.159,1.109l-0.079,1.587l0.555,0.872l-0.078,0.555v1.349h-2.539l-0.237-0.872l0.237-1.587
		l-0.237-0.872l-0.634-1.27l-1.19-0.079l-1.269,0.873l-0.714,0.634c0,0-1.11,0-1.586,0s-1.586-0.476-1.586-0.476l-0.952,0.159
		l-2.935,0.158l-1.904-0.793c0,0-0.317-0.317-1.348-1.031c-1.031-0.714-1.824-0.635-2.142-0.635s-1.982-0.158-2.775,0.159
		c-0.793,0.316-0.396,0.396-1.19,0.396c-0.793,0-1.745,0.634-1.983,0.793s-1.031,1.428-1.031,1.428l-0.476,0.873l-1.428-0.08h-0.555
		l-0.714-0.714l-1.666-1.031l-1.349-0.316l-1.506-1.032l-0.555-0.792l-0.396-2.696v-1.032l0.634-0.476l0.238-1.03v-0.873
		l-12.214-0.079l-0.238-2.3l-0.476-2.3l-0.396-0.556l-0.714-0.555l-0.396-1.031h1.348l0.238-1.665l-0.317-2.38l-0.634-0.951
		l-0.634-4.203l-0.793-0.635l0.952-0.873l3.569-5.234l0.079-4.917l-0.713-0.952l-0.397-1.349l0.238-1.031
		c0,0,0.476-1.507,0.238-1.824c-0.238-0.317-0.476-0.714-0.713-0.952c-0.238-0.238-2.062-0.714-2.062-0.714
		s-1.903-0.714-2.142-0.714c-0.238,0-5.393,0.08-5.393,0.08l0.158-3.172l-0.713-1.348l0.396-1.666L82.006,94.537z"/>
	<g>
		<path d="M119.981,122.657c-0.038-0.716-0.083-1.576-0.076-2.216h-0.022c-0.175,0.602-0.389,1.241-0.647,1.949l-0.906,2.49h-0.503
			l-0.83-2.444c-0.244-0.723-0.449-1.386-0.594-1.995h-0.015c-0.015,0.64-0.053,1.5-0.099,2.269l-0.137,2.201h-0.632l0.358-5.132
			h0.845l0.876,2.482c0.213,0.632,0.388,1.196,0.518,1.729h0.023c0.129-0.518,0.312-1.081,0.541-1.729l0.914-2.482h0.845l0.32,5.132
			h-0.647L119.981,122.657z"/>
		<path d="M122.676,120.343h-1.561v-0.563h3.8v0.563h-1.569v4.568h-0.67V120.343z"/>
	</g>
</g>
<g class="estado-botao" id="TO">
	<linearGradient id="TO_2_" gradientUnits="userSpaceOnUse" x1="155.5649" y1="97.4312" x2="185.7817" y2="97.4312">
		<stop  offset="0" style="stop-color:#00D065"/>
		<stop  offset="1" style="stop-color:#2E8B00"/>
	</linearGradient>
	<path id="TO" fill="url(#TO_2_)" d="M169.126,70.902l1.784,0.238l1.428,0.595l1.784,0.714l0.596,1.189l0.595,2.379l-0.238,2.617
		l-0.119,2.379l-0.476,1.189l-0.476,1.19l0.118,1.309l1.428,0.952l0.833,1.189l1.07,1.309l1.785,0.833h1.784l0.476,1.309
		l-0.595,1.07l-1.189,0.595l-0.833,1.07l-0.237,1.309l-0.238,1.309L179,96.598l1.07,1.428l0.714,1.071l0.238,1.309l0.356,1.07
		l0.833,1.309l0.714,0.595l1.07,0.713l1.309,0.238l0.477,0.714l-0.833,0.595l-1.07,1.189l-0.714,1.071l-0.833,1.428l-0.119,1.784
		v1.071l1.428,0.952c0,0,0.119,0.238,0,0.714c-0.119,0.476,0,2.498,0,2.498l-0.595,0.833v1.427l0.476,0.833l-0.119,1.428
		l-0.951,0.119l-2.855,1.189l-2.022,0.476l-2.379,0.356l-1.309,0.238l-0.238,0.714l-1.784-0.952l-1.189-0.476l-1.071-0.476
		l-1.189-0.714l-0.951-0.952h-0.952l-1.903,0.119l-1.309,0.952l-0.595,1.189l-1.428-0.476l-1.189-0.477l-0.833-0.951l-1.07-1.903
		c0,0,0.237-0.952-0.238-0.952s-1.784,0.952-1.784,0.952l-0.595-2.142v-3.926l0.476-4.283l1.189-3.45l1.071-2.022l0.476-2.142
		l0.238-2.498l0.713-1.428l1.904-2.022l0.951-0.952l0.952-1.427l0.714-1.547l0.476-2.022v-1.428l-0.476-1.666l0.118-1.784
		l0.477-2.022l1.784-0.952l1.665-1.428l1.19-1.309l0.713-1.785l0.477-2.022v-1.784l-1.071-1.309L169.126,70.902z"/>
	<g>
		<path d="M166.596,102.736h-1.562v-0.563h3.8v0.563h-1.568v4.568h-0.67V102.736z"/>
		<path d="M173.586,104.686c0,1.767-1.074,2.703-2.384,2.703c-1.355,0-2.307-1.051-2.307-2.604c0-1.629,1.013-2.695,2.383-2.695
			C172.68,102.089,173.586,103.163,173.586,104.686z M169.604,104.769c0,1.097,0.594,2.079,1.637,2.079
			c1.051,0,1.645-0.967,1.645-2.132c0-1.02-0.533-2.086-1.637-2.086C170.152,102.629,169.604,103.642,169.604,104.769z"/>
	</g>
</g>
<g class="estado-botao" id="MS">
	<linearGradient id="MS_2_" gradientUnits="userSpaceOnUse" x1="104.6001" y1="173.0918" x2="151.2427" y2="173.0918">
		<stop  offset="0" style="stop-color:#FFFF2E"/>
		<stop  offset="1" style="stop-color:#D0B700"/>
	</linearGradient>
	<path id="MS" fill="url(#MS_2_)" d="M106.909,153.146l0.397,1.824c0,0,0.873,1.109,0.952,1.428
		c0.079,0.317,0.079,1.586,0.079,1.586l-1.11,1.269l-0.159,2.063c0,0,0.396,1.587,0.317,1.824c-0.079,0.238-1.269,1.823-1.269,1.823
		l-1.11,1.27l-0.159,1.19l0.952,1.189l-0.714,1.428c0,0-0.396,0.792-0.476,1.109c-0.08,0.318,0.396,1.03,0.396,1.428
		c0,0.396,0.635,1.745,0.635,1.983c0,0.237,0.396,1.269,0.396,1.269v2.142l0.238,2.934v1.745l2.379,0.238l0.555,0.158h3.014
		l3.41-0.079l2.221,0.476l1.507,0.477l0.872,0.872l0.714,1.428l0.317,1.903v1.744l0.555,0.477l0.634,1.03l0.159,1.428l0.317,1.903
		l0.555,0.714l1.904-0.158l0.952-0.556l1.11-0.555l1.428,0.079l0.634,0.714l0.873,0.158l0.634-0.792l0.159-1.825l1.428-1.11
		l0.238-1.109l0.873-1.11l1.031-1.19l3.172-1.665l1.19-1.189l1.982-1.824l3.172-2.459c0,0,0.001-1.03,0.08-1.269
		c0.079-0.237,0.872-1.189,0.872-1.189l0.158-1.428l1.111-1.745l1.665-2.3l1.269-1.665l1.269-1.032l0.556-0.396v-4.68l-1.824-0.555
		l-2.458-0.794c0,0-2.617-1.349-3.015-1.665c-0.396-0.317-1.507-0.793-1.824-1.031c-0.316-0.237-1.585-0.316-1.982-0.316
		c-0.396,0-1.269,0.158-1.665-0.159c-0.397-0.316,0-2.538,0-2.538s-1.429-0.396-1.587-0.714c-0.158-0.316,0.159-0.714-0.316-0.951
		c-0.477-0.238-1.665-0.238-2.221-0.238s-1.903,0-1.903,0l-0.476-1.507l0.634-0.714l0.396-0.951l0.317-1.189l-0.634,0.237
		l-0.397,0.317l-1.348,0.556h-1.507c0,0-1.507,0.079-1.745,0.079c-0.238,0-1.745,0.158-1.745,0.158s-1.348,0-1.824,0
		c-0.476,0-1.189,0.08-1.666-0.237c-0.476-0.318-1.427-0.634-1.665-0.714c-0.238-0.08-1.824-1.11-1.824-1.11
		s-0.634-0.317-0.952-0.317s-1.666,0.238-1.903,0.238s-1.983,0.634-1.983,0.634l-1.031,0.794l-1.031,0.792l-1.031,1.031l-0.793,0.08
		c0,0-1.189-0.158-1.507-0.238S106.909,153.146,106.909,153.146z"/>
	<g>
		<path d="M125.215,171.194c-0.038-0.716-0.083-1.576-0.076-2.216h-0.022c-0.175,0.602-0.389,1.241-0.647,1.949l-0.906,2.49h-0.503
			l-0.83-2.444c-0.244-0.724-0.449-1.386-0.594-1.995h-0.015c-0.015,0.64-0.053,1.5-0.099,2.27l-0.137,2.2h-0.632l0.358-5.132h0.845
			l0.876,2.482c0.213,0.632,0.388,1.195,0.518,1.729h0.023c0.129-0.519,0.312-1.082,0.541-1.729l0.914-2.482h0.845l0.32,5.132
			h-0.647L125.215,171.194z"/>
		<path d="M126.92,172.642c0.297,0.183,0.731,0.335,1.188,0.335c0.677,0,1.073-0.358,1.073-0.876c0-0.479-0.274-0.754-0.967-1.021
			c-0.837-0.297-1.355-0.73-1.355-1.454c0-0.8,0.663-1.394,1.66-1.394c0.525,0,0.906,0.122,1.134,0.251l-0.183,0.541
			c-0.167-0.092-0.51-0.243-0.975-0.243c-0.701,0-0.967,0.418-0.967,0.769c0,0.479,0.312,0.716,1.02,0.99
			c0.868,0.335,1.31,0.753,1.31,1.507c0,0.792-0.586,1.478-1.797,1.478c-0.495,0-1.036-0.145-1.31-0.327L126.92,172.642z"/>
	</g>
</g>
<g class="estado-botao" id="PR">
	<linearGradient id="PR_2_" gradientUnits="userSpaceOnUse" x1="129.4321" y1="200.2939" x2="170.6733" y2="200.2939">
		<stop  offset="0" style="stop-color:#001FD0"/>
		<stop  offset="1" style="stop-color:#45FFF3"/>
	</linearGradient>
	<polygon id="PR" fill="url(#PR_2_)" points="131.098,196.131 131.098,199.145 130.939,201.524 130.939,204.142 129.908,205.331 
		129.432,205.647 129.987,205.965 130.701,205.965 131.256,205.489 131.732,205.727 132.684,207.234 133.239,208.344 
		133.557,209.852 135.063,210.565 136.887,210.882 138.632,211.041 140.536,211.12 142.439,211.358 143.153,211.913 
		144.818,212.389 147.356,212.944 149.338,213.023 149.893,212.469 149.973,211.596 150.45,210.565 152.353,210.485 
		153.383,210.406 154.256,209.455 154.89,208.899 156.555,208.899 158.777,208.899 160.521,208.899 160.918,209.771 161.71,210.169 
		162.503,210.09 163.536,209.296 164.566,209.058 165.676,209.058 166.945,209.058 167.738,209.533 168.293,209.533 168.77,208.662 
		169.086,207.551 169.879,206.759 170.118,206.045 170.673,205.647 170.593,204.458 169.879,203.903 168.849,203.903 
		167.897,203.823 167.5,203.507 167.58,202.316 167.58,201.365 163.138,201.365 162.742,199.621 162.583,197.875 161.87,196.686 
		160.838,195.813 160.759,194.782 160.521,192.562 160.362,190.817 159.332,189.786 157.983,189.628 153.067,189.548 
		151.876,188.755 151.083,188.279 150.131,188.041 149.338,187.883 147.119,187.725 144.581,187.565 143.708,187.565 
		141.963,187.565 140.615,187.645 139.108,187.645 138.315,187.645 136.966,188.279 135.618,189.39 134.27,190.658 133.794,191.77 
		132.208,193.514 131.653,194.624 	"/>
	<g>
		<path d="M143.495,197.642c0.319-0.053,0.738-0.099,1.271-0.099c0.654,0,1.134,0.152,1.438,0.427
			c0.282,0.243,0.449,0.616,0.449,1.073c0,0.465-0.137,0.83-0.396,1.097c-0.351,0.373-0.922,0.563-1.568,0.563
			c-0.198,0-0.381-0.008-0.533-0.046v2.056h-0.662V197.642z M144.157,200.116c0.145,0.038,0.327,0.054,0.548,0.054
			c0.8,0,1.287-0.389,1.287-1.097c0-0.678-0.479-1.005-1.211-1.005c-0.289,0-0.51,0.022-0.624,0.053V200.116z"/>
		<path d="M147.545,197.649c0.335-0.068,0.814-0.106,1.271-0.106c0.708,0,1.165,0.129,1.484,0.419
			c0.259,0.229,0.403,0.578,0.403,0.975c0,0.678-0.426,1.127-0.967,1.31v0.022c0.396,0.138,0.632,0.503,0.754,1.036
			c0.167,0.715,0.289,1.21,0.396,1.408h-0.685c-0.084-0.145-0.198-0.586-0.343-1.226c-0.152-0.708-0.427-0.975-1.028-0.998h-0.624
			v2.224h-0.662V197.649z M148.208,199.987h0.678c0.708,0,1.157-0.389,1.157-0.975c0-0.663-0.479-0.952-1.181-0.96
			c-0.319,0-0.548,0.031-0.654,0.062V199.987z"/>
	</g>
</g>
<g class="estado-botao" id="SP">
	<linearGradient id="SP_2_" gradientUnits="userSpaceOnUse" x1="140.2974" y1="186.0186" x2="196.2104" y2="186.0186">
		<stop  offset="0" style="stop-color:#910000"/>
		<stop  offset="1" style="stop-color:#FF5E00"/>
	</linearGradient>
	<path id="SP" fill="url(#SP_2_)" d="M140.297,185.9l2.301,0.158l2.379,0.158h1.903l1.824,0.159l1.428,0.316l1.507,0.952l1.11,0.317
		h2.221h1.744h2.063l1.11,0.238l0.476,0.714l0.714,0.714l0.634,0.634l0.318,0.873v1.269v0.951l0.079,1.032l0.316,0.792l0.397,0.159
		l0.237,0.793l0.556,0.714l0.158,0.872l-0.079,1.27l0.079,0.713l1.666,0.079h2.22l0.714,0.159l0.397,0.793l0.079,1.11l0.237,0.476
		l1.11,0.079l1.111,0.397l0.237,0.396l0.793-0.238l0.793-1.27l1.665-0.951c0,0,0.793-0.634,0.952-0.872
		c0.159-0.237,2.459-1.586,2.459-1.586l1.507-1.349l0.873-0.714l1.585-0.634l1.11-0.397l0.873-0.158l1.031-1.031l4.044-0.079
		l0.635-1.11l1.824-1.11l0.951-0.396l1.587-0.158l1.03-0.238l-0.079-0.714l0.079-0.714l0.952-0.951v-1.428h-1.189l-1.19-0.793
		h-1.427l-1.348,0.555l-1.27,0.476l-1.11,0.556l-1.349,0.476c0,0,0,0.634-0.237,0.714c-0.238,0.08-2.301,0.08-2.301,0.08
		l-1.823,0.078l-0.873-0.396l-0.714-1.428l-0.316-1.03c0,0-0.396-1.031-0.476-1.269c-0.08-0.238-0.08-1.824-0.08-1.824l-0.079-1.666
		l0.079-1.11l0.237-1.11l-1.189-0.317c0,0-1.189,0-1.428-0.476c-0.237-0.477-0.951-1.428-0.951-1.666
		c0-0.237-0.396-1.188-0.396-1.585c0-0.397-0.079-1.27-0.079-1.825c0-0.555-0.079-0.872-0.079-1.11s-0.556-1.586-0.556-1.586
		l-0.872-0.635l-1.189-0.158l-0.952,0.237l-2.063,0.397h-2.537l-1.031,0.079l-0.477,1.031l-0.316,0.793l-1.189-0.555l-1.428-0.556
		l-0.793-1.19c0,0-0.477-0.714-1.031-0.792c-0.555-0.079-1.19-0.079-1.982-0.079c-0.793,0-3.015,0-3.015,0l-1.506-0.477
		l-0.952-0.079l-0.952,0.476l-1.348,0.714l-0.952,1.27l-1.823,1.428l-1.428,1.744l-0.396,1.189l-1.031,1.507l-0.159,1.27
		l-0.714,1.109l-0.078,1.032l-0.714,1.189l-1.428,1.03l-1.508,1.349L140.297,185.9z"/>
	<g>
		<path d="M162.437,185.489c0.297,0.183,0.73,0.335,1.188,0.335c0.678,0,1.074-0.358,1.074-0.876c0-0.479-0.274-0.754-0.968-1.021
			c-0.837-0.297-1.354-0.73-1.354-1.454c0-0.8,0.662-1.394,1.659-1.394c0.525,0,0.906,0.122,1.135,0.251l-0.183,0.541
			c-0.168-0.092-0.51-0.243-0.975-0.243c-0.7,0-0.967,0.418-0.967,0.769c0,0.479,0.312,0.716,1.021,0.99
			c0.867,0.335,1.31,0.753,1.31,1.507c0,0.792-0.587,1.478-1.797,1.478c-0.495,0-1.036-0.145-1.311-0.327L162.437,185.489z"/>
		<path d="M166.283,181.225c0.319-0.053,0.738-0.099,1.271-0.099c0.654,0,1.134,0.152,1.438,0.427
			c0.282,0.243,0.449,0.616,0.449,1.073c0,0.465-0.137,0.83-0.396,1.097c-0.351,0.373-0.922,0.563-1.568,0.563
			c-0.198,0-0.381-0.008-0.533-0.046v2.056h-0.662V181.225z M166.945,183.699c0.145,0.038,0.327,0.054,0.548,0.054
			c0.8,0,1.287-0.389,1.287-1.097c0-0.678-0.479-1.005-1.211-1.005c-0.289,0-0.51,0.022-0.624,0.053V183.699z"/>
	</g>
</g>
<g class="estado-botao" id="RF">
	<linearGradient id="RJ" gradientUnits="userSpaceOnUse" x1="195.5767" y1="182.5693" x2="218.7339" y2="182.5693">
		<stop  offset="0" style="stop-color:#FF5E00"/>
		<stop  offset="1" style="stop-color:#910000"/>
	</linearGradient>
	<path id="RJ" fill="url(#RJ)" d="M195.577,185.741l2.141-1.269l1.27-0.238l2.379-0.159l1.586-0.396h0.872h1.189l1.587-0.476
		l1.349-0.714l0.714-0.318l0.871-0.396l0.635-0.635l0.873-1.031l0.317-1.427l0.316-1.032l0.08-0.951l1.109-0.714l0.477,0.317
		l0.396,0.872c0,0,0.635,0.316,0.873,0.476c0.237,0.159,1.269,0.318,1.269,0.318h1.665h0.714l0.079,2.537l0.396,0.714l-0.078,0.714
		l-0.714,0.476l-1.27,0.714l-0.556,0.317l-1.11,0.317l-1.03,0.793l-0.555,1.031l-0.714,1.109l-0.397,0.635v0.873l-1.506,0.158
		c0,0-2.142,0-2.38,0s-1.903,0-1.903,0l-0.714-0.634v-0.794h-1.11l-0.793,0.08v1.269l-0.556,0.635c0,0-1.903-0.08-2.142-0.08
		c-0.237,0-1.109-0.316-1.109-0.316l-1.189-0.317l-0.635,0.714l-0.635,0.238l-0.396-0.714l0.476-1.111l-0.317-0.872l-0.793-0.317
		L195.577,185.741z"/>
	<g>
		<path d="M208.21,183.85c0.335-0.068,0.814-0.106,1.271-0.106c0.708,0,1.165,0.129,1.484,0.419
			c0.259,0.229,0.403,0.578,0.403,0.975c0,0.678-0.426,1.127-0.967,1.31v0.022c0.396,0.138,0.632,0.503,0.754,1.036
			c0.167,0.715,0.289,1.21,0.396,1.408h-0.685c-0.084-0.145-0.198-0.586-0.343-1.226c-0.152-0.708-0.427-0.975-1.028-0.998h-0.624
			v2.224h-0.662V183.85z M208.873,186.188h0.678c0.708,0,1.157-0.389,1.157-0.975c0-0.663-0.479-0.952-1.181-0.96
			c-0.319,0-0.548,0.03-0.654,0.062V186.188z"/>
		<path d="M213.357,183.781h0.662v3.434c0,1.363-0.67,1.782-1.554,1.782c-0.243,0-0.54-0.054-0.708-0.122l0.1-0.541
			c0.137,0.054,0.335,0.1,0.556,0.1c0.594,0,0.944-0.267,0.944-1.271V183.781z"/>
	</g>
</g>
<g class="estado-botao" id="MG">
	<linearGradient id="MG_2_" gradientUnits="userSpaceOnUse" x1="153.0073" y1="159.7974" x2="225.2183" y2="159.7974">
		<stop  offset="0" style="stop-color:#910000"/>
		<stop  offset="1" style="stop-color:#FF5E00"/>
	</linearGradient>
	<path id="MG" fill="url(#MG_2_)" d="M153.007,167.263l0.06,0.714l2.081-0.06h2.022l2.142,0.119l2.855,0.06l1.428,0.714l0.654,0.713
		l0.595,0.714h1.13l0.356-0.476c0,0,0.298-0.416,0.714-0.416c0.417,0,1.487,0.06,1.903,0c0.417-0.06,0.893-0.357,1.131-0.357
		c0.237,0,1.844-0.178,1.844-0.178s1.309-0.238,1.487-0.238c0.178,0,1.605,0,1.605,0l1.012,0.356l0.595,0.595l0.595,0.714
		l0.356,1.249l0.357,1.309v1.309l0.297,1.131l0.179,0.595l0.476,0.773l0.714,0.832l0.833,0.477l0.714,0.178l0.892,0.417l0.298,0.833
		l-0.06,1.011l-0.119,0.952l-0.356,0.832v1.189l0.06,1.131l0.356,0.951l0.298,0.535l0.535,0.833l0.06,0.833l0.119,0.595h1.011
		l1.487-0.06l0.297-0.773l0.654-0.832l1.012-0.357l0.356,0.357c0,0,0.833,0.059,1.012-0.06c0.178-0.119,0.714-0.417,0.714-0.417
		l1.309-0.416l0.951-0.535l0.773-0.417l1.547-0.356l1.309-0.298l0.892-0.356l0.952-0.298l1.368-0.297l1.309-0.179l0.892-0.179
		l1.012-0.118h1.784l1.249-0.06l1.309-0.477c0,0,1.368-0.595,1.368-0.772c0-0.179,1.309-1.012,1.309-1.012l0.714-1.011l0.595-1.487
		l0.535-1.428l0.477-0.893l0.595-1.07l0.654-0.833l0.356-1.189l0.417-1.368l0.772-0.951l1.785-0.06l0.476-0.773l0.595-1.428
		l0.773-1.011c0,0,0.06-0.773,0.06-1.071c0-0.297,0.416-2.022,0.416-2.022l-0.238-1.011l-0.416-0.535l0.179-1.249l0.595-0.357
		l-0.06-1.07l-0.654-0.476c0,0,0.06-0.833,0.06-1.071c0-0.237,0.535-1.189,0.535-1.189l0.298-0.476c0,0,0.06-0.833,0.476-1.071
		c0.416-0.237,0.833-0.356,0.833-0.356l0.476-0.06l0.535,0.119h1.368h0.952l0.118-0.535l-1.309-1.19c0,0-0.772-1.13-0.832-1.309
		c-0.06-0.178,0.118-1.963,0.118-1.963l0.298-1.784l0.654-0.356h1.011l0.119-0.952l0.477-1.13l0.654-0.773l0.595-0.714l0.06-1.428
		l-1.487-0.714l-1.071-0.476l-1.249-0.476c0,0-0.772,0-0.951,0s-1.309,0-1.309,0h-0.833l-0.893,0.356h-0.772l-0.238-0.832
		l-0.238-1.19l-0.951-0.832l-0.595-0.773l-0.654-0.298c0,0-0.833-0.119-1.071-0.119c-0.237,0-1.309,0-1.309,0l-0.595-0.059
		l-1.07-0.417l-2.082-1.13l-1.368-1.07l-1.011-0.833c0,0-0.714-0.06-0.952-0.06s-1.13,0.119-1.13,0.119l-0.119,0.595l-0.833,0.06
		l-1.428-0.06l-1.011-1.071l-0.298-0.713l-0.297-0.654l-0.833-0.535l-1.07-0.18l-1.071,0.061l-2.141,1.486l-3.629,2.32l-3.271,1.605
		l-1.487,0.477l-0.951,0.416l-0.119-1.606c0,0-0.714-0.832-0.893-0.832c-0.178,0-1.13,0-1.13,0l-0.714,0.892l-1.011,0.357
		l-0.595,0.178l0.06,1.726l0.356,1.249l-0.06,1.368l-0.237,1.011l-1.071,0.595l-0.951-0.118l-1.012,0.476l-0.119,1.07l-0.118,1.784
		l0.595,0.833l0.118,1.012l0.119,1.07l-0.119,1.011l-0.892,0.654l-0.417,0.773l0.179,0.952l0.476,0.238l0.179,1.011l-0.237,1.368
		l0.178,1.13c0,0-0.356,0.357-0.476,0.714c-0.119,0.357-1.13,1.309-1.13,1.309l-1.368,0.535l-1.13,1.071l-0.654,0.714l-0.773-0.893
		c0,0-0.952-0.654-1.249-0.654c-0.298,0-1.19,0-1.19,0h-1.784l-1.605-0.06l-0.952,0.179l-0.654,0.773l-0.951,0.356l-1.368,0.119
		l-1.249,0.237l-1.606,0.238l-1.189,0.06c0,0-0.714,0.06-0.893,0.238c-0.179,0.178-0.893,0.416-1.07,1.011
		c-0.179,0.595-1.726,2.379-1.726,2.379s-1.13,1.428-1.309,1.726C153.007,166.311,153.007,167.263,153.007,167.263z"/>
	<g>
		<path d="M194.928,160.726c-0.038-0.716-0.084-1.576-0.076-2.216h-0.022c-0.176,0.602-0.389,1.241-0.647,1.949l-0.906,2.49h-0.502
			l-0.83-2.444c-0.244-0.724-0.449-1.386-0.594-1.995h-0.016c-0.016,0.64-0.054,1.5-0.099,2.27l-0.138,2.2h-0.632l0.358-5.132h0.845
			l0.876,2.482c0.213,0.632,0.388,1.195,0.518,1.729h0.022c0.13-0.519,0.313-1.082,0.541-1.729l0.914-2.482h0.845l0.319,5.132
			h-0.646L194.928,160.726z"/>
		<path d="M200.63,162.751c-0.297,0.106-0.883,0.282-1.576,0.282c-0.776,0-1.416-0.198-1.918-0.678
			c-0.442-0.427-0.716-1.112-0.716-1.911c0.007-1.531,1.058-2.65,2.779-2.65c0.594,0,1.058,0.13,1.278,0.236l-0.159,0.541
			c-0.274-0.122-0.617-0.222-1.135-0.222c-1.249,0-2.063,0.777-2.063,2.063c0,1.303,0.784,2.071,1.979,2.071
			c0.435,0,0.731-0.061,0.884-0.137v-1.53h-1.044v-0.533h1.69V162.751z"/>
	</g>
</g>
<g class="estado-botao" id="BA">
	<linearGradient id="BA_2_" gradientUnits="userSpaceOnUse" x1="183.6401" y1="125.0303" x2="241.6938" y2="125.0303">
		<stop  offset="0" style="stop-color:#FFAB00"/>
		<stop  offset="1" style="stop-color:#D07800"/>
	</linearGradient>
	<path id="BA" fill="url(#BA_2_)" d="M183.64,111.588l0.119-1.904l0.832-1.784l1.309-0.714l0.833-0.833l1.071-1.19l1.07,0.238
		l0.714,1.07l0.833,0.952l1.07,0.357l1.428,0.714l0.951-0.119l1.428-0.833l1.071-0.476h1.903l0.714-0.833l1.665-1.428l1.07-1.784
		l0.357-0.952v-1.309l-0.238-0.476l-0.119-1.309l0.595-0.833h1.19l0.714,0.476c0,0,1.189-0.119,1.665,0
		c0.476,0.119,0.833,0.714,0.833,0.714h1.665l1.309-0.357l1.666-0.714l2.022-0.476l1.546-0.595l0.952-1.547l1.07-0.714l1.547-0.713
		l0.951,0.476l0.238,0.714l0.238,1.071l0.237,1.666l0.952,0.833l1.189,0.238l2.142-1.427l1.309-1.309l1.309-0.357l0.951-1.428
		l0.833-0.952l0.952-0.357h0.832l0.833,0.357l1.189,0.476l0.952,0.357l1.546,1.07l0.833,0.714l0.952,0.714l0.951,0.714l0.476,1.666
		l-0.118,1.07l0.237,0.833l1.071,0.595v0.595l-0.119,3.688l-0.952,0.476l-0.951,0.476v1.309l0.237,0.952l0.595,1.19l0.833,1.309
		l1.309,1.189l1.189,0.595l-0.595,1.785l-1.784,2.141l-1.547,1.785l-1.309,1.547l-0.118-0.715l-1.071-0.713l-1.309-0.119
		l-1.189,0.357c0,0-0.476,0.713-0.476,1.07c0,0.356,0.119,1.07,0.119,1.07v1.428l-0.596,1.189l-0.832,1.547l0.237,2.26l0.238,1.189
		l0.356,0.952l-0.118,1.071l-0.238,0.713l0.119,3.212l0.237,2.499l-0.118,1.427l0.476,0.952v1.189l-0.238,2.142l-0.595,1.309
		l-0.237,1.903l-0.477,1.665l-0.595,1.071v2.022l0.476,0.356v0.952l-1.665,1.546l-1.547,1.903l-0.832,0.238l-1.19-0.714
		l-0.595-1.189l-0.237-1.189l-0.952-0.714l-0.595-1.07l-0.238-1.19l0.119-0.951l1.071-1.189l0.832-1.547l1.19-1.189l0.713-1.547
		v-1.784l-1.903-1.428l-1.784-0.714l-1.547-0.595h-1.665h-1.665l-0.833-0.476l-0.357-0.952l-1.309-1.309l-1.07-0.595
		c0,0-1.309-0.238-1.784-0.238c-0.477,0-1.309-0.356-1.309-0.356l-1.785-0.595l-1.427-1.189l-1.428-0.714l-0.833-0.356l-1.784-0.119
		l-1.309,0.237l-0.952,0.356l-0.476-0.951l-0.357-1.189l-0.713-0.951l-2.022-0.357l-1.071,0.119l-1.784,0.476l-1.784,1.309
		l-2.142,1.071l-1.784,1.189l-1.666,0.832l-1.189,0.952l0.119-1.665c0,0,0.237-1.785-0.119-2.143
		c-0.356-0.356-0.833-1.783-0.833-1.783l-0.832-1.309l-0.238-2.38l0.238-1.071l0.237-2.021v-2.617l-0.476-1.428l-0.357-2.379
		l0.596-1.189l0.356-1.547l-0.595-1.903L183.64,111.588z"/>
	<g>
		<path d="M208.21,115.565c0.289-0.061,0.746-0.106,1.21-0.106c0.663,0,1.089,0.114,1.409,0.373
			c0.267,0.198,0.426,0.502,0.426,0.906c0,0.495-0.327,0.929-0.868,1.126v0.016c0.487,0.122,1.059,0.525,1.059,1.287
			c0,0.441-0.175,0.777-0.434,1.028c-0.358,0.328-0.937,0.48-1.774,0.48c-0.457,0-0.807-0.031-1.027-0.061V115.565z
			 M208.873,117.667h0.602c0.7,0,1.111-0.365,1.111-0.86c0-0.602-0.457-0.837-1.127-0.837c-0.305,0-0.479,0.022-0.586,0.045V117.667
			z M208.873,120.126c0.129,0.023,0.319,0.03,0.556,0.03c0.686,0,1.317-0.251,1.317-0.998c0-0.7-0.602-0.99-1.325-0.99h-0.548
			V120.126z"/>
		<path d="M213.167,119.014l-0.532,1.614h-0.686l1.743-5.132h0.8l1.751,5.132h-0.708l-0.548-1.614H213.167z M214.85,118.497
			l-0.503-1.477c-0.114-0.335-0.19-0.64-0.267-0.937h-0.016c-0.076,0.304-0.159,0.617-0.259,0.929l-0.502,1.485H214.85z"/>
	</g>
</g>
<g class="estado-botao" id="GO">
	<linearGradient id="GO_2_" gradientUnits="userSpaceOnUse" x1="138.3149" y1="142.8755" x2="185.3452" y2="142.8755">
		<stop  offset="0" style="stop-color:#FFFF2E"/>
		<stop  offset="1" style="stop-color:#D0B700"/>
	</linearGradient>
	<path id="GO" fill="url(#GO_2_)" d="M156.556,121.025l1.428,0.873l1.348,1.031l1.349,0.237l1.349,1.269l1.665,0.477l0.317-2.142
		l1.03-0.635l2.38-0.079l0.237,1.428l0.318,1.031l0.951,0.158l1.666-0.158l1.348,0.158l1.11,0.635l0.555,0.316l1.746,0.08v-0.873
		l1.665-0.396l1.189-0.713l1.666-0.396l1.665-0.477l1.428-0.317l0.951,0.079l0.079,2.459l-0.555,0.317l0.158,4.204l0.556,0.713
		l0.714,0.952l0.476,0.317v2.617l-0.158,0.476l-0.714-0.079l-0.873-0.714l-0.952-0.397l-1.03,0.08l-0.317,0.952v0.793l-1.427,0.316
		l-0.952,0.159v1.03v2.222l0.317,0.872v0.476l0.158,0.951l-1.031,0.08l-1.507,0.158l-0.872,1.666l-0.317,1.27l-0.079,1.269
		l0.317,1.03l0.476,0.556l0.635,0.952l0.079,0.714l-0.952,0.793l-0.872,0.951l-0.317,0.873l0.159,0.951l0.714,0.317l0.316,0.555
		v1.428v0.714l-0.951,0.714l-1.189,0.635l-0.873,0.951l-0.238,0.635l-0.871-0.476l-1.508-0.318h-1.823l-2.063-0.078
		c0,0-1.031,0.237-1.269,0.237c-0.238,0-1.428,0.397-1.428,0.397l-0.952,0.792l-1.903-0.158l-2.538,0.396
		c0,0-1.11,0.238-1.349,0.238c-0.237,0-1.348,1.11-1.348,1.11l-1.189,1.428l-0.873,0.951l-1.427,1.666l-1.507-1.111l-1.666-0.872
		c0,0-0.951-0.555-1.348-0.555c-0.397,0-1.982-0.952-2.221-0.952s-1.349-0.873-1.587-0.951c-0.237-0.079-0.635-0.635-1.349-0.873
		c-0.713-0.238-1.506-0.555-1.506-0.555l-0.714-0.793l-0.159-0.873l-1.189-0.714l-0.317-1.427v-1.27l-0.237-1.11l-0.238-2.22
		l1.03-2.301l1.19-0.635l1.189-1.03l0.556-1.666l2.3-2.696l1.348-0.476l1.507-0.635l0.238-0.793l0.635-1.745l1.189-1.666l1.03-0.476
		l1.428-1.109l0.477-1.349l0.713-3.093l0.873-1.666l0.397-1.666c0,0,0-1.03,0.316-1.665c0.317-0.635,0.396-2.142,0.714-2.3
		c0.316-0.158,0.635-1.666,0.635-1.666L156.556,121.025z"/>
	<g>
		<path d="M157.392,149.903c-0.297,0.106-0.883,0.282-1.576,0.282c-0.776,0-1.416-0.198-1.918-0.678
			c-0.442-0.427-0.716-1.112-0.716-1.911c0.007-1.531,1.058-2.65,2.779-2.65c0.594,0,1.058,0.13,1.278,0.236l-0.159,0.541
			c-0.274-0.122-0.617-0.222-1.135-0.222c-1.249,0-2.063,0.777-2.063,2.063c0,1.303,0.784,2.071,1.979,2.071
			c0.435,0,0.731-0.061,0.884-0.137v-1.53h-1.044v-0.533h1.69V149.903z"/>
		<path d="M162.791,147.513c0,1.767-1.074,2.703-2.384,2.703c-1.355,0-2.307-1.051-2.307-2.604c0-1.629,1.013-2.695,2.383-2.695
			C161.884,144.916,162.791,145.99,162.791,147.513z M158.808,147.597c0,1.096,0.594,2.078,1.637,2.078
			c1.051,0,1.645-0.967,1.645-2.132c0-1.021-0.533-2.086-1.637-2.086C159.356,145.457,158.808,146.47,158.808,147.597z"/>
	</g>
	<g>
		<path d="M168.331,132.537c0.303-0.046,0.662-0.08,1.056-0.08c0.714,0,1.222,0.166,1.559,0.479
			c0.342,0.314,0.542,0.759,0.542,1.381c0,0.628-0.194,1.142-0.554,1.495c-0.359,0.359-0.953,0.554-1.701,0.554
			c-0.354,0-0.65-0.017-0.901-0.046V132.537z M168.828,135.938c0.125,0.022,0.308,0.028,0.502,0.028
			c1.062,0,1.638-0.594,1.638-1.632c0.006-0.907-0.508-1.483-1.558-1.483c-0.257,0-0.451,0.022-0.582,0.051V135.938z"/>
		<path d="M172.133,132.486h2.071v0.417h-1.574v1.278h1.455v0.411h-1.455v1.74h-0.497V132.486z"/>
	</g>
</g>
<g class="estado-botao" id="DF">
	<circle fill="#EDED15" cx="171.149" cy="134.042" r="5.875"/>
	<g>
		<path d="M168.331,132.537c0.303-0.046,0.662-0.08,1.056-0.08c0.714,0,1.222,0.166,1.559,0.479
			c0.342,0.314,0.542,0.759,0.542,1.381c0,0.628-0.194,1.142-0.554,1.495c-0.359,0.359-0.953,0.554-1.701,0.554
			c-0.354,0-0.65-0.017-0.901-0.046V132.537z M168.828,135.938c0.125,0.022,0.308,0.028,0.502,0.028
			c1.062,0,1.638-0.594,1.638-1.632c0.006-0.907-0.508-1.483-1.558-1.483c-0.257,0-0.451,0.022-0.582,0.051V135.938z"/>
		<path d="M172.133,132.486h2.071v0.417h-1.574v1.278h1.455v0.411h-1.455v1.74h-0.497V132.486z"/>
	</g>
</g>
<g class="estado-botao" id="ES">
	<linearGradient id="ES_2_" gradientUnits="userSpaceOnUse" x1="214.1343" y1="166.5088" x2="227.062" y2="166.5088">
		<stop  offset="0" style="stop-color:#FF5E00"/>
		<stop  offset="1" style="stop-color:#910000"/>
	</linearGradient>
	<path id="ES" fill="url(#ES_2_)" d="M214.611,176.145l0.951,0.397l0.872,0.396l2.538-0.317l0.635-0.714l0.793-0.793l0.635-0.873
		l1.03-1.269l0.952-1.349l0.476-0.871l0.635-1.666l0.317-1.508l1.586-0.792c0,0,0.555-0.318,0.555-0.635
		c0-0.317,0.238-1.982,0.238-1.982l0.238-2.696v-2.063l-0.555-1.587l-1.032-0.634l-1.189-0.872l-0.952-0.238h-1.823l-0.794,0.317
		l-0.713,0.476l-0.714,0.556v0.951l0.079,0.872l0.158,1.189l0.477,1.032l-0.477,0.714l-0.079,0.634v1.189l-0.237,1.508l-0.477,1.823
		l-0.476,1.031l-0.793,0.952l-0.396,1.03l-0.396,0.714l-1.269,0.238l-0.952,0.476l-0.079,1.349l-0.08,1.348l-0.158,1.508
		L214.611,176.145z"/>
	<g>
		<path d="M222.764,168.742h-1.995v1.851h2.224v0.556h-2.886v-5.132h2.771v0.556h-2.109v1.622h1.995V168.742z"/>
		<path d="M223.761,170.342c0.297,0.183,0.73,0.335,1.188,0.335c0.678,0,1.074-0.358,1.074-0.876c0-0.479-0.274-0.754-0.968-1.021
			c-0.837-0.297-1.354-0.73-1.354-1.454c0-0.8,0.662-1.394,1.659-1.394c0.525,0,0.906,0.122,1.135,0.251l-0.183,0.541
			c-0.168-0.092-0.51-0.243-0.975-0.243c-0.7,0-0.967,0.418-0.967,0.769c0,0.479,0.312,0.716,1.021,0.99
			c0.867,0.335,1.31,0.753,1.31,1.507c0,0.792-0.587,1.478-1.797,1.478c-0.495,0-1.036-0.145-1.311-0.327L223.761,170.342z"/>
	</g>
</g>
<g class="estado-botao" id="SC">
	<linearGradient id="SC_2_" gradientUnits="userSpaceOnUse" x1="134.4292" y1="220.4404" x2="168.1353" y2="220.4404">
		<stop  offset="0" style="stop-color:#001FD0"/>
		<stop  offset="1" style="stop-color:#45FFF3"/>
	</linearGradient>
	<path id="SC" fill="url(#SC_2_)" d="M134.429,211.994v1.744l0.079,1.744l0.158,0.952l1.348,0.08h1.746l1.585,0.079l1.746,0.237
		l2.379,0.635l1.428,0.634l1.109,0.238l1.428,0.476l1.27,0.318l1.031,0.555l5.551,5.313l1.189,0.396l1.587-0.079h1.744
		c0,0,0.477-0.237,0.635,0.238c0.159,0.476,0.477,1.03,0.477,1.03l-0.159,0.952l-0.396,0.873l-0.951,1.03l-0.396,0.873l0.951,0.237
		l0.952,0.396l0.635-0.952l1.348-1.189l1.189-1.03l2.142-1.111c0,0,0.556-0.476,0.635-0.792c0.078-0.317,0.635-2.301,0.635-2.301
		l0.476-1.744l0.158-1.903V218.1l-0.079-2.141c0,0,0-1.586,0-1.824c0-0.237-0.079-1.983-0.079-1.983l-0.238-1.109l-1.428-1.11h-1.27
		l-1.03,0.396l-0.635,0.555l-0.714,0.159l-1.348,0.396l-0.714-0.317l-0.476-0.555l-0.476-0.556l-1.19,0.08l-1.031,0.078
		l-1.586,0.238h-1.031l-0.872,0.952l-0.714,0.555l-1.349-0.079l-0.476,0.476l-0.714,0.952l-0.396,0.872h-0.952h-1.109l-1.189-0.158
		l-1.666-0.159l-1.586-0.396l-1.349-0.476l-1.269-0.396l-1.269-0.159h-0.873l-1.982-0.316l-1.507-0.159L134.429,211.994z"/>
	<g>
		<path d="M155.537,219.751c0.297,0.183,0.73,0.335,1.188,0.335c0.678,0,1.074-0.358,1.074-0.876c0-0.479-0.274-0.754-0.968-1.021
			c-0.837-0.297-1.354-0.73-1.354-1.454c0-0.8,0.662-1.394,1.659-1.394c0.525,0,0.906,0.122,1.135,0.251l-0.183,0.541
			c-0.168-0.092-0.51-0.243-0.975-0.243c-0.7,0-0.967,0.418-0.967,0.769c0,0.479,0.312,0.716,1.021,0.99
			c0.867,0.335,1.31,0.753,1.31,1.507c0,0.792-0.587,1.478-1.797,1.478c-0.495,0-1.036-0.145-1.311-0.327L155.537,219.751z"/>
		<path d="M162.968,220.39c-0.244,0.122-0.731,0.244-1.355,0.244c-1.446,0-2.535-0.914-2.535-2.597c0-1.606,1.089-2.695,2.68-2.695
			c0.64,0,1.043,0.137,1.219,0.229l-0.16,0.541c-0.251-0.122-0.609-0.214-1.035-0.214c-1.203,0-2.003,0.77-2.003,2.117
			c0,1.256,0.724,2.063,1.972,2.063c0.404,0,0.815-0.084,1.082-0.214L162.968,220.39z"/>
	</g>
</g>
<g class="estado-botao" id="RS">
	<linearGradient id="RS_2_" gradientUnits="userSpaceOnUse" x1="108.5742" y1="239.3115" x2="159.8071" y2="239.3115">
		<stop  offset="0" style="stop-color:#001FD0"/>
		<stop  offset="1" style="stop-color:#45FFF3"/>
	</linearGradient>
	<path id="RS" fill="url(#RS_2_)" d="M109.05,237.531l1.269-0.158l1.11-0.714l1.269-0.476l1.19,0.237l1.11,1.19l1.824,1.585
		l1.507,1.666v1.031l0.634,0.714l0.873-0.238l1.031-0.556l0.714-0.396l0.793,0.714l0.476,0.555l0.714,0.951l1.031,0.873l1.189-0.238
		l1.031,1.031l1.19,0.555l0.873,0.635l1.031,1.189l0.793,1.031l1.19-0.079l1.269,0.951l0.238,0.793l0.873,0.794l0.873,1.189
		c0,0,0.316-0.001,0.555,0.158s1.189,0.794,1.189,0.794l0.635,0.714l-0.08,1.823l-0.633,0.872c0,0-1.032,0.556-1.032,0.793
		c0,0.238-0.079,3.252-0.079,3.252l0.793-0.635l1.189-0.871l1.665-0.794l0.714-1.348l1.349-1.428l0.477-2.063l0.714-1.982
		l0.713-1.189v-2.063l0.714-1.189l0.952-0.793l0.079-1.824l1.745-0.396l0.872-0.634l0.237-1.904l1.111-0.793l0.793-3.331
		l0.713-0.396l1.111,0.317l0.079,0.555l0.872,0.317l0.635-0.713l0.872-0.238h1.189l-0.079,1.903l-0.792,0.793l-0.952,1.349
		l-1.666,1.506l-0.793,1.428l-0.714,1.111l-1.586,1.03l-1.745,1.11c0,0-1.031,0.476-1.269,0.634
		c-0.238,0.159-0.873,0.557-0.873,0.557l0.08,0.951l0.634-0.08l0.873-0.079l1.349-0.635l1.585-1.189l1.508-1.428l1.507-1.428
		l1.665-1.903l1.903-2.617l1.189-2.22l1.349-2.776l0.556-1.507l0.792-1.824l-0.714-0.476l-1.03-0.238l-0.159-1.507l0.635-1.586
		l0.873-1.348v-0.635l-2.142,0.159l-1.745-0.397l-1.269-0.316l-1.666-1.666l-0.951-1.11l-1.269-1.189c0,0-1.348-0.793-1.666-1.031
		c-0.317-0.237-1.824-0.635-1.824-0.635s-1.665-0.635-2.142-0.714c-0.476-0.078-1.903-0.078-2.379-0.316s-2.458-0.556-2.696-0.635
		s-1.429-0.634-2.935-0.555c-1.507,0.079-3.41,0.079-3.965,0.079s-1.745,0-1.745,0l-1.189,0.872l-1.349,0.952l-1.824,0.871
		l-1.428,0.873l-1.269,0.793l-1.269,0.714l-14.117,14.275L109.05,237.531z"/>
	<g>
		<path d="M132.549,230.483c0.335-0.068,0.815-0.106,1.272-0.106c0.708,0,1.164,0.129,1.484,0.419
			c0.259,0.229,0.404,0.578,0.404,0.975c0,0.678-0.428,1.127-0.968,1.31v0.022c0.396,0.138,0.632,0.503,0.754,1.036
			c0.167,0.715,0.289,1.21,0.396,1.408h-0.686c-0.083-0.145-0.197-0.586-0.342-1.226c-0.152-0.708-0.427-0.975-1.028-0.998h-0.624
			v2.224h-0.663V230.483z M133.211,232.821h0.678c0.708,0,1.157-0.389,1.157-0.975c0-0.663-0.479-0.952-1.181-0.96
			c-0.319,0-0.548,0.031-0.654,0.062V232.821z"/>
		<path d="M136.553,234.74c0.297,0.183,0.731,0.335,1.188,0.335c0.678,0,1.073-0.358,1.073-0.876c0-0.479-0.274-0.754-0.967-1.021
			c-0.838-0.297-1.355-0.73-1.355-1.454c0-0.8,0.662-1.394,1.66-1.394c0.525,0,0.906,0.122,1.135,0.251l-0.184,0.541
			c-0.167-0.092-0.51-0.243-0.975-0.243c-0.7,0-0.967,0.418-0.967,0.769c0,0.479,0.313,0.716,1.021,0.99
			c0.868,0.335,1.31,0.753,1.31,1.507c0,0.792-0.586,1.478-1.797,1.478c-0.495,0-1.035-0.145-1.31-0.327L136.553,234.74z"/>
	</g>
</g>
<g class="estado-botao" id="AC">
	<linearGradient id="AC_2_" gradientUnits="userSpaceOnUse" x1="0" y1="96.8369" x2="44.5718" y2="96.8369">
		<stop  offset="0" style="stop-color:#2E8B00"/>
		<stop  offset="1" style="stop-color:#00D065"/>
	</linearGradient>
	<path id="AC" fill="url(#AC_2_)" d="M1.111,84.385c0,0,10.152,4.6,19.986,5.234c2.062,1.427,3.807,2.22,3.807,2.22
		s16.02,8.724,19.668,9.676l-0.158,1.11l-2.063,1.269l-1.903,0.952l-1.11,1.269l-2.062,0.317l-1.586,0.634l-1.269,1.745
		l-0.952,0.476l-1.269-0.159l-1.745-0.793h-2.696h-4.441l-2.062-0.159l-0.476-1.586l-0.159-3.014l0.476-2.062v-2.221l-0.159-1.428
		l-2.062,1.428l-2.379,1.903l-1.745,0.634l-4.283-0.476l-0.317-1.903l-1.903-1.428l-1.428-0.634H5.234l0.317-1.11v-1.903
		l-1.11-1.269l-1.903-2.062l-1.427-2.855L0,85.971v-1.428L1.111,84.385z"/>
	<g>
		<path d="M25.836,102.835l-0.533,1.614h-0.685l1.744-5.132h0.799l1.751,5.132h-0.708l-0.548-1.614H25.836z M27.519,102.317
			l-0.502-1.477c-0.114-0.335-0.19-0.64-0.267-0.937h-0.015c-0.076,0.304-0.16,0.617-0.259,0.929l-0.502,1.485H27.519z"/>
		<path d="M33.138,104.282c-0.244,0.122-0.731,0.244-1.355,0.244c-1.447,0-2.536-0.914-2.536-2.597c0-1.606,1.089-2.695,2.68-2.695
			c0.64,0,1.043,0.137,1.218,0.229l-0.16,0.541c-0.251-0.122-0.609-0.213-1.036-0.213c-1.203,0-2.002,0.769-2.002,2.117
			c0,1.256,0.723,2.063,1.972,2.063c0.403,0,0.814-0.084,1.081-0.213L33.138,104.282z"/>
	</g>
</g>
<g class="estado-botao" id="MA">
	<linearGradient id="MA_2_" gradientUnits="userSpaceOnUse" x1="170.7925" y1="73.7275" x2="212.8452" y2="73.7275">
		<stop  offset="0" style="stop-color:#FFAB00"/>
		<stop  offset="1" style="stop-color:#D07800"/>
	</linearGradient>
	<path id="MA" fill="url(#MA_2_)" d="M185.722,44.017l1.368,0.119l1.189,1.011l1.011,0.119l1.606,0.06l1.309,0.535l0.833,1.13
		l1.665,1.249c0,0,0.833,1.13,0.833,1.309c0,0.178,0.237,1.011,0.237,1.249s0,1.249-0.178,1.309
		c-0.179,0.06-1.309,1.189-1.309,1.189l-0.298,1.13l0.119,1.428l0.833,0.714l1.07-0.298l0.535-1.189l1.309-0.714h1.071l0.535-0.714
		c0,0,0.535-0.654,0.951-0.654c0.417,0,2.261-0.059,2.261-0.059l0.951-0.476l0.773-0.357l1.487,0.297l1.249,0.595l1.487,0.952
		l1.13,0.536l1.963,0.238l1.13,0.297l-0.118,1.13l-0.833,0.892l-1.309,0.714l-0.535,0.357l-1.903,0.417l-0.833,1.665l-0.952,1.666
		l-0.714,1.25c0,0-0.118,2.141-0.118,3.212c0,1.07,0.535,2.022,0.535,2.438c0,0.417,0.416,1.666,0,2.142
		c-0.417,0.476-0.773,1.963-1.189,2.32c-0.417,0.357-0.238,1.963-0.238,1.963l0.119,0.952l1.13,1.309l-0.238,1.725l-0.714,0.952
		l-1.546,0.119c0,0-0.952-0.416-1.189-0.416c-0.238,0-1.487,0.059-1.487,0.059l-1.368,0.119l-0.893,0.476l-1.309,1.13l-1.13,1.189
		l-1.547,1.487l-1.486,0.595l-2.617,0.714l-1.666,1.428l-0.773,1.784l-0.178,1.19c0,0-0.357,1.487-0.417,1.725
		c-0.06,0.238-0.951,1.547-1.07,1.725s-0.714,2.082-0.714,2.26c0,0.179,0.119,2.142,0.119,2.142l0.416,0.952
		c0,0,0.417,0.952,0.238,1.13c-0.179,0.179-0.119,2.558-0.119,2.558l-0.714,0.952c0,0-1.011-0.356-1.249-0.416
		s-1.07-0.595-1.07-0.595s-0.536-1.547-0.595-1.904c-0.06-0.357-0.119-1.725-0.357-2.022c-0.238-0.298-0.773-0.654-1.07-1.071
		c-0.298-0.417-1.131-1.368-1.131-1.546c0-0.179,0.119-1.368,0.119-1.547c0-0.178,0.714-1.666,0.714-1.666s1.309-0.535,1.547-0.654
		c0.237-0.119,0.595-1.784,0.595-1.784v-1.546c0,0-0.179-0.238-0.595-0.714c-0.417-0.476-3.093-0.238-3.093-0.238l-1.428-0.892
		l-1.487-1.903c0,0-0.773-1.189-0.714-1.428c0.06-0.238,0.595-2.498,0.595-2.498l0.298-5.651l-0.179-1.903l-0.595-1.249
		c0,0-2.736-1.785-2.975-1.785c-0.237,0-1.665-0.357-1.665-0.357l-0.356-0.773l1.784-2.082l2.142-1.071l1.367-1.189l1.428-2.26
		l1.726-2.796l1.427-2.022l1.25-1.963l0.297-1.189l0.357-1.189l0.237-1.071c0,0,0.298-0.773,0.417-0.952
		c0.118-0.179,0.832-1.487,0.832-1.487s0.417-1.784,0.417-1.963c0-0.178,0.297-1.487,0.297-1.666c0-0.178,0.595-2.082,0.595-2.082
		L185.722,44.017z"/>
	<g>
		<path d="M189.456,70.075c-0.038-0.716-0.084-1.576-0.076-2.216h-0.022c-0.176,0.602-0.389,1.241-0.647,1.949l-0.906,2.49h-0.502
			l-0.83-2.444c-0.244-0.723-0.449-1.386-0.594-1.995h-0.016c-0.016,0.64-0.054,1.5-0.099,2.269l-0.138,2.201h-0.632l0.358-5.132
			h0.845l0.876,2.482c0.213,0.632,0.388,1.196,0.518,1.729h0.022c0.13-0.518,0.313-1.081,0.541-1.729l0.914-2.482h0.845l0.319,5.132
			h-0.646L189.456,70.075z"/>
		<path d="M192.005,70.715l-0.532,1.614h-0.686l1.743-5.132h0.8l1.751,5.132h-0.708l-0.548-1.614H192.005z M193.689,70.197
			l-0.503-1.477c-0.114-0.335-0.19-0.64-0.267-0.937h-0.016c-0.076,0.304-0.159,0.617-0.259,0.929l-0.502,1.485H193.689z"/>
	</g>
</g>
<g class="estado-botao" id="PI">
	<linearGradient id="PI_2_" gradientUnits="userSpaceOnUse" x1="186.7329" y1="80.9546" x2="222.0649" y2="80.9546">
		<stop  offset="0" style="stop-color:#FFAB00"/>
		<stop  offset="1" style="stop-color:#D07800"/>
	</linearGradient>
	<path id="PI" fill="url(#PI_2_)" d="M213.857,55.08h0.951l1.428,0.476l0.357,0.595l-0.595,0.833l-0.238,0.952l0.119,0.952
		l0.833,1.309l0.595,1.428l0.714,1.309v1.309l0.356,1.428v2.736l0.476,4.164l0.119,1.784l0.238,1.309l0.476,2.379l0.476,1.309
		l0.357,0.952l1.189,0.833l0.356,1.07c0,0-0.237,0.714-0.595,0.833c-0.356,0.119-0.832,1.309-0.832,1.309l0.118,1.666l0.477,1.309
		l0.237,1.189l-0.476,1.428l-2.022,1.189l-2.022,1.546l-1.428,1.309l-1.546,1.666l-1.666,0.952l-1.665,0.119l-1.071,0.714
		l-1.189,0.357h-1.428l-0.951-0.119l-1.428-0.476l-1.784-0.357l-0.952,0.119l-0.595,0.714l-0.833,0.952l-0.118,1.428v1.189
		l-0.357,1.428l-0.714,0.952l-0.951,0.952l-1.309,0.357l-1.309,0.714l-1.309,0.714l-1.309,0.476c0,0-0.477-0.357-1.19-0.476
		c-0.713-0.119-0.713-0.119-0.713-0.119l-0.833-1.071l-0.477-0.833l-0.713-0.476h-1.547l-0.119-1.784l-0.119-1.547v-1.666
		l-0.356-1.309l-0.238-1.903l0.595-1.546l0.714-1.309l0.833-1.903l0.476-1.903l0.357-1.309l0.714-0.714l0.951-0.714l1.071-0.357
		l1.309-0.476l1.546-0.595l1.547-1.427l1.189-1.309l1.07-0.833l1.547-0.238l1.189-0.119l1.309,0.238h1.309l1.428-0.595l0.833-1.546
		l0.119-1.666l-0.357-0.952l-0.595-1.071l0.238-1.546l0.237-1.189l0.477-0.952l0.713-0.952l-0.356-1.189l-0.119-1.784l-0.237-2.142
		v-1.428l0.237-1.546l0.714-1.189l0.952-1.666l1.189-0.357l2.498-1.428l1.07-1.427L213.857,55.08z"/>
	<g>
		<path d="M205.831,84.389c0.319-0.054,0.738-0.099,1.271-0.099c0.654,0,1.134,0.152,1.438,0.426
			c0.282,0.244,0.449,0.617,0.449,1.074c0,0.464-0.137,0.83-0.396,1.096c-0.351,0.373-0.922,0.563-1.568,0.563
			c-0.198,0-0.381-0.007-0.533-0.045v2.056h-0.662V84.389z M206.493,86.864c0.145,0.038,0.327,0.053,0.548,0.053
			c0.8,0,1.287-0.389,1.287-1.097c0-0.678-0.479-1.005-1.211-1.005c-0.289,0-0.51,0.023-0.624,0.053V86.864z"/>
		<path d="M210.543,84.328v5.132h-0.662v-5.132H210.543z"/>
	</g>
</g>
<g class="estado-botao" id="CE">
	<linearGradient id="CE_2_" gradientUnits="userSpaceOnUse" x1="217.4253" y1="70.9023" x2="242.646" y2="70.9023">
		<stop  offset="0" style="stop-color:#FFAB00"/>
		<stop  offset="1" style="stop-color:#D07800"/>
	</linearGradient>
	<path id="CE" fill="url(#CE_2_)" d="M218.258,55.199l-0.476,1.07l-0.357,0.952l0.119,1.309l0.119,0.595l0.476,0.833l0.477,0.952
		l0.356,0.714v1.189l0.595,1.19l0.119,1.309v1.903l0.119,1.309l0.119,2.022l0.237,2.022l0.119,2.022l0.238,1.547
		c0,0,0.119,0.714,0.237,1.309c0.119,0.595,0.833,1.903,0.833,1.903l1.189,0.595l0.477,0.833l-0.238,1.427
		c0,0,0.119,0.476-0.238,0.833c-0.356,0.357-0.237,1.189-0.237,1.189l1.309,0.119l1.665-0.119l1.547-0.119h1.309l1.07,0.356
		l1.309,0.833l1.07,1.309l0.952-0.119l1.189-1.189l0.714-0.833l-0.356-1.07l-0.357-0.833v-1.546l0.714-1.546l0.238-1.785
		l1.189-2.022l1.665-2.022l1.19-2.022l1.07-1.904l0.951-1.784l1.666-1.071l-3.093-2.736l-2.617-2.022l-0.714-1.071
		c0,0-1.071-0.714-1.428-0.714c-0.357,0-1.547-0.714-1.547-0.714l-1.665-1.189l-1.784-1.189l-1.785-0.952l-1.784-0.952h-1.903
		h-2.498h-1.189L218.258,55.199z"/>
	<g>
		<path d="M228.213,71.448c-0.244,0.122-0.731,0.244-1.355,0.244c-1.446,0-2.535-0.914-2.535-2.597c0-1.606,1.089-2.695,2.68-2.695
			c0.64,0,1.043,0.137,1.219,0.229l-0.16,0.541c-0.251-0.122-0.609-0.213-1.035-0.213c-1.203,0-2.003,0.769-2.003,2.117
			c0,1.256,0.724,2.063,1.972,2.063c0.404,0,0.815-0.084,1.082-0.213L228.213,71.448z"/>
		<path d="M231.701,69.209h-1.995v1.851h2.224v0.556h-2.886v-5.132h2.771v0.556h-2.109v1.622h1.995V69.209z"/>
	</g>
</g>
<g class="estado-botao" id="AL">
	<linearGradient id="AL_2_" gradientUnits="userSpaceOnUse" x1="238.8394" y1="99.0371" x2="256.4458" y2="99.0371">
		<stop  offset="0" style="stop-color:#FFAB00"/>
		<stop  offset="1" style="stop-color:#D07800"/>
	</linearGradient>
	<polygon id="AL" fill="url(#AL_2_)" points="238.839,97.907 239.91,98.502 241.218,99.334 242.527,99.811 243.955,100.524 
		244.788,101.119 245.858,101.714 247.167,102.666 248.237,103.379 249.308,103.736 250.378,102.784 252.163,101.357 
		253.709,99.454 254.899,98.026 255.732,97.193 256.208,95.766 256.446,94.814 254.662,94.338 253.115,94.576 252.044,94.933 
		251.45,96.598 250.141,97.312 248.475,97.55 246.572,97.55 244.788,97.55 243.716,97.074 242.527,96.36 241.813,95.766 
		240.862,95.766 239.791,96.36 239.196,97.193 	"/>
	<g>
		<path d="M250.755,101.011l-0.532,1.614h-0.686l1.743-5.132h0.8l1.751,5.132h-0.708l-0.548-1.614H250.755z M252.439,100.494
			l-0.503-1.477c-0.114-0.335-0.19-0.64-0.267-0.937h-0.016c-0.076,0.304-0.159,0.617-0.259,0.929l-0.502,1.485H252.439z"/>
		<path d="M254.585,97.494h0.662v4.576h2.192v0.556h-2.854V97.494z"/>
	</g>
</g>
<g class="estado-botao" id="SE">
	<linearGradient id="SE_2_" gradientUnits="userSpaceOnUse" x1="238.8394" y1="105.6396" x2="247.9995" y2="105.6396">
		<stop  offset="0" style="stop-color:#FFAB00"/>
		<stop  offset="1" style="stop-color:#D07800"/>
	</linearGradient>
	<polygon id="SE" fill="url(#SE_2_)" points="239.791,99.572 240.98,100.405 242.408,100.762 243.955,101.714 245.62,102.666 
		247.524,104.569 248,104.926 247.405,105.758 245.501,108.375 244.074,109.922 242.884,111.707 241.932,111.826 240.743,111.588 
		240.029,110.755 239.315,109.922 238.839,108.852 238.958,107.781 240.029,107.662 240.624,106.115 240.743,103.855 
		240.624,102.189 240.029,101.238 239.315,100.405 239.315,99.454 	"/>
	<g>
		<path d="M241.23,110.304c0.297,0.183,0.73,0.335,1.188,0.335c0.678,0,1.074-0.358,1.074-0.875c0-0.479-0.274-0.754-0.968-1.021
			c-0.837-0.297-1.354-0.731-1.354-1.454c0-0.799,0.662-1.394,1.659-1.394c0.525,0,0.906,0.122,1.135,0.251l-0.183,0.541
			c-0.168-0.091-0.51-0.244-0.975-0.244c-0.7,0-0.967,0.419-0.967,0.769c0,0.479,0.312,0.716,1.021,0.99
			c0.867,0.335,1.31,0.754,1.31,1.508c0,0.792-0.587,1.477-1.797,1.477c-0.495,0-1.036-0.145-1.311-0.328L241.23,110.304z"/>
		<path d="M247.733,108.705h-1.995v1.851h2.224v0.556h-2.886v-5.132h2.771v0.556h-2.109v1.622h1.995V108.705z"/>
	</g>
</g>
<g class="estado-botao" id="PA">
	<linearGradient id="PA_2_" gradientUnits="userSpaceOnUse" x1="100.2466" y1="59.0356" x2="183.9966" y2="59.0356">
		<stop  offset="0" style="stop-color:#00D065"/>
		<stop  offset="1" style="stop-color:#2E8B00"/>
	</linearGradient>
	<path id="PA" fill="url(#PA_2_)" d="M100.306,27.421l-0.06,4.521l0.119,1.903c0,0,0.357,2.974,0.357,3.271s0.357,1.546,0.357,1.546
		l1.07,0.773l0.595,0.714l0.297,1.368l0.773,1.011l1.011,1.19l0.952,1.011l1.19,0.119l1.13,0.119l0.417,0.178l0.952-0.357
		l0.833,0.06l0.892,0.595l1.011,1.19l1.249,0.476l1.309,0.773l1.249,0.06l0.654-0.595l1.011-0.179l1.13,0.595l-0.119,0.952
		l-0.119,1.011l-0.595,0.238l-0.595,1.427l-0.357,1.368l-0.892,1.011l-1.309,3.331l-11.123,22.484l0.06,0.893l0.833,1.011
		l0.119,0.952c0,0,0.773,0.713,0.713,0.892c-0.059,0.178,0,1.546,0,1.546l0.714,0.773l0.536,0.773l0.535,1.547l0.773,0.892
		l0.178,1.606l0.06,2.379l1.368,1.011l1.606,1.309l1.071,1.13l1.309,1.13l0.892,0.238l2.498,0.179l3.331,0.356l0.892,0.357
		l8.447,0.357l7.911,0.06l5.234,0.417h5.294l7.197,0.297l2.142,0.06l0.773-1.963l1.784-2.915c0,0,1.309-1.309,1.487-1.428
		s1.07-1.189,1.07-1.189l0.654-1.785l0.179-1.844l-0.238-1.249l-0.654-0.714l0.179-1.844l0.714-1.011l0.297-1.368l0.357-1.309
		c0,0,0.476-0.298,0.773-0.476c0.297-0.178,1.844-1.487,1.844-1.487l1.189-0.713l0.595-0.893l0.952-1.725l0.06-1.606l-0.06-1.547
		l-0.654-0.119l-1.189-0.536l-0.477-1.189l1.487-1.785l3.807-3.271l2.022-0.892l1.487-1.903l2.974-4.759l2.082-2.795l0.119-1.963
		l0.476-1.19l0.773-1.368l0.833-1.963l0.297-2.974l0.595-0.773v-1.903l-1.07-0.654h-1.844l-0.535-0.952c0,0-1.845-0.238-2.142-0.357
		c-0.298-0.119-1.487-0.238-1.487-0.238l-1.725-0.179l-1.547-0.297l-1.011,0.119l-0.714,0.714l-3.688,3.985l-2.081,2.558
		l-1.606,0.892l-1.725,0.06l-0.952-0.595l-0.833,0.06l-0.476,0.714l-0.356,0.714l-1.071-0.417l-1.011-0.833l-2.855-0.536
		c0,0-0.892-0.416-1.07-0.535s-0.952-1.189-0.952-1.189l-0.892-1.963l-0.477-0.417h-1.368l-1.844,1.13l-1.725,0.833l-2.736,0.535
		l-0.714-0.714l0.357-1.309l1.546-0.297l-0.119-0.713l-1.784-0.238c0,0-0.951-1.011-1.189-1.13c-0.238-0.119-1.13-1.547-1.13-1.547
		l-0.238-1.487l-0.893-1.13l-1.844-2.558c0,0-0.297-1.546-0.595-2.022c-0.298-0.476-0.476-1.427-0.476-1.784
		s-0.773-1.428-1.131-1.725c-0.356-0.297-0.713-1.725-0.951-2.082c-0.238-0.356-1.189-1.189-1.189-1.189l-1.844-1.071l-1.903-1.368
		c0,0-1.427-0.297-1.666-0.476c-0.238-0.179-1.606-0.714-1.725-0.952c-0.119-0.238-0.357-1.785-0.357-1.785l-0.179-1.666
		l-0.714-0.892c0,0-1.309,0-1.487,0c-0.179,0-1.546,0.417-1.546,0.417l-0.714,0.535h-1.547l-0.833-0.178l-0.178,0.773l0.059,1.309
		v1.19l-0.178,0.535h-1.606h-1.011l-2.796-0.238l-1.427,0.119c0,0-1.606-0.119-1.903-0.059c-0.298,0.059-2.022,1.189-2.022,1.189
		l-1.547,0.595l-1.606,0.773l-2.617,0.892l-1.249,0.892L100.306,27.421z"/>
	<linearGradient id="SVGID" gradientUnits="userSpaceOnUse" x1="156.397" y1="41.3994" x2="168.6509" y2="41.3994">
		<stop  offset="0" style="stop-color:#2E8B00"/>
		<stop  offset="1" style="stop-color:#00D065"/>
	</linearGradient>
	<path fill="url(#SVGID)" d="M156.874,46.039l0.714-0.476l0.951-0.238l0.595,0.238l0.714,0.357l0.833-0.476l0.714-0.713
		l0.833-0.476l0.832,0.357l0.595-0.357l1.071-0.952l1.309-0.119l1.07-1.546l0.952-1.428l0.237-1.189l0.357-1.189l-1.903-0.119
		l-1.309-0.238h-1.666l-0.832,0.119h-1.666l-1.07-0.357l-1.428-0.476l-1.189,0.238l-0.477,1.309l-0.118,1.071l-0.119,1.309
		c0,0,0.237,1.309,0,1.666c-0.238,0.357-0.357,1.903-0.357,1.903l-0.119,1.666L156.874,46.039z"/>
	<linearGradient id="SVGID_2_" gradientUnits="userSpaceOnUse" x1="160.7993" y1="35.0942" x2="162.9409" y2="35.0942">
		<stop  offset="0" style="stop-color:#2E8B00"/>
		<stop  offset="1" style="stop-color:#00D065"/>
	</linearGradient>
	<polygon fill="url(#SVGID_2_)" points="161.75,36.046 162.941,35.213 162.464,34.143 161.513,34.262 160.799,35.451 	"/>
	<linearGradient id="SVGID_3_" gradientUnits="userSpaceOnUse" x1="157.1108" y1="33.5479" x2="160.6802" y2="33.5479">
		<stop  offset="0" style="stop-color:#2E8B00"/>
		<stop  offset="1" style="stop-color:#00D065"/>
	</linearGradient>
	<path fill="url(#SVGID_3_)" d="M160.68,32.596l-0.595,1.546l-0.119,0.833c0,0-0.714-0.238-1.07-0.238
		c-0.357,0-1.785-0.238-1.785-0.238l0.595-1.071l1.071-1.309L160.68,32.596z"/>
	<linearGradient id="SVGID_4_" gradientUnits="userSpaceOnUse" x1="151.9956" y1="36.4619" x2="154.8511" y2="36.4619">
		<stop  offset="0" style="stop-color:#2E8B00"/>
		<stop  offset="1" style="stop-color:#00D065"/>
	</linearGradient>
	<polygon fill="url(#SVGID_4_)" points="153.542,36.879 152.234,38.306 151.996,36.879 152.353,35.332 153.662,34.618 
		154.851,34.618 154.851,35.332 154.375,36.403 	"/>
	<linearGradient id="SVGID_5_" gradientUnits="userSpaceOnUse" x1="146.8804" y1="41.7559" x2="149.9731" y2="41.7559">
		<stop  offset="0" style="stop-color:#2E8B00"/>
		<stop  offset="1" style="stop-color:#00D065"/>
	</linearGradient>
	<polygon fill="url(#SVGID_5_)" points="149.973,40.566 148.903,41.756 147.951,43.303 146.88,43.897 147.594,41.994 
		148.665,40.091 149.498,39.615 	"/>
	<linearGradient id="SVGID_6_" gradientUnits="userSpaceOnUse" x1="152.9478" y1="40.8047" x2="155.6841" y2="40.8047">
		<stop  offset="0" style="stop-color:#2E8B00"/>
		<stop  offset="1" style="stop-color:#00D065"/>
	</linearGradient>
	<polygon fill="url(#SVGID_6_)" points="154.256,40.209 153.423,40.448 152.948,41.042 153.662,41.28 154.375,41.637 
		155.684,40.923 154.851,39.972 	"/>
	<linearGradient id="SVGID_7_" gradientUnits="userSpaceOnUse" x1="154.7319" y1="37.1167" x2="155.8022" y2="37.1167">
		<stop  offset="0" style="stop-color:#2E8B00"/>
		<stop  offset="1" style="stop-color:#00D065"/>
	</linearGradient>
	<polygon fill="url(#SVGID_7_)" points="154.732,37.831 155.684,37.831 155.802,36.403 154.97,36.76 	"/>
	<linearGradient id="SVGID_8_" gradientUnits="userSpaceOnUse" x1="154.0181" y1="43.7188" x2="155.3267" y2="43.7188">
		<stop  offset="0" style="stop-color:#2E8B00"/>
		<stop  offset="1" style="stop-color:#00D065"/>
	</linearGradient>
	<polygon fill="url(#SVGID_8_)" points="155.327,43.66 155.208,44.611 154.137,44.611 154.018,43.541 154.137,42.827 
		154.851,42.827 	"/>
	<g>
		<path d="M134.214,64.879c0.319-0.054,0.739-0.099,1.271-0.099c0.655,0,1.135,0.152,1.439,0.426
			c0.281,0.244,0.449,0.617,0.449,1.074c0,0.464-0.138,0.83-0.396,1.096c-0.352,0.373-0.922,0.563-1.569,0.563
			c-0.198,0-0.38-0.007-0.532-0.045v2.056h-0.663V64.879z M134.877,67.354c0.145,0.038,0.326,0.053,0.548,0.053
			c0.8,0,1.286-0.389,1.286-1.097c0-0.678-0.479-1.005-1.211-1.005c-0.289,0-0.51,0.023-0.623,0.053V67.354z"/>
		<path d="M138.455,68.336l-0.532,1.614h-0.686l1.743-5.132h0.8l1.751,5.132h-0.708l-0.548-1.614H138.455z M140.138,67.818
			l-0.503-1.477c-0.114-0.335-0.19-0.64-0.267-0.937h-0.016c-0.076,0.304-0.159,0.617-0.259,0.929l-0.502,1.485H140.138z"/>
	</g>
</g>

<script>parent.mapaBotaoAcao(document)</script>
</svg>
