<?xml version="1.0" encoding="utf-8"?>
<!-- Generator: Adobe Illustrator 24.0.1, SVG Export Plug-In . SVG Version: 6.00 Build 0)  -->
<svg version="1.1" id="Layer_1" xmlns="http://www.w3.org/2000/svg" xmlns:xlink="http://www.w3.org/1999/xlink" x="0px" y="0px"
	 viewBox="0 0 271.6 260.8" style="enable-background:new 0 0 271.6 260.8;" xml:space="preserve">
<style type="text/css">
	.st0{fill:#005CA9;}
	.st1{fill:#6CA5DA;}
	.st2{fill:#FFFFFF;}
	.st3{fill:#005CA9;stroke:#FFFFFF;stroke-miterlimit:10;}
</style>
<g class="estado-botao" id="RN">
	<path class="st0" d="M242.6,68.3h1.1l1.5,0.6l1.4,0.7l1.9,0.1h2.3h1.9l1.7,0.2l1.3,0.7l0.8,1.1v0.8l0.7,1.8v1.3l0.2,1.9l-0.4,0.7
		h-2h-2.4l-1.5-0.6l-1.1-0.2l-0.7,0.2l-0.8,0.8l-0.1,1l-0.2,1.1H247l-0.6-0.8l-1.5,0.1h-0.6L244,79l1-1.7v-1.2l-1.8-0.4l-1.7,0.2
		l-1,1l-1.7,1c0,0-0.8,0.2-1.2,0.2s-1.2,0.1-1.2-0.2s1.1-1.8,1.1-1.8l0.8-1.4l1.8-2.7L242.6,68.3z"/>
	<g>
		<path d="M255.9,63.3h3.1c1.4,0,2.1,0.6,2.1,1.7c0,1.2-0.9,1.5-1.1,1.6l0,0c0.4,0.1,1,0.3,1,1.4c0,0.7,0.1,1.4,0.4,1.7h-1.2
			c-0.2-0.3-0.2-0.6-0.2-0.9c0-1.2-0.2-1.7-1.3-1.7H257v2.6h-1.1V63.3L255.9,63.3z M257.1,66.3h1.8c0.7,0,1.1-0.4,1.1-1
			c0-0.8-0.5-1-1.1-1h-1.8V66.3z"/>
		<path d="M262,63.3h1.2l2.9,4.7l0,0v-4.7h1.1v6.4H266l-2.9-4.7l0,0v4.7H262V63.3z"/>
	</g>
</g>
<g class="estado-botao" id="PB">
	<path id="SEASEAPB" class="st0" d="M235.7,79.8l-0.6,1.5l0.2,1.1l0.6,1l-0.2,1.4l-0.2,1.1l0.7,0.4l1.4,0.1l1.9-0.4l1.5-1.1l1.9-1.2
		l0.7-0.1l1.9,0.4l0.2,1.2l-0.5,0.6l-0.6,2v0.8l0.4,0.5l1.1,0.2l0.8-1.1l1.5-1.1h1.1l2.3-0.4l1.9-0.5l1.4-1.3l1-0.7l1.1-0.2h2v-1.2
		c0,0,0.1-1.4-0.2-1.5c-0.4-0.1-0.7-1.3-0.7-1.3l-0.6-0.5l-2.9-0.5H253l-1.7-0.1h-1.4l-0.6,1.2l-1,1.3l-1.4,0.2l-1.1-0.8l-1.2,0.1
		l-0.8,0.5l-0.8-0.7l-0.8-1.2l0.6-1.8l0.8-1.2h-1.1l-1.3,0.7l-0.6,1l-1.1,0.5l-0.7,0.1l-1.7,0.1L235.7,79.8z"/>
	<g>
		<path d="M260.2,77.8h2.8c1.8,0,2.2,1.2,2.2,2s-0.4,2-2.2,2h-1.7v2.5h-1.1L260.2,77.8L260.2,77.8z M261.4,80.9h1.6
			c0.5,0,1.1-0.3,1.1-1.1c0-0.8-0.5-1.1-1.1-1.1h-1.7v2.2H261.4z"/>
		<path d="M266,77.8h3.1c1.2,0,1.9,0.5,1.9,1.6c0,0.6-0.3,1.1-0.9,1.4l0,0c0.8,0.2,1.2,0.8,1.2,1.7c0,1-0.7,1.8-2.4,1.8h-3L266,77.8
			L266,77.8z M267.1,80.5h1.8c0.5,0,0.9-0.3,0.9-0.9s-0.3-0.9-0.9-0.9h-1.8V80.5z M267.1,83.3h2c0.7,0,1.1-0.4,1.1-1s-0.4-1-1.1-1
			h-2V83.3z"/>
	</g>
</g>
<g class="estado-botao" id="PE_1_">
	<polygon id="PE" class="st0" points="219.1,93 220.4,94.1 220.9,95.1 221,95.9 221.6,96.8 221.6,97.3 221.9,97.9 222.8,97.4 
		223.5,96.6 224.2,95.4 225.4,95.4 226.1,94.3 227.2,93.4 228.7,92.4 229.9,92.1 231.1,92.3 232.4,92.8 233.7,93 234.9,94 
		236.5,94.8 237.3,95.9 238.6,95.8 239.9,94.8 240.9,94.2 241.9,94.9 243.2,95.8 244.4,96.1 245.9,96.7 248.1,96.6 250,96.5 
		250.4,95.8 251.2,94.5 252,93.9 253.2,93.5 254.5,93.5 255.9,93.5 257.2,93.5 257.6,92.7 258.1,91.4 258.6,89.8 259.3,87.6 
		259.3,85.9 258.3,85.3 256.9,85.2 256,85.8 255.1,86.5 254.1,87.1 253.1,87.6 251.6,87.8 250.4,87.8 249.3,88.3 248,88.9 
		247.4,89.7 246.6,90.7 245.1,90.8 244.3,90.1 244,88.7 244,87.4 244.2,85.8 244.3,85.2 243.7,84.9 242.6,85.2 241.6,85.9 240.1,87 
		239.1,87.6 237.2,87.4 236.3,87.4 235.3,87.4 233.6,87.4 232.1,87.6 230.8,87.4 229.7,86.1 228.4,85.4 227.3,85.4 225,85.2 
		221.9,85.1 222.2,86 222.3,86.8 222.8,88.2 222.8,88.7 222.2,89.8 221.4,90.8 220.3,91.7 	"/>
	<g>
		<path d="M260.6,87.9h2.8c1.8,0,2.2,1.2,2.2,2s-0.4,2-2.2,2h-1.7v2.5h-1.1L260.6,87.9L260.6,87.9z M261.7,91h1.6
			c0.5,0,1.1-0.3,1.1-1.1c0-0.8-0.5-1.1-1.1-1.1h-1.7V91H261.7z"/>
		<path d="M266.4,87.9h4.6v1h-3.5v1.7h3.2v0.9h-3.2v1.9h3.6v1h-4.7V87.9z"/>
	</g>
</g>
<g class="estado-botao" id="AM">
	<path id="SEAAM" class="st1" d="M1.1,82.3l3,1.9c0,0,14,4.3,17.1,4.3c0.6,0,1.6,0.8,1.6,0.8l1.9,1.3c0,0,17.8,9.7,19.7,9.8
		c1.9,0.2,1.9-0.6,1.9-0.6l1.1-1l1.1-1.1l1.9-0.3l2.2,0.6l2.2-1h1.4l1.1-0.5l0.5-1.3l2.1-0.5l2.7-0.2l0.6-1.4l1-0.6v-1.4l2.1-1.3
		l0.2-1.4l6.3-0.3l0.8,1.6l1.6,1.4l2.1,2.1l1.9-0.2l1.7,0.3h10.5l9.2-0.2l1.6-1.3l0.2-3.2l1.1-2.5l0.3-2.7l-1-2.2l-0.6-1.6
		l13.5-27.3l0.6-2.4l0.6-1.3l-2.5,0.6l-2.1-1.4l-2.1-1.7l-5.2-0.5l-1.6-2.4c0,0-3.2-4.4-3.5-4.4c-0.5,0.5-0.2-1.3-0.2-1.3l-0.1-2.2
		l-0.3-1.8l-1.2-0.1h-1.9h-2.6l-0.7,0.2l-1.1,1.5l-1.6,2.1l-0.7,1.2c0,0-0.3,1.5-0.3,1.6s-0.5,0.6-0.5,0.6l-1,0.4H86l-1.2-0.9
		L84,39.4l-1,0.2c0,0-0.9,0.6-1,0.6s-0.7,1-0.7,1l-0.1,1.6l-0.1,2.4l-0.9,0.2h-1.1c0,0-1-0.6-1.2-0.6c-0.1-0.1-0.7-0.7-0.7-0.7
		s-0.9-0.8-1-0.9s-0.8-1-0.8-1s-0.8-0.8-0.9-0.9S74,40.5,74,40.5v-0.6v-1.4l-0.1-2.8l-0.2-1.1c0-0.1-0.3-1.9-0.3-1.9
		c0-0.1,0-1.8,0-1.8s-0.1-1.5-0.2-1.6c-0.1-0.2-0.7-1.1-0.8-1.2s-0.7-1.3-0.7-1.3L71.1,25c0,0-0.5-1.3-0.6-1.5
		c-0.2-0.3-0.7-1.2-0.7-1.3c0-0.1-0.2-0.5-0.2-0.5h-1.8l-0.3-0.4l-0.6,0.2L66.3,22l-1.4,0.6l-0.3,1.2l-1,1.1l-1,1.1l-1.4,0.2
		L60,26.6l-0.9,0.7L58,28.1l-1.4,1.5L55.3,30l-1.2,0.3l-0.7-0.5V29h-0.9l-0.7,0.1L51.5,30h-1.3h-1.7L48,29.6c0,0-0.4-0.6-0.5-0.6
		s-0.9-0.7-0.9-0.7l-0.7-0.5l-2.6-0.2l-0.1-3.8l-0.7-1.1L42.1,22l-0.4-0.4l-0.9,0.7L40,22.9l-0.5,0.9l-1.2,0.7l-1-1.2L37,22.7
		l-0.6,0.9l-0.6,0.8h-3.1l-2-0.4l-3-0.1c0,0-0.6,0.2-0.7,0.2s-0.9,0.5-0.9,0.5s-0.3,0.6-0.3,0.7s0.2,1.3,0.2,1.3l0.1,0.9
		c0,0,0.2,0.3,0.5,0.4s1.2,0,1.2,0S28.9,28,29,28s0.5,0.3,0.5,0.3s0.4,0.3,0.5,0.4c0,0.1,0.5,0.8,0.5,0.8l0.2,0.9c0,0,0,0.8,0,0.9
		S30.4,32,30.4,32h-0.7l-1.2,0.1l-0.3-0.3l-1.1-0.1L26.2,32L25,32.1v1.1v3.5l0.6,0.6c0,0,0.7,0.4,0.8,0.5c0.1,0.1,0.6,0.4,0.7,0.5
		s0.6,0.3,0.6,0.3l0.1,1.7L27.6,41l0.9,1.1l0.4,1.1l-0.4,4.3v2c0,0-0.5,1.5-0.5,1.8s-0.7,1.9-0.7,1.9v2c0,0-0.4,0.6-0.4,0.8
		s-0.1,2.7-0.1,2.7s-0.4,1.2-0.5,1.4c0,0.2,0,1.7,0,1.7s-0.7,2-0.7,2.1C25.5,64,24.9,65,24.8,65s-1.2,0-1.4,0
		c-0.1,0-1.3-0.4-1.4-0.5s-0.6-0.4-0.6-0.4H20l-1,0.4l-0.4,0.7L17,65.9l-2.2,0.2l-2,0.1l-1.2,0.5l-1.4,0.8l-1,0.7c0,0-1.5,1-1.5,1.1
		S6.4,71,6.3,71.1s-0.5,1.5-0.5,1.5l-0.2,1L5,74.5c0,0-0.5,0.8-0.6,0.9c0,0.1,0.2,1.4,0.2,1.4l0.2,0.9l-0.6,1.6l-1.1,1
		c0,0-1.2,0.7-1.2,0.8S1.1,82.3,1.1,82.3z"/>
	<g>
		<path d="M58.5,62.6h1.2l2.5,6.4H61l-0.6-1.7h-2.6L57.2,69H56L58.5,62.6z M58.1,66.5h2l-1-2.8l0,0L58.1,66.5z"/>
		<path d="M62.6,62.6h1.6l1.8,5l0,0l1.7-5h1.6V69h-1.1v-5l0,0l-1.8,5h-0.9l-1.8-5l0,0v5h-1.1C62.6,69,62.6,62.6,62.6,62.6z"/>
	</g>
</g>
<g class="estado-botao" id="RR">
	<path id="SEARR" class="st0" d="M61.3,6.5c0.2,0,2.5,0,2.5,0l1.1,1.1L66,8.4l2.3,0.2l1.5,0.2l0.6,1.2l1.3,0.1h1.5l0.6-0.9L73.9,8
		L75,7.4L76.5,7h2.3l1-0.3l1.4-1L82.6,5l1.1-0.5l1.7-0.2l1.2-1.4l1.2-1.6L88,0l2.6,0.1l0.6,1.2l-0.6,1l-0.5,1l0.1,1.2l1.2,0.2
		l1.2,0.5l0.8,1.4l0.5,1.1l-0.3,1.1l-0.9,0.9l-0.2,1.1l-0.6,2l0.1,1l-0.4,0.8v2.3l0.1,1.2l0.7,0.9l0.6,1.2l0.1,1.8l0.9,0.5l1.4,1.2
		l0.8,1.1L98,26l0.5,0.7l0.1,3.5v2l-0.8,0.4h-2.6l-2.6-0.1c0,0-0.5,0.6-0.8,0.7c-0.2,0.1-1.5,1.6-1.5,1.6L89.7,36v0.7L89.1,37
		l-0.5,0.6L88,38.4l-0.1,1.1L87.5,40l-0.9,0.2l-0.5-0.5L85.6,39l-1.2-0.8l-1-0.4L82.3,38l-0.8,0.8l-0.8,0.6l-0.9,1.1l-0.2,3
		l-0.4,0.4l-0.9-0.6l-1.4-1.7l-0.8-1l-0.5-0.5l0.7-1V38L76,37.4l-0.5-0.9l-0.2-1.1l-0.2-1.5L75,32.7l-0.1-2v-2.2l-0.6-1.1l-0.7-0.8
		l-0.6-1l-0.7-1.4L71.8,23l-0.7-1.5l-0.2-0.7L70,20h-0.5l0.1-2.3c0,0-1,0-1.1-0.1c-0.2-0.1-1.6-0.1-1.6-0.1L66,17.7l-1.2-0.2
		l-0.4-0.2h-0.5c0,0-0.2-4.8-0.2-5s0.7-1,0.7-1l0.4-0.7V8.7l-1.4-1l-1-0.3l-0.9-0.3l-0.4-0.5L61.3,6.5z"/>
	<g>
		<path class="st2" d="M78.5,20.1h3.1c1.4,0,2.1,0.6,2.1,1.7c0,1.2-0.9,1.5-1.1,1.6l0,0c0.4,0.1,1,0.3,1,1.4c0,0.7,0.1,1.4,0.4,1.7
			h-1.2c-0.2-0.3-0.2-0.6-0.2-0.9c0-1.2-0.2-1.7-1.3-1.7h-1.7v2.6h-1.1C78.5,26.5,78.5,20.1,78.5,20.1z M79.6,23.1h1.8
			c0.7,0,1.1-0.4,1.1-1c0-0.8-0.5-1-1.1-1h-1.8V23.1z"/>
		<path class="st2" d="M84.6,20.1h3.1c1.4,0,2.1,0.6,2.1,1.7c0,1.2-0.9,1.5-1.1,1.6l0,0c0.4,0.1,1,0.3,1,1.4c0,0.7,0.1,1.4,0.4,1.7
			h-1.2c-0.2-0.3-0.2-0.6-0.2-0.9c0-1.2-0.2-1.7-1.3-1.7h-1.7v2.6h-1.1C84.6,26.5,84.6,20.1,84.6,20.1z M85.7,23.1h1.8
			c0.7,0,1.1-0.4,1.1-1c0-0.8-0.5-1-1.1-1h-1.8V23.1z"/>
	</g>
</g>
<g class="estado-botao" id="AP">
	<path id="SEAAP" class="st0" d="M128.3,20.1l1.8,0.6l1.2,0.2l1.1-0.2l0.5-0.5l1.5-0.1h1.2l1.1,0.5l1.1,0.1l1.5-0.1l1.5-1
		c0,0,0.7-1,0.8-1.3s1.3-3,1.3-3l1.7-2.9l1.5-2.4l1.6-2l1.2-1.1l1.1,0.8l0.8,1c0,0,0.1,1.2,0.1,1.5s0.1,3,0.1,3l0.3,0.9l0.7,1
		c0,0,0.5,0.5,0.5,0.8s0.2,1.7,0.2,1.9c-0.1,0.2,0.4,2.1,0.4,2.1l0.5,1.1l1.1,1.2l1.2,1l1.4,0.2l0.7,0.7l0.7,1.2l-0.2,1.4
		c0,0-0.6,0.2-0.8,0.5s-1.5,1.6-2.2,2.2s-1.8,2.3-1.8,2.3l-1.7,1.4c0,0-1.2,0.8-1.7,1s-1.2,0.9-1.2,1.1c0,0.2-0.8,2-0.8,2l-0.9,1.2
		l-1.1,1.4l-0.4,1.7c0,0-0.3,0.4-0.7,0.4s-1.3,0-1.3,0s-0.5-0.8-0.7-1s-0.8-1.2-1-1.8c-0.2-0.5-1.1-2-1.1-2s-0.6-1-0.9-1.4
		c-0.3-0.4-0.9-1.6-1.2-1.9s-0.8-1-0.8-1s-0.1-1.3-0.2-1.6s-0.6-2.1-1-2.4c-0.4-0.4-1.1-2.3-1.3-2.5s-0.5-1.1-1.1-1.3
		c-0.5-0.2-1.3-0.5-1.8-0.8s-1.5-0.7-1.8-0.7c-0.3-0.1-0.9-0.8-1.5-0.9c-0.7-0.1-1-0.4-1.3-0.7c-0.3-0.2-1.1-1.1-1.1-1.5
		S128.3,20.1,128.3,20.1z"/>
	<g>
		<path class="st2" d="M143.9,22.7h1.2l2.5,6.4h-1.2l-0.6-1.7h-2.6l-0.6,1.7h-1.2L143.9,22.7z M143.5,26.6h2l-1-2.8l0,0L143.5,26.6z
			"/>
		<path class="st2" d="M148,22.7h2.8c1.8,0,2.2,1.2,2.2,2s-0.4,2-2.2,2h-1.7v2.5H148V22.7z M149.1,25.7h1.6c0.5,0,1.1-0.3,1.1-1.1
			c0-0.8-0.5-1.1-1.1-1.1H149L149.1,25.7L149.1,25.7z"/>
	</g>
</g>
<g class="estado-botao" id="RO">
	<path id="SEARO" class="st0" d="M86.3,125.5c0,0-2.3-0.4-2.6-0.4s-2.4,0.1-2.9,0c-0.4-0.1-2-0.2-2-0.2l-1.4-1l-0.7-1.1l-0.9-0.5
		l-2.2-0.4l-1.4-0.3l-0.8-0.8l-0.8-1l-0.5-0.9l-0.7-0.4l-1.1,0.5h-1l-0.7-0.6l-0.9-0.5l-1-0.1l-2.1,0.2l-1.4-0.7l-1.2-1.4l-1.7-1.5
		l-1-1l-0.9-1.2l-0.7-2l0.1-2.7l-0.4-1.2l-0.3-1.5l0.8-0.7L56,101l-0.5-1.1h-1.4c0,0-2.4,0.1-2.7,0.1s-2.4,0.5-2.4,0.5l-1.4,0.4
		l-0.3-0.4l0.5-0.7l0.7-0.8c0,0,1-0.2,1.1-0.2c0.2,0,1.5,0,1.5,0l1.8-0.1l1.9-0.4H57l0.9-0.6l0.8-1.1l0.7-0.8h3.1c0,0,0.9-0.1,1-0.4
		s0.2-1.4,0.2-1.4l1.1-0.7l0.2-1.4l0.5-0.7l1-0.1l0.8-1.4l0.8-0.7l1.1,0.1H71l1.1,0.9l1.7,1.1l1.1,1.2l1.1,1.2l0.9,0.6l0.8,0.1
		l0.7-0.2h0.9l0.6,1.6l-0.2,0.9l0.2,1.2l0.2,1.1l-0.1,2l-0.4,1.4l0.2,2l0.2,1v1l-0.1,1.5l0.3,0.4l0.2,0.8l2.1-0.2l2.9,0.1h2.8l0.3,1
		L90,110l0.9,0.4l-0.2,0.7l-0.9,1l-0.1,1.1l0.6,1.5l0.9,1.5l0.1,2.9l-0.7,0.8l-1.4,2.1L86.3,125.5z"/>
	<g>
		<path class="st2" d="M65,105.4h3.1c1.4,0,2.1,0.6,2.1,1.7c0,1.2-0.9,1.5-1.1,1.6l0,0c0.4,0.1,1,0.3,1,1.4c0,0.7,0.1,1.4,0.4,1.7
			h-1.2c-0.2-0.3-0.2-0.6-0.2-0.9c0-1.2-0.2-1.7-1.3-1.7h-1.7v2.6H65V105.4z M66.2,108.3H68c0.7,0,1.1-0.4,1.1-1c0-0.8-0.5-1-1.1-1
			h-1.8V108.3z"/>
		<path class="st2" d="M77,108.6c0,1.8-1.2,3.4-3.1,3.4s-3.1-1.5-3.1-3.4s1.2-3.4,3.1-3.4S77,106.8,77,108.6z M71.9,108.6
			c0,1.2,0.6,2.4,2,2.4s2-1.2,2-2.4s-0.6-2.4-2-2.4S71.9,107.4,71.9,108.6z"/>
	</g>
</g>
<g class="estado-botao" id="MT">
	<path id="SEAMT" class="st0" d="M82,94.5l20.4,0.3l0.6-1.3l0.7-2l0.2-2v-1.7l0.3-1.3l0.3-1l0.6,0.1l0.3,0.4l0.2,1l0.7,1.3l0.6,2.1
		l0.4,3.3l1,1l5.3,4.4l2.1,0.3l8.6,0.3l18.9,0.8l13.7,1l-0.1,0.7l-0.6,1.8l-1.9,5.3c0,0-0.2-0.2-0.2,2.3c0.1,2.5,0.1,7.6,0.1,7.6
		l0.5,2.1c0,0,0.1,2.3-0.9,3.6c-1,1.3-1.4,3.6-1.4,3.6l-0.7,4.4l-0.8,1.3l-1.7,0.9l-1.3,1.3l-1.1,1.6l-0.5,1.4l-1,0.6l-1.7,1.1
		l-1.3,1.2l-1.6,2.6l-1.4,2.1l-1.2,1.6l-1,1.2l-0.2,1.1l-0.1,1.6l0.6,0.9l-0.1,0.6v1.3h-2.5l-0.2-0.9l0.2-1.6l-0.2-0.9l-0.6-1.3
		l-1.2-0.1l-1.3,0.9l-0.7,0.6c0,0-1.1,0-1.6,0s-1.6-0.5-1.6-0.5l-1,0.2l-2.9,0.2l-1.9-0.8c0,0-0.3-0.3-1.3-1s-1.8-0.6-2.1-0.6
		s-2-0.2-2.8,0.2c-0.8,0.3-0.4,0.4-1.2,0.4c-0.8,0-1.7,0.6-2,0.8s-1,1.4-1,1.4l-0.5,0.9l-1.4-0.1h-0.6l-0.7-0.7l-1.7-1l-1.3-0.3
		l-1.5-1l-0.6-0.8l-0.4-2.7v-1l0.6-0.5l0.2-1V143l-12.2-0.1l-0.2-2.3l-0.5-2.3l-0.4-0.6l-0.7-0.6l-0.4-1h1.3l0.2-1.7l-0.3-2.4
		l-0.6-1l-0.6-4.2l-0.8-0.6l1-0.9l3.6-5.2l0.1-4.9l-0.7-1l-0.4-1.3l0.2-1c0,0,0.5-1.5,0.2-1.8s-0.5-0.7-0.7-1
		c-0.2-0.2-2.1-0.7-2.1-0.7s-1.9-0.7-2.1-0.7s-5.4,0.1-5.4,0.1l0.2-3.2l-0.7-1.3l0.4-1.7L82,94.5z"/>
	<g>
		<path class="st2" d="M117.6,120.4h1.6l1.8,5l0,0l1.7-5h1.6v6.4h-1.1v-5l0,0l-1.8,5h-0.9l-1.8-5l0,0v5h-1.1
			C117.6,126.8,117.6,120.4,117.6,120.4z"/>
		<path class="st2" d="M124.7,120.4h5.2v1h-2v5.5h-1.1v-5.5h-2L124.7,120.4L124.7,120.4z"/>
	</g>
</g>
<g class="estado-botao" id="TO">
	<path id="SEATO" class="st0" d="M169.1,70.9l1.8,0.2l1.4,0.6l1.8,0.7l0.6,1.2l0.6,2.4l-0.2,2.6L175,81l-0.5,1.2l-0.5,1.2l0.1,1.3
		l1.4,1l0.8,1.2l1.1,1.3l1.8,0.8h1.8l0.5,1.3l-0.6,1.1l-1.2,0.6l-0.8,1.1l-0.2,1.3l-0.2,1.3l0.6,1l1.1,1.4l0.7,1.1l0.2,1.3l0.4,1.1
		l0.8,1.3l0.7,0.6l1.1,0.7l1.3,0.2l0.5,0.7l-0.8,0.6l-1.1,1.2l-0.7,1.1l-0.8,1.4l-0.1,1.8v1.1l1.4,1c0,0,0.1,0.2,0,0.7s0,2.5,0,2.5
		l-0.6,0.8v1.4l0.5,0.8l-0.1,1.4l-1,0.1l-2.9,1.2l-2,0.5l-2.4,0.4l-1.3,0.2l-0.2,0.7l-1.8-1l-1.2-0.5l-1.1-0.5l-1.2-0.7l-1-1h-1
		l-1.9,0.1l-1.3,1l-0.6,1.2l-1.4-0.5l-1.2-0.5l-0.8-1l-1.1-1.9c0,0,0.2-1-0.2-1s-1.8,1-1.8,1l-0.6-2.1v-3.9l0.5-4.3l1.2-3.4l1.1-2
		l0.5-2.1l0.2-2.5l0.7-1.4l1.9-2l1-1l1-1.4l0.7-1.5l0.5-2v-1.4l-0.5-1.7l0.1-1.8l0.5-2l1.8-1l1.7-1.4l1.2-1.3l0.7-1.8l0.5-2v-1.8
		l-1.1-1.3L169.1,70.9z"/>
	<g>
		<path class="st2" d="M163.9,102.9h5.2v1h-2v5.5H166v-5.5h-2L163.9,102.9L163.9,102.9z"/>
		<path class="st2" d="M175.4,106.1c0,1.8-1.2,3.4-3.1,3.4s-3.1-1.5-3.1-3.4s1.2-3.4,3.1-3.4S175.4,104.2,175.4,106.1z M170.4,106.1
			c0,1.2,0.6,2.4,2,2.4s2-1.2,2-2.4s-0.6-2.4-2-2.4C171,103.6,170.4,104.8,170.4,106.1z"/>
	</g>
</g>
<g class="estado-botao" id="MS">
	<path id="SEAMS" class="st0" d="M106.9,153.1l0.4,1.8c0,0,0.9,1.1,1,1.4c0.1,0.3,0.1,1.6,0.1,1.6l-1.1,1.3l-0.2,2.1
		c0,0,0.4,1.6,0.3,1.8s-1.3,1.8-1.3,1.8l-1.1,1.3l-0.2,1.2l1,1.2l-0.7,1.4c0,0-0.4,0.8-0.5,1.1s0.4,1,0.4,1.4s0.6,1.7,0.6,2
		c0,0.2,0.4,1.3,0.4,1.3v2.1l0.2,2.9v1.7l2.4,0.2l0.6,0.2h3l3.4-0.1l2.2,0.5l1.5,0.5l0.9,0.9l0.7,1.4l0.3,1.9v1.7l0.6,0.5l0.6,1
		l0.2,1.4l0.3,1.9l0.6,0.7l1.9-0.2l1-0.6l1.1-0.6l1.4,0.1l0.6,0.7l0.9,0.2l0.6-0.8l0.2-1.8l1.4-1.1l0.2-1.1l0.9-1.1l1-1.2l3.2-1.7
		l1.2-1.2l2-1.8l3.2-2.5c0,0,0-1,0.1-1.3c0.1-0.2,0.9-1.2,0.9-1.2l0.2-1.4l1.1-1.7l1.7-2.3l1.3-1.7l1.3-1l0.6-0.4v-4.7l-1.8-0.6
		l-2.5-0.8c0,0-2.6-1.3-3-1.7c-0.4-0.3-1.5-0.8-1.8-1s-1.6-0.3-2-0.3s-1.3,0.2-1.7-0.2c-0.4-0.3,0-2.5,0-2.5s-1.4-0.4-1.6-0.7
		c-0.2-0.3,0.2-0.7-0.3-1c-0.5-0.2-1.7-0.2-2.2-0.2s-1.9,0-1.9,0l-0.5-1.5l0.6-0.7l0.4-1l0.3-1.2l-0.6,0.2l-0.4,0.3l-1.3,0.6h-1.5
		c0,0-1.5,0.1-1.7,0.1s-1.7,0.2-1.7,0.2s-1.3,0-1.8,0s-1.2,0.1-1.7-0.2s-1.4-0.6-1.7-0.7s-1.8-1.1-1.8-1.1s-0.6-0.3-1-0.3
		s-1.7,0.2-1.9,0.2s-2,0.6-2,0.6l-1,0.8l-1,0.8l-1,1l-0.8,0.1c0,0-1.2-0.2-1.5-0.2S106.9,153.1,106.9,153.1z"/>
	<g>
		<path class="st2" d="M121.6,166.7h1.6l1.8,5l0,0l1.7-5h1.6v6.4h-1.1v-5l0,0l-1.8,5h-0.9l-1.8-5l0,0v5h-1.1V166.7z"/>
		<path class="st2" d="M130.1,171c0,1,0.7,1.4,1.6,1.4c1,0,1.4-0.5,1.4-1s-0.3-0.7-0.5-0.8c-0.5-0.2-1-0.3-1.9-0.5
			c-1.1-0.3-1.4-1-1.4-1.6c0-1.3,1.2-1.9,2.3-1.9c1.3,0,2.5,0.7,2.5,2.1H133c-0.1-0.8-0.6-1.1-1.4-1.1c-0.5,0-1.2,0.2-1.2,0.8
			c0,0.5,0.3,0.7,0.8,0.8c0.1,0,1.5,0.4,1.9,0.5c0.8,0.3,1.3,1,1.3,1.6c0,1.4-1.3,2-2.6,2c-1.5,0-2.7-0.7-2.7-2.3H130.1z"/>
	</g>
</g>
<g class="estado-botao" id="PR_1_">
	<polygon id="PR" class="st0" points="131.1,196.1 131.1,199.1 130.9,201.5 130.9,204.1 129.9,205.3 129.4,205.6 130,206 130.7,206 
		131.3,205.5 131.7,205.7 132.7,207.2 133.2,208.3 133.6,209.9 135.1,210.6 136.9,210.9 138.6,211 140.5,211.1 142.4,211.4 
		143.2,211.9 144.8,212.4 147.4,212.9 149.3,213 149.9,212.5 150,211.6 150.4,210.6 152.4,210.5 153.4,210.4 154.3,209.5 
		154.9,208.9 156.6,208.9 158.8,208.9 160.5,208.9 160.9,209.8 161.7,210.2 162.5,210.1 163.5,209.3 164.6,209.1 165.7,209.1 
		166.9,209.1 167.7,209.5 168.3,209.5 168.8,208.7 169.1,207.6 169.9,206.8 170.1,206 170.7,205.6 170.6,204.5 169.9,203.9 
		168.8,203.9 167.9,203.8 167.5,203.5 167.6,202.3 167.6,201.4 163.1,201.4 162.7,199.6 162.6,197.9 161.9,196.7 160.8,195.8 
		160.8,194.8 160.5,192.6 160.4,190.8 159.3,189.8 158,189.6 153.1,189.5 151.9,188.8 151.1,188.3 150.1,188 149.3,187.9 
		147.1,187.7 144.6,187.6 143.7,187.6 142,187.6 140.6,187.6 139.1,187.6 138.3,187.6 137,188.3 135.6,189.4 134.3,190.7 
		133.8,191.8 132.2,193.5 131.7,194.6 	"/>
	<g>
		<path class="st2" d="M144.2,196.8h2.8c1.8,0,2.2,1.2,2.2,2s-0.4,2-2.2,2h-1.7v2.5h-1.1V196.8z M145.3,199.8h1.6
			c0.5,0,1.1-0.3,1.1-1.1s-0.5-1.1-1.1-1.1h-1.7L145.3,199.8L145.3,199.8z"/>
		<path class="st2" d="M150,196.8h3.1c1.4,0,2.1,0.6,2.1,1.7c0,1.2-0.9,1.5-1.1,1.6l0,0c0.4,0.1,1,0.3,1,1.4c0,0.7,0.1,1.4,0.4,1.7
			h-1.2c-0.2-0.3-0.2-0.6-0.2-0.9c0-1.2-0.2-1.7-1.3-1.7h-1.7v2.6H150V196.8z M151.1,199.7h1.8c0.7,0,1.1-0.4,1.1-1
			c0-0.8-0.5-1-1.1-1h-1.8V199.7z"/>
	</g>
</g>
<g class="estado-botao" id="SP">
	<path id="SEASP" class="st0" d="M140.3,185.9l2.3,0.2l2.4,0.2h1.9l1.8,0.2l1.4,0.3l1.5,1l1.1,0.3h2.2h1.7h2.1l1.1,0.2l0.5,0.7
		l0.7,0.7l0.6,0.6l0.3,0.9v1.3v1l0.1,1l0.3,0.8l0.4,0.2l0.2,0.8l0.6,0.7l0.2,0.9l-0.1,1.3l0.1,0.7l1.7,0.1h2.2l0.7,0.2l0.4,0.8
		l0.1,1.1l0.2,0.5l1.1,0.1l1.1,0.4l0.2,0.4l0.8-0.2l0.8-1.3l1.7-1c0,0,0.8-0.6,1-0.9c0.2-0.2,2.5-1.6,2.5-1.6l1.5-1.3l0.9-0.7
		l1.6-0.6l1.1-0.4l0.9-0.2l1-1l4-0.1l0.6-1.1l1.8-1.1l1-0.4l1.6-0.2l1-0.2l-0.1-0.7l0.1-0.7l1-1v-1.4H195l-1.2-0.8h-1.4l-1.3,0.6
		l-1.3,0.5l-1.1,0.6l-1.3,0.5c0,0,0,0.6-0.2,0.7c-0.2,0.1-2.3,0.1-2.3,0.1l-1.8,0.1l-0.9-0.4l-0.7-1.4l-0.3-1c0,0-0.4-1-0.5-1.3
		c-0.1-0.2-0.1-1.8-0.1-1.8l-0.1-1.7l0.1-1.1l0.2-1.1l-1.2-0.3c0,0-1.2,0-1.4-0.5s-1-1.4-1-1.7c0-0.2-0.4-1.2-0.4-1.6
		s-0.1-1.3-0.1-1.8s-0.1-0.9-0.1-1.1s-0.6-1.6-0.6-1.6l-0.9-0.6L174,170l-1,0.2l-2.1,0.4h-2.5l-1,0.1l-0.5,1l-0.3,0.8l-1.2-0.6
		l-1.4-0.6l-0.8-1.2c0,0-0.5-0.7-1-0.8c-0.6-0.1-1.2-0.1-2-0.1s-3,0-3,0l-1.5-0.5l-1-0.1l-1,0.5l-1.3,0.7l-1,1.3l-1.8,1.4l-1.4,1.7
		l-0.4,1.2l-1,1.5l-0.2,1.3l-0.7,1.1l-0.1,1l-0.7,1.2l-1.4,1l-1.5,1.3L140.3,185.9z"/>
	<g>
		<path class="st2" d="M164.4,186.9c0,1,0.7,1.4,1.6,1.4c1,0,1.4-0.5,1.4-1s-0.3-0.7-0.5-0.8c-0.5-0.2-1-0.3-1.9-0.5
			c-1.1-0.3-1.4-1-1.4-1.6c0-1.3,1.2-1.9,2.3-1.9c1.3,0,2.5,0.7,2.5,2.1h-1.1c-0.1-0.8-0.6-1.1-1.4-1.1c-0.5,0-1.2,0.2-1.2,0.8
			c0,0.5,0.3,0.7,0.8,0.8c0.1,0,1.5,0.4,1.9,0.5c0.8,0.3,1.3,1,1.3,1.6c0,1.4-1.3,2-2.6,2c-1.5,0-2.7-0.7-2.7-2.3H164.4z"/>
		<path class="st2" d="M169.3,182.6h2.8c1.8,0,2.2,1.2,2.2,2s-0.4,2-2.2,2h-1.7v2.5h-1.1V182.6z M170.4,185.6h1.6
			c0.5,0,1.1-0.3,1.1-1.1s-0.5-1.1-1.1-1.1h-1.7L170.4,185.6L170.4,185.6z"/>
	</g>
</g>
<g class="estado-botao" id="RF">
	<path id="SEARJ" class="st0" d="M195.6,185.7l2.1-1.3l1.3-0.2l2.4-0.2l1.6-0.4h0.9h1.2l1.6-0.5l1.3-0.7l0.7-0.3l0.9-0.4l0.6-0.6
		l0.9-1l0.3-1.4l0.3-1l0.1-1l1.1-0.7l0.5,0.3l0.4,0.9c0,0,0.6,0.3,0.9,0.5c0.2,0.2,1.3,0.3,1.3,0.3h1.7h0.7l0.1,2.5l0.4,0.7
		l-0.1,0.7l-0.7,0.5l-1.3,0.7l-0.6,0.3l-1.1,0.3l-1,0.8l-0.6,1l-0.7,1.1l-0.4,0.6v0.9l-1.5,0.2c0,0-2.1,0-2.4,0s-1.9,0-1.9,0
		l-0.7-0.6v-0.8h-1.1L204,187v1.3l-0.6,0.6c0,0-1.9-0.1-2.1-0.1c-0.2,0-1.1-0.3-1.1-0.3l-1.2-0.3l-0.6,0.7l-0.6,0.2l-0.4-0.7
		l0.5-1.1l-0.3-0.9l-0.8-0.3L195.6,185.7z"/>
	<g>
		<path d="M213.2,187h3.1c1.4,0,2.1,0.6,2.1,1.7c0,1.2-0.9,1.5-1.1,1.6l0,0c0.4,0.1,1,0.3,1,1.4c0,0.7,0.1,1.4,0.4,1.7h-1.2
			c-0.2-0.3-0.2-0.6-0.2-0.9c0-1.2-0.2-1.7-1.3-1.7h-1.7v2.6h-1.1V187z M214.4,190h1.8c0.7,0,1.1-0.4,1.1-1c0-0.8-0.5-1-1.1-1h-1.8
			V190z"/>
		<path d="M222.8,191.4c0,1.1-0.3,2.2-2.1,2.2c-1.4,0-1.9-0.9-1.9-2.1v-0.3h1.1v0.3c0,0.7,0.2,1.2,0.9,1.2s0.9-0.4,0.9-1.2V187h1.1
			V191.4z"/>
	</g>
</g>
<g class="estado-botao" id="MG">
	<path id="SEAMG" class="st0" d="M152.4,167.7l0.1,0.7l2.1-0.1h2l2.1,0.1l2.9,0.1l1.4,0.7l0.7,0.7l0.6,0.7h1.1l0.4-0.5
		c0,0,0.3-0.4,0.7-0.4s1.5,0.1,1.9,0s0.9-0.4,1.1-0.4c0.2,0,1.8-0.2,1.8-0.2s1.3-0.2,1.5-0.2s1.6,0,1.6,0l1,0.4l0.6,0.6l0.6,0.7
		l0.4,1.2l0.4,1.3v1.3l0.3,1.1l0.2,0.6l0.5,0.8l0.7,0.8l0.8,0.5l0.7,0.2l0.9,0.4l0.3,0.8l-0.1,1l-0.1,1l-0.4,0.8v1.2l0.1,1.1l0.4,1
		l0.3,0.5l0.5,0.8l0.1,0.8l0.1,0.6h1l1.5-0.1l0.3-0.8l0.7-0.8l1-0.4l0.4,0.4c0,0,0.8,0.1,1-0.1c0.2-0.1,0.7-0.4,0.7-0.4l1.3-0.4
		l1-0.5l0.8-0.4l1.5-0.4l1.3-0.3l0.9-0.4l1-0.3l1.4-0.3l1.3-0.2l0.9-0.2l1-0.1h1.8l1.2-0.1l1.3-0.5c0,0,1.4-0.6,1.4-0.8s1.3-1,1.3-1
		l0.7-1l0.6-1.5l0.5-1.4l0.5-0.9l0.6-1.1l0.7-0.8l0.4-1.2l0.4-1.4l0.8-1l1.8-0.1l0.5-0.8l0.6-1.4l0.8-1c0,0,0.1-0.8,0.1-1.1
		s0.4-2,0.4-2l-0.2-1l-0.4-0.5l0.2-1.2l0.6-0.4l-0.1-1.1l-0.7-0.5c0,0,0.1-0.8,0.1-1.1c0-0.2,0.5-1.2,0.5-1.2l0.3-0.5
		c0,0,0.1-0.8,0.5-1.1c0.4-0.2,0.8-0.4,0.8-0.4l0.5-0.1l0.5,0.1h1.4h1l0.1-0.5l-1.3-1.2c0,0-0.8-1.1-0.8-1.3c-0.1-0.2,0.1-2,0.1-2
		l0.3-1.8l0.7-0.4h1l0.1-1l0.5-1.1l0.7-0.8l0.6-0.7l0.1-1.4l-1.5-0.7l-1.1-0.5l-1.2-0.5c0,0-0.8,0-1,0s-1.3,0-1.3,0h-0.8l-0.9,0.4
		h-0.8l-0.2-0.8l-0.2-1.2l-1-0.8l-0.6-0.8l-0.7-0.3c0,0-0.8-0.1-1.1-0.1c-0.2,0-1.3,0-1.3,0l-0.6-0.1l-1.1-0.4l-2.1-1.1l-1.4-1.1
		l-1-0.8c0,0-0.7-0.1-1-0.1s-1.1,0.1-1.1,0.1l-0.1,0.6l-0.8,0.1l-1.4-0.1l-1-1.1l-0.3-0.7l-0.3-0.7l-0.8-0.5l-1.1-0.2l-1.1,0.1
		l-2.1,1.5l-3.6,2.3l-3.3,1.6l-1.5,0.5l-1,0.4l-0.1-1.6c0,0-0.7-0.8-0.9-0.8s-1.1,0-1.1,0l-0.7,0.9l-1,0.4l-0.6,0.2l0.1,1.7l0.4,1.2
		l-0.1,1.4l-0.2,1l-1.1,0.6l-1-0.1l-1,0.5l-0.1,1.1l-0.1,1.8l0.6,0.8l0.1,1l0.1,1.1l-0.1,1l-0.9,0.7l-0.4,0.8l0.2,1l0.5,0.2l0.2,1
		l-0.2,1.4l0.2,1.1c0,0-0.4,0.4-0.5,0.7c-0.1,0.4-1.1,1.3-1.1,1.3l-1.4,0.5l-1.1,1.1l-0.7,0.7l-0.8-0.9c0,0-1-0.7-1.2-0.7
		c-0.3,0-1.2,0-1.2,0h-1.8l-1.6-0.1l-1,0.2l-0.7,0.8l-1,0.4l-1.4,0.1l-1.2,0.2l-1.6,0.2l-1.2,0.1c0,0-0.7,0.1-0.9,0.2
		c-0.2,0.2-0.9,0.4-1.1,1c-0.2,0.6-1.7,2.4-1.7,2.4s-1.1,1.4-1.3,1.7C152.4,166.7,152.4,167.7,152.4,167.7z"/>
	<g>
		<path class="st2" d="M189,156.9h1.6l1.8,5l0,0l1.7-5h1.6v6.4h-1.1v-5l0,0l-1.8,5h-0.9l-1.8-5l0,0v5H189V156.9z"/>
		<path class="st2" d="M202.4,163.4h-0.7l-0.2-0.8c-0.6,0.7-1.2,0.9-1.9,0.9c-1.9,0-3.1-1.5-3.1-3.4c0-1.8,1.2-3.4,3.1-3.4
			c1.4,0,2.6,0.7,2.8,2.2h-1.1c-0.1-0.8-0.8-1.3-1.7-1.3c-1.4,0-2,1.2-2,2.4s0.6,2.4,2,2.4c1.2,0,1.8-0.7,1.8-1.8h-1.7v-0.9h2.7
			L202.4,163.4L202.4,163.4z"/>
	</g>
</g>
<g class="estado-botao" id="BA">
	<path id="SEABA" class="st0" d="M183.6,111.6l0.1-1.9l0.8-1.8l1.3-0.7l0.8-0.8l1.1-1.2l1.1,0.2l0.7,1.1l0.8,1l1.1,0.4l1.4,0.7
		l1-0.1l1.4-0.8l1.1-0.5h1.9l0.7-0.8l1.7-1.4l1.1-1.8l0.4-1v-1.3l-0.2-0.5l-0.1-1.3l0.6-0.8h1.2l0.7,0.5c0,0,1.2-0.1,1.7,0
		s0.8,0.7,0.8,0.7h1.7l1.3-0.4l1.7-0.7l2-0.5l1.5-0.6l1-1.5l1.1-0.7l1.5-0.7l1,0.5l0.2,0.7l0.2,1.1l0.2,1.7l1,0.8l1.2,0.2l2.1-1.4
		l1.3-1.3l1.3-0.4l1-1.4l0.8-1l1-0.4h0.8l0.8,0.4l1.2,0.5l1,0.4l1.5,1.1l0.8,0.7l1,0.7l1,0.7l0.5,1.7l-0.1,1.1l0.2,0.8l1.1,0.6v0.6
		l-0.1,3.7l-1,0.5l-1,0.5v1.3l0.2,1l0.6,1.2l0.8,1.3l1.3,1.2l1.2,0.6l-0.6,1.8l-1.8,2.1l-1.5,1.8l-1.3,1.5l-0.1-0.7l-1.1-0.7
		l-1.3-0.1l-1.2,0.4c0,0-0.5,0.7-0.5,1.1s0.1,1.1,0.1,1.1v1.4l-0.6,1.2l-0.8,1.5l0.2,2.3l0.2,1.2l0.4,1l-0.1,1.1l-0.2,0.7l0.1,3.2
		l0.2,2.5l-0.1,1.4l0.5,1v1.2l-0.2,2.1l-0.6,1.3l-0.2,1.9l-0.5,1.7l-0.6,1.1v2l0.5,0.4v1l-1.7,1.5l-1.5,1.9l-0.8,0.2l-1.2-0.7
		l-0.6-1.2l-0.2-1.2l-1-0.7l-0.6-1.1l-0.2-1.2l0.1-1l1.1-1.2l0.8-1.5l1.2-1.2l0.7-1.5v-1.8l-1.9-1.4l-1.8-0.7l-1.5-0.6h-1.7H218
		l-0.8-0.5l-0.4-1l-1.3-1.3l-1.1-0.6c0,0-1.3-0.2-1.8-0.2s-1.3-0.4-1.3-0.4l-1.8-0.6l-1.4-1.2l-1.4-0.7l-0.8-0.4l-1.8-0.1l-1.3,0.2
		l-1,0.4l-0.5-1l-0.4-1.2l-0.7-1l-2-0.4l-1.1,0.1l-1.8,0.5l-1.8,1.3l-2.1,1.1l-1.8,1.2l-1.7,0.8l-1.2,1l0.1-1.7c0,0,0.2-1.8-0.1-2.1
		c-0.4-0.4-0.8-1.8-0.8-1.8l-0.8-1.3l-0.2-2.4l0.2-1.1l0.2-2v-2.6l-0.5-1.4l-0.4-2.4l0.6-1.2l0.4-1.5l-0.6-1.9L183.6,111.6z"/>
	<g>
		<path class="st2" d="M207.2,114h3.1c1.2,0,1.9,0.5,1.9,1.6c0,0.6-0.3,1.1-0.9,1.4l0,0c0.8,0.2,1.2,0.8,1.2,1.7
			c0,1-0.7,1.8-2.4,1.8h-3L207.2,114L207.2,114z M208.4,116.7h1.8c0.5,0,0.9-0.3,0.9-0.9s-0.3-0.9-0.9-0.9h-1.8V116.7z M208.4,119.5
			h2c0.7,0,1.1-0.4,1.1-1s-0.4-1-1.1-1h-2V119.5z"/>
		<path class="st2" d="M215.1,114h1.2l2.5,6.4h-1.2l-0.6-1.7h-2.6l-0.6,1.7h-1.2L215.1,114z M214.7,117.8h2l-1-2.8l0,0L214.7,117.8z
			"/>
	</g>
</g>
<g class="estado-botao" id="GO">
	<path id="SEAGO" class="st0" d="M156.6,121l1.4,0.9l1.3,1l1.3,0.2l1.3,1.3l1.7,0.5l0.3-2.1l1-0.6l2.4-0.1l0.2,1.4l0.3,1l1,0.2
		l1.7-0.2l1.3,0.2l1.1,0.6l0.6,0.3l1.7,0.1v-0.9l1.7-0.4l1.2-0.7l1.7-0.4l1.7-0.5l1.4-0.3l1,0.1l0.1,2.5l-0.6,0.3l0.2,4.2l0.6,0.7
		l0.7,1l0.5,0.3v2.6l-0.2,0.5l-0.7-0.1l-0.9-0.7l-1-0.4l-1,0.1l-0.3,1v0.8l-1.4,0.3l-1,0.2v1v2.2l0.3,0.9v0.5l0.2,1l-1,0.1l-1.5,0.2
		l-0.9,1.7l-0.3,1.3l-0.1,1.3l0.3,1l0.5,0.6l0.6,1l0.1,0.7l-1,0.8l-0.9,1l-0.3,0.9l0.2,1l0.7,0.3l0.3,0.6v1.4v0.7l-1,0.7L174,157
		l-0.9,1l-0.2,0.6l-0.9-0.5l-1.5-0.3h-1.8l-2.1-0.1c0,0-1,0.2-1.3,0.2c-0.2,0-1.4,0.4-1.4,0.4l-1,0.8l-1.9-0.2l-2.5,0.4
		c0,0-1.1,0.2-1.3,0.2s-1.3,1.1-1.3,1.1l-1.2,1.4l-0.9,1l-1.4,1.7l-1.5-1.1l-1.7-0.9c0,0-1-0.6-1.3-0.6s-2-1-2.2-1s-1.3-0.9-1.6-1
		c-0.2-0.1-0.6-0.6-1.3-0.9c-0.7-0.2-1.5-0.6-1.5-0.6l-0.7-0.8l-0.2-0.9l-1.2-0.7l-0.3-1.4v-1.3l-0.2-1.1l-0.2-2.2l1-2.3l1.2-0.6
		l1.2-1l0.6-1.7l2.3-2.7l1.3-0.5l1.5-0.6l0.2-0.8l0.6-1.7l1.2-1.7l1-0.5l1.4-1.1l0.5-1.3l0.7-3.1l0.9-1.7l0.4-1.7c0,0,0-1,0.3-1.7
		c0.3-0.6,0.4-2.1,0.7-2.3c0.3-0.2,0.6-1.7,0.6-1.7L156.6,121z"/>
	<g>
		<path class="st2" d="M157.8,151.7c-0.5,0.2-1.4,0.5-2.6,0.5c-1.3,0-2.2-0.3-3.1-1.1c-0.6-0.6-1.1-1.7-1.1-3c0-2.4,1.8-4.1,4.5-4.1
			c1,0,1.8,0.2,2.1,0.3l-0.3,0.8c-0.5-0.2-1-0.3-1.8-0.3c-1.9,0-3.4,1.3-3.4,3.3c0,2.1,1.3,3.3,3.2,3.3c0.6,0,1.1-0.2,1.4-0.2v-2.5
			h-1.6v-0.8h2.7L157.8,151.7L157.8,151.7z"/>
		<path class="st2" d="M166.5,147.9c0,2.9-1.8,4.3-3.9,4.3c-2.2,0-3.7-1.7-3.7-4.1c0-2.5,1.6-4.3,3.9-4.3S166.5,145.5,166.5,147.9z
			 M160.1,148c0,1.7,1,3.3,2.6,3.3c1.8,0,2.6-1.6,2.6-3.3c0-1.6-0.8-3.3-2.6-3.3C161,144.7,160.1,146.3,160.1,148z"/>
	</g>
</g>
<g class="estado-botao" id="DF">
	<rect x="165.3" y="129.4" class="st3" width="10.2" height="8.1"/>
	<g>
		<path class="st2" d="M167.3,131.5c0.3,0,0.8-0.1,1.2-0.1c0.8,0,1.3,0.2,1.8,0.5c0.3,0.3,0.5,0.9,0.5,1.5c0,0.7-0.2,1.2-0.7,1.6
			c-0.4,0.4-1.1,0.7-1.9,0.7c-0.4,0-0.7,0-1,0L167.3,131.5L167.3,131.5z M167.8,135.2c0.1,0,0.3,0,0.5,0c1.2,0,1.8-0.7,1.8-1.8
			c0-1-0.5-1.6-1.8-1.6c-0.3,0-0.5,0-0.7,0.1v3.3H167.8z"/>
		<path class="st2" d="M171.5,131.5h2.3v0.4H172v1.4h1.6v0.4H172v1.9h-0.5V131.5z"/>
	</g>
</g>
<g class="estado-botao" id="ES">
	<path id="SEAES" class="st0" d="M214.6,176.1l1,0.4l0.9,0.4l2.5-0.3l0.6-0.7l0.8-0.8l0.6-0.9l1-1.3l1-1.3l0.5-0.9l0.6-1.7l0.3-1.5
		l1.6-0.8c0,0,0.6-0.3,0.6-0.6s0.2-2,0.2-2l0.2-2.7v-2.1l-0.6-1.6l-1-0.6l-1.2-0.9l-1-0.2h-1.8l-0.8,0.3l-0.7,0.5l-0.7,0.6v1
		l0.1,0.9l0.2,1.2l0.5,1l-0.5,0.7l-0.1,0.6v1.2l-0.2,1.5l-0.5,1.8l-0.5,1l-0.8,1l-0.4,1l-0.4,0.7l-1.3,0.2l-1,0.5l-0.1,1.3l-0.1,1.3
		l-0.2,1.5L214.6,176.1z"/>
	<g>
		<path d="M227,166.7h4.6v1h-3.5v1.7h3.2v0.9h-3.2v1.9h3.6v1H227V166.7z"/>
		<path d="M233.1,171c0,1,0.7,1.4,1.6,1.4c1,0,1.4-0.5,1.4-1s-0.3-0.7-0.5-0.8c-0.5-0.2-1-0.3-1.9-0.5c-1.1-0.3-1.4-1-1.4-1.6
			c0-1.3,1.2-1.9,2.3-1.9c1.3,0,2.5,0.7,2.5,2.1H236c-0.1-0.8-0.6-1.1-1.4-1.1c-0.5,0-1.2,0.2-1.2,0.8c0,0.5,0.3,0.7,0.8,0.8
			c0.1,0,1.5,0.4,1.9,0.5c0.8,0.3,1.3,1,1.3,1.6c0,1.4-1.3,2-2.6,2c-1.5,0-2.7-0.7-2.7-2.3H233.1z"/>
	</g>
</g>
<g class="estado-botao" id="SC">
	<path id="SEASC" class="st0" d="M134.4,212v1.7l0.1,1.7l0.2,1l1.3,0.1h1.7l1.6,0.1l1.7,0.2l2.4,0.6l1.4,0.6l1.1,0.2l1.4,0.5
		l1.3,0.3l1,0.6l5.6,5.3l1.2,0.4l1.6-0.1h1.7c0,0,0.5-0.2,0.6,0.2c0.2,0.5,0.5,1,0.5,1l-0.2,1l-0.4,0.9l-1,1l-0.4,0.9l1,0.2l1,0.4
		l0.6-1l1.3-1.2l1.2-1l2.1-1.1c0,0,0.6-0.5,0.6-0.8c0.1-0.3,0.6-2.3,0.6-2.3l0.5-1.7l0.2-1.9V218l-0.1-2.1c0,0,0-1.6,0-1.8
		s-0.1-2-0.1-2l-0.2-1.1l-1.4-1.1H165l-1,0.4l-0.6,0.6l-0.7,0.2l-1.3,0.4l-0.7-0.3l-0.5-0.6l-0.5-0.6l-1.2,0.1l-1,0.1l-1.6,0.2h-1
		l-0.9,1l-0.7,0.6l-1.3-0.1l-0.5,0.5l-0.7,1l-0.4,0.9h-1h-1.1L147,214l-1.7-0.2l-1.6-0.4l-1.3-0.5l-1.3-0.4l-1.3-0.2H139l-2-0.3
		l-1.5-0.2L134.4,212z"/>
	<g>
		<path class="st2" d="M155.7,219.3c0,1,0.7,1.4,1.6,1.4c1,0,1.4-0.5,1.4-1s-0.3-0.7-0.5-0.8c-0.4-0.2-1-0.3-1.9-0.5
			c-1.1-0.3-1.4-1-1.4-1.6c0-1.3,1.2-1.9,2.3-1.9c1.3,0,2.5,0.7,2.5,2.1h-1.1c-0.1-0.8-0.6-1.1-1.4-1.1c-0.5,0-1.2,0.2-1.2,0.8
			c0,0.5,0.3,0.7,0.8,0.8c0.1,0,1.5,0.4,1.9,0.5c0.8,0.3,1.3,1,1.3,1.6c0,1.4-1.3,2-2.6,2c-1.5,0-2.7-0.7-2.7-2.3H155.7z"/>
		<path class="st2" d="M164.9,217.1c-0.2-0.7-0.7-1.3-1.6-1.3c-1.4,0-2,1.2-2,2.4s0.6,2.4,2,2.4c1,0,1.5-0.7,1.6-1.7h1.1
			c-0.1,1.5-1.2,2.6-2.7,2.6c-1.9,0-3.1-1.5-3.1-3.4c0-1.8,1.2-3.4,3.1-3.4c1.4,0,2.6,0.8,2.7,2.2h-1.1V217.1z"/>
	</g>
</g>
<g class="estado-botao" id="RS">
	<path id="SEARS" class="st0" d="M109.1,237.5l1.3-0.2l1.1-0.7l1.3-0.5l1.2,0.2l1.1,1.2l1.8,1.6l1.5,1.7v1l0.6,0.7l0.9-0.2l1-0.6
		l0.7-0.4l0.8,0.7l0.5,0.6l0.7,1l1,0.9l1.2-0.2l1,1l1.2,0.6l0.9,0.6l1,1.2l0.8,1l1.2-0.1l1.3,1l0.2,0.8l0.9,0.8l0.9,1.2
		c0,0,0.3,0,0.6,0.2s1.2,0.8,1.2,0.8l0.6,0.7l-0.1,1.8l-0.6,0.9c0,0-1,0.6-1,0.8c0,0.2-0.1,3.3-0.1,3.3l0.8-0.6l1.2-0.9l1.7-0.8
		l0.7-1.3l1.3-1.4l0.5-2.1l0.7-2l0.7-1.2v-2.1l0.7-1.2l1-0.8l0.1-1.8l1.7-0.4l0.9-0.6l0.2-1.9l1.1-0.8l0.8-3.3l0.7-0.4l1.1,0.3
		l0.1,0.6l0.9,0.3l0.6-0.7l0.9-0.2h1.2l-0.1,1.9l-0.8,0.8l-1,1.3l-1.7,1.5l-0.8,1.4l-0.7,1.1l-1.6,1l-1.7,1.1c0,0-1,0.5-1.3,0.6
		c-0.2,0.2-0.9,0.6-0.9,0.6l0.1,1l0.6-0.1l0.9-0.1l1.3-0.6l1.6-1.2l1.5-1.4l1.5-1.4l1.7-1.9l1.9-2.6l1.2-2.2l1.3-2.8l0.6-1.5
		l0.8-1.8l-0.7-0.5l-1-0.2l-0.2-1.5l0.6-1.6l0.9-1.3v-0.6l-2.1,0.2l-1.7-0.4l-1.3-0.3l-1.7-1.7l-1-1.1l-1.3-1.2c0,0-1.3-0.8-1.7-1
		c-0.3-0.2-1.8-0.6-1.8-0.6s-1.7-0.6-2.1-0.7c-0.5-0.1-1.9-0.1-2.4-0.3s-2.5-0.6-2.7-0.6s-1.4-0.6-2.9-0.6c-1.5,0.1-3.4,0.1-4,0.1
		s-1.7,0-1.7,0l-1.2,0.9l-1.3,1l-1.8,0.9l-1.4,0.9l-1.3,0.8l-1.3,0.7l-14.1,14.3L109.1,237.5z"/>
	<g>
		<path class="st2" d="M131.5,230.9h3.1c1.4,0,2.1,0.6,2.1,1.7c0,1.2-0.9,1.5-1.1,1.6l0,0c0.4,0.1,1,0.3,1,1.4
			c0,0.7,0.1,1.4,0.4,1.7h-1.2c-0.2-0.3-0.2-0.6-0.2-0.9c0-1.2-0.2-1.7-1.3-1.7h-1.7v2.6h-1.1V230.9z M132.7,233.8h1.8
			c0.7,0,1.1-0.4,1.1-1c0-0.8-0.5-1-1.1-1h-1.8V233.8z"/>
		<path class="st2" d="M138.4,235.2c0,1,0.7,1.4,1.6,1.4c1,0,1.4-0.5,1.4-1s-0.3-0.7-0.5-0.8c-0.5-0.2-1-0.3-1.9-0.5
			c-1.1-0.3-1.4-1-1.4-1.6c0-1.3,1.2-1.9,2.3-1.9c1.3,0,2.5,0.7,2.5,2.1h-1.1c-0.1-0.8-0.6-1.1-1.4-1.1c-0.5,0-1.2,0.2-1.2,0.8
			c0,0.5,0.3,0.7,0.8,0.8c0.1,0,1.5,0.4,1.9,0.5c0.8,0.3,1.3,1,1.3,1.6c0,1.4-1.3,2-2.6,2c-1.5,0-2.7-0.7-2.7-2.3H138.4z"/>
	</g>
</g>
<g class="estado-botao" id="AC">
	<path id="SEAAC" class="st0" d="M1.1,84.4c0,0,10.2,4.6,20,5.2c2.1,1.4,3.8,2.2,3.8,2.2s16,8.7,19.7,9.7l-0.2,1.1l-2.1,1.3l-1.9,1
		l-1.1,1.3l-2.1,0.3l-1.6,0.6l-1.3,1.7l-1,0.5l-1.3-0.2l-1.7-0.8h-2.7h-4.4l-2.1-0.2l-0.5-1.6l-0.2-3l0.5-2.1v-2.2l-0.2-1.4
		l-2.1,1.4l-2.4,1.9l-1.7,0.6l-4.3-0.5l-0.3-1.9L8.2,98l-1.4-0.6H5.2l0.3-1.1v-1.9l-1.1-1.3L2.5,91l-1.4-2.9L0,86v-1.4L1.1,84.4z"/>
	<g>
		<path class="st2" d="M26.7,98.2h1.2l2.5,6.4h-1.2l-0.6-1.7H26l-0.6,1.7h-1.2L26.7,98.2z M26.3,102.1h2l-1-2.8l0,0L26.3,102.1z"/>
		<path class="st2" d="M35.1,100.3c-0.2-0.7-0.7-1.3-1.6-1.3c-1.4,0-2,1.2-2,2.4s0.6,2.4,2,2.4c1,0,1.5-0.7,1.6-1.7h1.1
			c-0.1,1.5-1.2,2.6-2.7,2.6c-1.9,0-3.1-1.5-3.1-3.4s1.2-3.4,3.1-3.4c1.4,0,2.6,0.8,2.7,2.2h-1.1V100.3z"/>
	</g>
</g>
<g class="estado-botao" id="MA">
	<path id="SEAMA" class="st0" d="M185.7,44l1.4,0.1l1.2,1l1,0.1l1.6,0.1l1.3,0.5L193,47l1.7,1.2c0,0,0.8,1.1,0.8,1.3s0.2,1,0.2,1.2
		s0,1.2-0.2,1.3s-1.3,1.2-1.3,1.2l-0.3,1.1l0.1,1.4l0.8,0.7l1.1-0.3l0.5-1.2l1.3-0.7h1.1l0.5-0.7c0,0,0.5-0.7,1-0.7
		c0.4,0,2.3-0.1,2.3-0.1l1-0.5l0.8-0.4l1.5,0.3l1.2,0.6l1.5,1l1.1,0.5l2,0.2l1.1,0.3l-0.1,1.1l-0.8,0.9l-1.3,0.7l-0.5,0.4l-1.9,0.4
		l-0.8,1.7l-1,1.7l-0.7,1.2c0,0-0.1,2.1-0.1,3.2s0.5,2,0.5,2.4s0.4,1.7,0,2.1c-0.4,0.5-0.8,2-1.2,2.3c-0.4,0.4-0.2,2-0.2,2l0.1,1
		l1.1,1.3l-0.2,1.7l-0.7,1l-1.5,0.1c0,0-1-0.4-1.2-0.4s-1.5,0.1-1.5,0.1l-1.4,0.1l-0.9,0.5l-1.3,1.1l-1.1,1.2l-1.5,1.5l-1.5,0.6
		l-2.6,0.7l-1.7,1.4l-0.8,1.8l-0.2,1.2c0,0-0.4,1.5-0.4,1.7c-0.1,0.2-1,1.5-1.1,1.7s-0.7,2.1-0.7,2.3c0,0.2,0.1,2.1,0.1,2.1l0.4,1
		c0,0,0.4,1,0.2,1.1c-0.2,0.2-0.1,2.6-0.1,2.6l-0.7,1c0,0-1-0.4-1.2-0.4s-1.1-0.6-1.1-0.6s-0.5-1.5-0.6-1.9s-0.1-1.7-0.4-2
		c-0.2-0.3-0.8-0.7-1.1-1.1s-1.1-1.4-1.1-1.5c0-0.2,0.1-1.4,0.1-1.5c0-0.2,0.7-1.7,0.7-1.7s1.3-0.5,1.5-0.7c0.2-0.1,0.6-1.8,0.6-1.8
		v-1.5c0,0-0.2-0.2-0.6-0.7c-0.4-0.5-3.1-0.2-3.1-0.2l-1.4-0.9l-1.5-1.9c0,0-0.8-1.2-0.7-1.4c0.1-0.2,0.6-2.5,0.6-2.5l0.3-5.7
		l-0.2-1.9l-0.6-1.2c0,0-2.7-1.8-3-1.8c-0.2,0-1.7-0.4-1.7-0.4l-0.4-0.8l1.8-2.1l2.1-1.1l1.4-1.2l1.4-2.3l1.7-2.8l1.4-2l1.2-2
		l0.3-1.2l0.4-1.2l0.2-1.1c0,0,0.3-0.8,0.4-1c0.1-0.2,0.8-1.5,0.8-1.5s0.4-1.8,0.4-2s0.3-1.5,0.3-1.7s0.6-2.1,0.6-2.1L185.7,44z"/>
	<g>
		<path class="st2" d="M184.3,67.3h1.6l1.8,5l0,0l1.7-5h1.6v6.4h-1.1v-5l0,0l-1.8,5h-0.9l-1.8-5l0,0v5h-1.1V67.3z"/>
		<path class="st2" d="M193.8,67.3h1.2l2.5,6.4h-1.2l-0.6-1.7h-2.6l-0.6,1.7h-1.2L193.8,67.3z M193.4,71.2h2l-1-2.8l0,0L193.4,71.2z
			"/>
	</g>
</g>
<g class="estado-botao" id="PI">
	<path id="SEAPI" class="st0" d="M213.9,55.1h1l1.4,0.5l0.4,0.6L216,57l-0.2,1l0.1,1l0.8,1.3l0.6,1.4L218,63v1.3l0.4,1.4v2.7
		l0.5,4.2l0.1,1.8l0.2,1.3l0.5,2.4l0.5,1.3l0.4,1l1.2,0.8l0.4,1.1c0,0-0.2,0.7-0.6,0.8c-0.4,0.1-0.8,1.3-0.8,1.3l0.1,1.7l0.5,1.3
		l0.2,1.2l-0.5,1.4l-2,1.2l-2,1.5l-1.4,1.3l-1.5,1.7l-1.7,1l-1.7,0.1l-1.1,0.7l-1.2,0.4H207l-1-0.1l-1.4-0.5l-1.8-0.4l-1,0.1
		l-0.6,0.7l-0.8,1l-0.1,1.4v1.2l-0.4,1.4l-0.7,1l-1,1l-1.3,0.4l-1.3,0.7l-1.3,0.7L193,107c0,0-0.5-0.4-1.2-0.5s-0.7-0.1-0.7-0.1
		l-0.8-1.1l-0.5-0.8l-0.7-0.5h-1.5l-0.1-1.8l-0.1-1.5V99l-0.4-1.3l-0.2-1.9l0.6-1.5l0.7-1.3l0.8-1.9l0.5-1.9l0.4-1.3l0.7-0.7l1-0.7
		l1.1-0.4l1.3-0.5l1.5-0.6l1.5-1.4l1.2-1.3l1.1-0.8l1.5-0.2l1.2-0.1l1.3,0.2h1.3l1.4-0.6l0.8-1.5l0.1-1.7l-0.4-1l-0.6-1.1L206,74
		l0.2-1.2l0.5-1l0.7-1l-0.4-1.2l-0.1-1.8l-0.2-2.1v-1.4l0.2-1.5l0.7-1.2l1-1.7l1.2-0.4l2.5-1.4l1.1-1.4L213.9,55.1z"/>
	<g>
		<path class="st2" d="M203.2,83.3h2.8c1.8,0,2.2,1.2,2.2,2s-0.4,2-2.2,2h-1.7v2.5h-1.1V83.3z M204.3,86.4h1.6
			c0.5,0,1.1-0.3,1.1-1.1c0-0.8-0.5-1.1-1.1-1.1h-1.7L204.3,86.4L204.3,86.4z"/>
		<path class="st2" d="M209,83.3h1.1v6.4H209V83.3z"/>
	</g>
</g>
<g class="estado-botao" id="CE">
	<path id="SEACE" class="st0" d="M218.3,55.2l-0.5,1.1l-0.4,1l0.1,1.3l0.1,0.6l0.5,0.8l0.5,1l0.4,0.7v1.2l0.6,1.2l0.1,1.3v1.9
		l0.1,1.3l0.1,2l0.2,2l0.1,2l0.2,1.5c0,0,0.1,0.7,0.2,1.3c0.1,0.6,0.8,1.9,0.8,1.9l1.2,0.6l0.5,0.8l-0.2,1.4c0,0,0.1,0.5-0.2,0.8
		c-0.4,0.4-0.2,1.2-0.2,1.2l1.3,0.1l1.7-0.1L227,84h1.3l1.1,0.4l1.3,0.8l1.1,1.3l1-0.1l1.2-1.2l0.7-0.8l-0.4-1.1l-0.4-0.8V81
		l0.7-1.5l0.2-1.8l1.2-2l1.7-2l1.2-2l1.1-1.9l1-1.8l1.7-1.1l-3.1-2.7l-2.6-2l-0.7-1.1c0,0-1.1-0.7-1.4-0.7s-1.5-0.7-1.5-0.7
		l-1.7-1.2l-1.8-1.2l-1.8-1l-1.8-1h-1.9h-2.5h-1.2L218.3,55.2z"/>
	<g>
		<path class="st2" d="M228.2,68.3c-0.2-0.7-0.7-1.3-1.6-1.3c-1.4,0-2,1.2-2,2.4s0.6,2.4,2,2.4c1,0,1.5-0.7,1.6-1.7h1.1
			c-0.1,1.5-1.2,2.6-2.7,2.6c-1.9,0-3.1-1.5-3.1-3.4s1.2-3.4,3.1-3.4c1.4,0,2.6,0.8,2.7,2.2h-1.1V68.3z"/>
		<path class="st2" d="M230.2,66.3h4.6v1h-3.5V69h3.2v0.9h-3.2v1.9h3.6v1h-4.7L230.2,66.3L230.2,66.3z"/>
	</g>
</g>
<g class="estado-botao" id="AL_1_">
	<polygon id="AL" class="st0" points="238.8,97.9 239.9,98.5 241.2,99.3 242.5,99.8 244,100.5 244.8,101.1 245.9,101.7 247.2,102.7 
		248.2,103.4 249.3,103.7 250.4,102.8 252.2,101.4 253.7,99.5 254.9,98 255.7,97.2 256.2,95.8 256.4,94.8 254.7,94.3 253.1,94.6 
		252,94.9 251.4,96.6 250.1,97.3 248.5,97.6 246.6,97.6 244.8,97.6 243.7,97.1 242.5,96.4 241.8,95.8 240.9,95.8 239.8,96.4 
		239.2,97.2 	"/>
	<g>
		<path d="M255.5,98.4h1.2l2.5,6.4H258l-0.6-1.7h-2.6l-0.6,1.7H253L255.5,98.4z M255.1,102.2h2l-1-2.8l0,0L255.1,102.2z"/>
		<path d="M259.6,98.4h1.1v5.5h3.3v1h-4.4V98.4z"/>
	</g>
</g>
<g class="estado-botao" id="SE_1_">
	<polygon id="SE" class="st0" points="239.8,99.6 241,100.4 242.4,100.8 244,101.7 245.6,102.7 247.5,104.6 248,104.9 247.4,105.8 
		245.5,108.4 244.1,109.9 242.9,111.7 241.9,111.8 240.7,111.6 240,110.8 239.3,109.9 238.8,108.9 239,107.8 240,107.7 240.6,106.1 
		240.7,103.9 240.6,102.2 240,101.2 239.3,100.4 239.3,99.5 	"/>
	<g>
		<path d="M246.4,113.1c0,0.8,0.7,1.1,1.6,1.1c1,0,1.4-0.4,1.4-0.8s-0.3-0.6-0.5-0.7c-0.4-0.1-1-0.2-1.9-0.4
			c-1.1-0.2-1.4-0.8-1.4-1.3c0-1.1,1.2-1.6,2.3-1.6c1.3,0,2.5,0.6,2.5,1.7h-1.1c-0.1-0.7-0.6-0.9-1.4-0.9c-0.5,0-1.2,0.2-1.2,0.7
			c0,0.4,0.3,0.6,0.8,0.7c0.1,0,1.5,0.3,1.8,0.4c0.8,0.2,1.2,0.8,1.2,1.3c0,1.2-1.3,1.7-2.5,1.7c-1.5,0-2.6-0.6-2.7-1.9L246.4,113.1
			L246.4,113.1z"/>
		<path d="M251.2,109.6h4.6v0.8h-3.5v1.4h3.2v0.8h-3.2v1.5h3.5v0.8h-4.7L251.2,109.6L251.2,109.6z"/>
	</g>
</g>
<g class="estado-botao" id="PA">
	<path id="SEAPA" class="st0" d="M100.3,27.4l-0.1,4.5l0.1,1.9c0,0,0.4,3,0.4,3.3s0.4,1.5,0.4,1.5l1.1,0.8l0.6,0.7l0.3,1.4l0.8,1
		l1,1.2l1,1l1.2,0.1l1.1,0.1l0.4,0.2l1-0.4l0.8,0.1l0.9,0.6l1,1.2l1.2,0.5l1.3,0.8L116,48l0.7-0.6l1-0.2l1.1,0.6l-0.1,1l-0.1,1
		L118,50l-0.6,1.4l-0.4,1.4l-0.9,1l-1.3,3.3l-11.1,22.5l0.1,0.9l0.8,1l0.1,1c0,0,0.8,0.7,0.7,0.9c-0.1,0.2,0,1.5,0,1.5l0.7,0.8
		l0.5,0.8l0.5,1.5l0.8,0.9l0.2,1.6l0.1,2.4l1.4,1l1.6,1.3l1.1,1.1l1.3,1.1l0.9,0.2l2.5,0.2l3.3,0.4l0.9,0.4l8.4,0.4l7.9,0.1l5.2,0.4
		h5.3l7.2,0.3l2.1,0.1l0.8-2l1.8-2.9c0,0,1.3-1.3,1.5-1.4s1.1-1.2,1.1-1.2l0.7-1.8l0.2-1.8l-0.2-1.2l-0.7-0.7l0.2-1.8l0.7-1l0.3-1.4
		l0.4-1.3c0,0,0.5-0.3,0.8-0.5s1.8-1.5,1.8-1.5l1.2-0.7l0.6-0.9l1-1.7l0.1-1.6l-0.1-1.5l-0.7-0.1l-1.2-0.5l-0.5-1.2l1.5-1.8l3.8-3.3
		l2-0.9l1.5-1.9l3-4.8l2.1-2.8l0.1-2l0.5-1.2l0.8-1.4l0.8-2l0.3-3l0.6-0.8v-1.9l-1.1-0.7h-1.8l-0.5-1c0,0-1.8-0.2-2.1-0.4
		c-0.3-0.1-1.5-0.2-1.5-0.2l-1.7-0.2l-1.5-0.3l-1,0.1l-0.7,0.7l-3.7,4l-2.1,2.6l-1.6,0.9l-1.7,0.1l-1-0.6l-0.8,0.1l-0.5,0.7
		l-0.4,0.7l-1.1-0.4l-1-0.8l-2.9-0.5c0,0-0.9-0.4-1.1-0.5s-1-1.2-1-1.2l-0.9-2l-0.5-0.4h-1.4l-1.8,1.1L147,46l-2.7,0.5l-0.7-0.7
		l0.4-1.3l1.5-0.3l-0.1-0.7l-1.8-0.2c0,0-1-1-1.2-1.1s-1.1-1.5-1.1-1.5l-0.2-1.5l-0.9-1.1l-1.8-2.6c0,0-0.3-1.5-0.6-2
		s-0.5-1.4-0.5-1.8s-0.8-1.4-1.1-1.7c-0.4-0.3-0.7-1.7-1-2.1c-0.2-0.4-1.2-1.2-1.2-1.2l-1.8-1.1l-1.9-1.4c0,0-1.4-0.3-1.7-0.5
		c-0.2-0.2-1.6-0.7-1.7-1c-0.1-0.2-0.4-1.8-0.4-1.8l-0.2-1.7l-0.7-0.9c0,0-1.3,0-1.5,0s-1.5,0.4-1.5,0.4l-0.7,0.5h-1.5l-0.8-0.2
		l-0.2,0.8l0.1,1.3v1.2l-0.2,0.5h-1.6h-1l-2.8-0.2l-1.4,0.1c0,0-1.6-0.1-1.9-0.1c-0.3,0.1-2,1.2-2,1.2l-1.5,0.6l-1.6,0.8l-2.6,0.9
		l-1.2,0.9L100.3,27.4z"/>
	<path class="st0" d="M156.9,46l0.7-0.5l1-0.2l0.6,0.2l0.7,0.4l0.8-0.5l0.7-0.7l0.8-0.5l0.8,0.4l0.6-0.4l1.1-1l1.3-0.1l1.1-1.5
		l1-1.4l0.2-1.2l0.4-1.2l-1.9-0.1l-1.3-0.2h-1.7l-0.8,0.1h-1.7l-1.1-0.4l-1.4-0.5l-1.2,0.2l-0.5,1.3l-0.1,1.1l-0.1,1.3
		c0,0,0.2,1.3,0,1.7s-0.4,1.9-0.4,1.9l-0.1,1.7L156.9,46z"/>
	<polygon class="st0" points="161.8,36 162.9,35.2 162.5,34.1 161.5,34.3 160.8,35.5 	"/>
	<path class="st0" d="M160.7,32.6l-0.6,1.5L160,35c0,0-0.7-0.2-1.1-0.2c-0.4,0-1.8-0.2-1.8-0.2l0.6-1.1l1.1-1.3L160.7,32.6z"/>
	<polygon class="st0" points="153.5,36.9 152.2,38.3 152,36.9 152.4,35.3 153.7,34.6 154.9,34.6 154.9,35.3 154.4,36.4 	"/>
	<polygon class="st0" points="150,40.6 148.9,41.8 148,43.3 146.9,43.9 147.6,42 148.7,40.1 149.5,39.6 	"/>
	<polygon class="st0" points="154.3,40.2 153.4,40.4 152.9,41 153.7,41.3 154.4,41.6 155.7,40.9 154.9,40 	"/>
	<polygon class="st0" points="154.7,37.8 155.7,37.8 155.8,36.4 155,36.8 	"/>
	<polygon class="st0" points="155.3,43.7 155.2,44.6 154.1,44.6 154,43.5 154.1,42.8 154.9,42.8 	"/>
	<g>
		<path class="st2" d="M134.9,65.3h2.8c1.8,0,2.2,1.2,2.2,2s-0.4,2-2.2,2H136v2.5h-1.1V65.3z M136,68.3h1.6c0.5,0,1.1-0.3,1.1-1.1
			c0-0.8-0.5-1.1-1.1-1.1H136V68.3z"/>
		<path class="st2" d="M141.7,65.3h1.2l2.5,6.4h-1.2l-0.6-1.7H141l-0.6,1.7h-1.2L141.7,65.3z M141.3,69.1h2l-1-2.8l0,0L141.3,69.1z"
			/>
	</g>
</g>
<g>
	<g>
		<path d="M12.7,185.4h0.6v6.4h-0.6V185.4z"/>
		<path d="M14.4,187.2h0.5v0.8l0,0c0.3-0.6,0.8-0.9,1.5-0.9c0.6,0,1.2,0.3,1.3,0.9c0.3-0.6,0.9-0.9,1.5-0.9c1,0,1.5,0.5,1.5,1.6v3.2
			h-0.6v-3.1c0-0.8-0.3-1.2-1.1-1.2c-1,0-1.3,0.8-1.3,1.7v2.6h-0.6v-3.2c0-0.6-0.3-1.2-1-1.2c-1,0-1.4,0.7-1.4,1.7v2.6h-0.6v-4.6
			L14.4,187.2L14.4,187.2z"/>
		<path d="M21.6,187.2h0.5v0.9l0,0c0.3-0.6,0.9-1,1.7-1c1.4,0,2.1,1.1,2.1,2.5s-0.7,2.5-2.1,2.5c-0.7,0-1.4-0.4-1.6-1l0,0v2.6h-0.6
			V187.2z M23.8,187.5c-1.3,0-1.6,0.9-1.6,2c0,1,0.4,2,1.6,2c1.1,0,1.5-1,1.5-2C25.4,188.6,24.9,187.5,23.8,187.5z"/>
		<path d="M26.6,185.4h0.6v6.4h-0.6V185.4z"/>
		<path d="M28,188.6c0.1-1.1,0.8-1.6,1.9-1.6c0.8,0,1.7,0.3,1.7,1.5v2.5c0,0.2,0.1,0.3,0.3,0.3c0.1,0,0.1,0,0.2,0v0.5
			c-0.1,0-0.2,0-0.4,0c-0.6,0-0.7-0.3-0.7-0.8l0,0c-0.4,0.6-0.8,0.9-1.7,0.9c-0.9,0-1.6-0.4-1.6-1.4c0-1.3,1.3-1.4,2.5-1.5
			c0.5-0.1,0.7-0.1,0.7-0.6c0-0.8-0.5-1-1.2-1s-1.2,0.3-1.2,1.1H28V188.6z M31,189.3L31,189.3c-0.1,0.1-0.3,0.2-0.5,0.2
			c-1,0.2-2.2,0.2-2.2,1.1c0,0.6,0.5,0.9,1,0.9c0.9,0,1.6-0.5,1.6-1.5v-0.7H31z"/>
		<path d="M32.5,187.2H33v0.8l0,0c0.2-0.6,0.8-0.9,1.5-0.9c1.3,0,1.7,0.7,1.7,1.8v3h-0.6V189c0-0.8-0.3-1.4-1.2-1.4
			s-1.4,0.7-1.5,1.6v2.7h-0.6v-4.7L32.5,187.2L32.5,187.2z"/>
		<path d="M38,187.2h0.9v0.5H38v3.1c0,0.4,0.1,0.6,0.5,0.6c0.2,0,0.3,0,0.5,0v0.5c-0.2,0-0.3,0-0.5,0c-0.8,0-1-0.3-1-1v-3.2h-0.8
			v-0.5h0.8v-1.4H38V187.2z"/>
		<path d="M39.5,188.6c0.1-1.1,0.8-1.6,1.9-1.6c0.8,0,1.7,0.3,1.7,1.5v2.5c0,0.2,0.1,0.3,0.3,0.3c0.1,0,0.1,0,0.2,0v0.5
			c-0.1,0-0.2,0-0.4,0c-0.6,0-0.7-0.3-0.7-0.8l0,0c-0.4,0.6-0.8,0.9-1.7,0.9s-1.6-0.4-1.6-1.4c0-1.3,1.3-1.4,2.5-1.5
			c0.5-0.1,0.7-0.1,0.7-0.6c0-0.8-0.5-1-1.2-1s-1.2,0.3-1.2,1.1h-0.5V188.6z M42.5,189.3L42.5,189.3c-0.1,0.1-0.3,0.2-0.5,0.2
			c-1,0.2-2.2,0.2-2.2,1.1c0,0.6,0.5,0.9,1,0.9c0.9,0,1.6-0.5,1.6-1.5v-0.7H42.5z"/>
		<path d="M48,191.8h-0.5V191l0,0c-0.2,0.6-1,1-1.7,1c-1.4,0-2.1-1.1-2.1-2.5s0.7-2.5,2.1-2.5c0.7,0,1.4,0.4,1.6,1l0,0v-2.7H48
			V191.8z M45.8,191.5c1.2,0,1.6-1,1.6-2s-0.4-2-1.6-2c-1.1,0-1.5,1-1.5,2S44.8,191.5,45.8,191.5z"/>
		<path d="M53.1,189.5c0,1.3-0.8,2.5-2.2,2.5s-2.2-1.1-2.2-2.5c0-1.3,0.8-2.5,2.2-2.5C52.3,187.1,53.1,188.2,53.1,189.5z
			 M49.2,189.5c0,1,0.5,2,1.6,2s1.6-1,1.6-2s-0.5-2-1.6-2C49.8,187.5,49.2,188.5,49.2,189.5z"/>
		<path d="M12.7,204h0.6v6.4h-0.6V204z"/>
		<path d="M14.4,205.8h0.5v0.8l0,0c0.3-0.6,0.8-0.9,1.5-0.9c0.6,0,1.2,0.3,1.3,0.9c0.3-0.6,0.9-0.9,1.5-0.9c1,0,1.5,0.5,1.5,1.6v3.2
			h-0.6v-3.1c0-0.8-0.3-1.2-1.1-1.2c-1,0-1.3,0.8-1.3,1.7v2.6h-0.6v-3.2c0-0.6-0.3-1.2-1-1.2c-1,0-1.4,0.7-1.4,1.7v2.6h-0.6v-4.6
			L14.4,205.8L14.4,205.8z"/>
		<path d="M21.6,205.8h0.5v0.9l0,0c0.3-0.6,0.9-1,1.7-1c1.4,0,2.1,1.1,2.1,2.5s-0.7,2.5-2.1,2.5c-0.7,0-1.4-0.4-1.6-1l0,0v2.6h-0.6
			V205.8z M23.8,206.1c-1.3,0-1.6,0.9-1.6,2c0,1,0.4,2,1.6,2c1.1,0,1.5-1,1.5-2C25.4,207.1,24.9,206.1,23.8,206.1z"/>
		<path d="M26.6,204h0.6v6.4h-0.6V204z"/>
		<path d="M28,207.2c0.1-1.1,0.8-1.6,1.9-1.6c0.8,0,1.7,0.3,1.7,1.5v2.5c0,0.2,0.1,0.3,0.3,0.3c0.1,0,0.1,0,0.2,0v0.5
			c-0.1,0-0.2,0-0.4,0c-0.6,0-0.7-0.3-0.7-0.8l0,0c-0.4,0.6-0.8,0.9-1.7,0.9c-0.9,0-1.6-0.4-1.6-1.4c0-1.3,1.3-1.4,2.5-1.5
			c0.5-0.1,0.7-0.1,0.7-0.6c0-0.8-0.5-1-1.2-1s-1.2,0.3-1.2,1.1H28V207.2z M31,207.9L31,207.9c-0.1,0.1-0.3,0.2-0.5,0.2
			c-1,0.2-2.2,0.2-2.2,1.1c0,0.6,0.5,0.9,1,0.9c0.9,0,1.6-0.5,1.6-1.5v-0.7H31z"/>
		<path d="M32.5,205.8H33v0.8l0,0c0.2-0.6,0.8-0.9,1.5-0.9c1.3,0,1.7,0.7,1.7,1.8v3h-0.6v-2.9c0-0.8-0.3-1.4-1.2-1.4
			s-1.4,0.7-1.5,1.6v2.7h-0.6v-4.7L32.5,205.8L32.5,205.8z"/>
		<path d="M38,205.8h0.9v0.5H38v3.1c0,0.4,0.1,0.6,0.5,0.6c0.2,0,0.3,0,0.5,0v0.5c-0.2,0-0.3,0-0.5,0c-0.8,0-1-0.3-1-1v-3.2h-0.8
			v-0.5h0.8v-1.4H38V205.8z"/>
		<path d="M39.5,207.2c0.1-1.1,0.8-1.6,1.9-1.6c0.8,0,1.7,0.3,1.7,1.5v2.5c0,0.2,0.1,0.3,0.3,0.3c0.1,0,0.1,0,0.2,0v0.5
			c-0.1,0-0.2,0-0.4,0c-0.6,0-0.7-0.3-0.7-0.8l0,0c-0.4,0.6-0.8,0.9-1.7,0.9s-1.6-0.4-1.6-1.4c0-1.3,1.3-1.4,2.5-1.5
			c0.5-0.1,0.7-0.1,0.7-0.6c0-0.8-0.5-1-1.2-1s-1.2,0.3-1.2,1.1h-0.5V207.2z M42.5,207.9L42.5,207.9c-0.1,0.1-0.3,0.2-0.5,0.2
			c-1,0.2-2.2,0.2-2.2,1.1c0,0.6,0.5,0.9,1,0.9c0.9,0,1.6-0.5,1.6-1.5v-0.7H42.5z"/>
		<path d="M48,210.4h-0.5v-0.9l0,0c-0.2,0.6-1,1-1.7,1c-1.4,0-2.1-1.1-2.1-2.5s0.7-2.5,2.1-2.5c0.7,0,1.4,0.4,1.6,1l0,0V204H48
			V210.4z M45.8,210.1c1.2,0,1.6-1,1.6-2s-0.4-2-1.6-2c-1.1,0-1.5,1-1.5,2S44.8,210.1,45.8,210.1z"/>
		<path d="M53.1,208.1c0,1.3-0.8,2.5-2.2,2.5s-2.2-1.1-2.2-2.5c0-1.3,0.8-2.5,2.2-2.5S53.1,206.8,53.1,208.1z M49.2,208.1
			c0,1,0.5,2,1.6,2s1.6-1,1.6-2s-0.5-2-1.6-2C49.8,206.1,49.2,207.1,49.2,208.1z"/>
		<path d="M59.2,207.2c-0.2-0.7-0.6-1.1-1.3-1.1c-1.1,0-1.6,1-1.6,2s0.5,2,1.6,2c0.7,0,1.3-0.5,1.4-1.3h0.6
			c-0.2,1.1-0.9,1.8-1.9,1.8c-1.4,0-2.2-1.1-2.2-2.5c0-1.3,0.8-2.5,2.2-2.5c1,0,1.8,0.5,1.9,1.6H59.2z"/>
		<path d="M64.6,208.1c0,1.3-0.8,2.5-2.2,2.5s-2.2-1.1-2.2-2.5c0-1.3,0.8-2.5,2.2-2.5S64.6,206.8,64.6,208.1z M60.7,208.1
			c0,1,0.5,2,1.6,2s1.6-1,1.6-2s-0.5-2-1.6-2C61.3,206.1,60.7,207.1,60.7,208.1z"/>
		<path d="M65.2,205.8h0.5v0.8l0,0c0.3-0.6,0.8-0.9,1.5-0.9c0.6,0,1.2,0.3,1.3,0.9c0.3-0.6,0.9-0.9,1.5-0.9c1,0,1.5,0.5,1.5,1.6v3.2
			H71v-3.1c0-0.8-0.3-1.2-1.1-1.2c-1,0-1.3,0.8-1.3,1.7v2.6H68v-3.2c0-0.6-0.3-1.2-1-1.2c-1,0-1.4,0.7-1.4,1.7v2.6H65v-4.6
			L65.2,205.8L65.2,205.8z"/>
		<path d="M12.6,215.6h0.6v6.4h-0.6V215.6z"/>
		<path d="M14,218.8c0.1-1.1,0.8-1.6,1.9-1.6c0.8,0,1.7,0.3,1.7,1.5v2.5c0,0.2,0.1,0.3,0.3,0.3c0.1,0,0.1,0,0.2,0v0.5
			c-0.1,0-0.2,0-0.4,0c-0.6,0-0.7-0.3-0.7-0.8l0,0c-0.4,0.6-0.8,0.9-1.7,0.9c-0.9,0-1.6-0.4-1.6-1.4c0-1.3,1.3-1.4,2.5-1.5
			c0.5-0.1,0.7-0.1,0.7-0.6c0-0.8-0.5-1-1.2-1s-1.2,0.3-1.2,1.1H14V218.8z M17,219.4L17,219.4c-0.1,0.1-0.3,0.2-0.5,0.2
			c-1,0.2-2.2,0.2-2.2,1.1c0,0.6,0.5,0.9,1,0.9c0.9,0,1.6-0.5,1.6-1.5v-0.7H17z"/>
		<path d="M18,217.3h0.6l1.5,4.1l0,0l1.4-4.1h0.6l-1.7,4.6h-0.6L18,217.3z"/>
		<path d="M22.4,217.3h0.5v1.1l0,0c0.3-0.7,0.9-1.2,1.8-1.2v0.6c-1-0.1-1.7,0.7-1.7,1.7v2.5h-0.6C22.4,222,22.4,217.3,22.4,217.3z"
			/>
		<path d="M25,218.8c0.1-1.1,0.8-1.6,1.9-1.6c0.8,0,1.7,0.3,1.7,1.5v2.5c0,0.2,0.1,0.3,0.3,0.3c0.1,0,0.1,0,0.2,0v0.5
			c-0.1,0-0.2,0-0.4,0c-0.6,0-0.7-0.3-0.7-0.8l0,0c-0.4,0.6-0.8,0.9-1.7,0.9c-0.9,0-1.6-0.4-1.6-1.4c0-1.3,1.3-1.4,2.5-1.5
			c0.5-0.1,0.7-0.1,0.7-0.6c0-0.8-0.5-1-1.2-1s-1.2,0.3-1.2,1.1H25V218.8z M28,219.4L28,219.4c-0.1,0.1-0.3,0.2-0.5,0.2
			c-1,0.2-2.2,0.2-2.2,1.1c0,0.6,0.5,0.9,1,0.9c0.9,0,1.6-0.5,1.6-1.5v-0.7H28z"/>
		<path d="M30.4,217.3h0.9v0.5h-0.9v3.1c0,0.4,0.1,0.6,0.5,0.6c0.2,0,0.3,0,0.5,0v0.5c-0.2,0-0.3,0-0.5,0c-0.8,0-1-0.3-1-1v-3.2H29
			v-0.5h0.8v-1.4h0.6V217.3z"/>
		<path d="M35.7,222h-0.5v-0.8l0,0c-0.3,0.6-0.9,1-1.6,1c-1.2,0-1.6-0.7-1.6-1.8v-3h0.6v3c0,0.8,0.3,1.3,1.2,1.3
			c1,0,1.4-0.9,1.4-1.9v-2.4h0.6v4.6L35.7,222L35.7,222z"/>
		<path d="M36.5,217.3H37v1.1l0,0c0.3-0.7,0.9-1.2,1.8-1.2v0.6c-1-0.1-1.7,0.7-1.7,1.7v2.5h-0.6V217.3z"/>
		<path d="M39.1,218.8c0.1-1.1,0.8-1.6,1.9-1.6c0.8,0,1.7,0.3,1.7,1.5v2.5c0,0.2,0.1,0.3,0.3,0.3c0.1,0,0.1,0,0.2,0v0.5
			c-0.1,0-0.2,0-0.4,0c-0.6,0-0.7-0.3-0.7-0.8l0,0c-0.4,0.6-0.8,0.9-1.7,0.9s-1.6-0.4-1.6-1.4c0-1.3,1.3-1.4,2.5-1.5
			c0.5-0.1,0.7-0.1,0.7-0.6c0-0.8-0.5-1-1.2-1s-1.2,0.3-1.2,1.1h-0.5V218.8z M42.1,219.4L42.1,219.4c-0.1,0.1-0.3,0.2-0.5,0.2
			c-1,0.2-2.2,0.2-2.2,1.1c0,0.6,0.5,0.9,1,0.9c0.9,0,1.6-0.5,1.6-1.5v-0.7H42.1z"/>
		<path d="M48.6,218.7c0-0.7-0.6-1-1.2-1c-0.5,0-1.1,0.2-1.1,0.8c0,0.5,0.6,0.7,1,0.8l0.8,0.2c0.6,0.1,1.3,0.5,1.3,1.3
			c0,1-1,1.4-1.9,1.4c-1.1,0-1.8-0.5-1.9-1.6h0.6c0,0.8,0.6,1.2,1.4,1.2c0.5,0,1.3-0.2,1.3-0.9c0-0.5-0.5-0.7-1-0.8l-0.7-0.2
			c-0.7-0.2-1.3-0.5-1.3-1.2c0-0.9,0.9-1.3,1.7-1.3c0.9,0,1.7,0.5,1.7,1.5h-0.7C48.6,218.9,48.6,218.7,48.6,218.7z"/>
		<path d="M53.7,222h-0.5v-0.8l0,0c-0.3,0.6-0.9,1-1.6,1c-1.2,0-1.6-0.7-1.6-1.8v-3h0.6v3c0,0.8,0.3,1.3,1.2,1.3
			c1,0,1.4-0.9,1.4-1.9v-2.4h0.6v4.6L53.7,222L53.7,222z"/>
		<path d="M57.4,218.7c0-0.7-0.6-1-1.2-1c-0.5,0-1.1,0.2-1.1,0.8c0,0.5,0.6,0.7,1,0.8l0.8,0.2c0.6,0.1,1.3,0.5,1.3,1.3
			c0,1-1,1.4-1.9,1.4c-1.1,0-1.8-0.5-1.9-1.6H55c0,0.8,0.6,1.2,1.4,1.2c0.5,0,1.3-0.2,1.3-0.9c0-0.5-0.5-0.7-1-0.8l-0.7-0.2
			c-0.7-0.2-1.3-0.5-1.3-1.2c0-0.9,0.9-1.3,1.7-1.3c0.9,0,1.7,0.5,1.7,1.5h-0.7V218.7z"/>
		<path d="M58.7,217.3h0.5v0.9l0,0c0.3-0.6,0.9-1,1.7-1c1.4,0,2.1,1.1,2.1,2.5s-0.7,2.5-2.1,2.5c-0.7,0-1.4-0.4-1.6-1l0,0v2.6h-0.6
			C58.7,223.8,58.7,217.3,58.7,217.3z M60.9,217.7c-1.3,0-1.6,0.9-1.6,2c0,1,0.4,2,1.6,2c1.1,0,1.5-1,1.5-2S62,217.7,60.9,217.7z"/>
		<path d="M63.9,219.8c0,0.8,0.4,1.8,1.5,1.8c0.8,0,1.3-0.5,1.5-1.2h0.6c-0.2,1.1-0.9,1.7-2,1.7c-1.5,0-2.1-1.1-2.1-2.5
			c0-1.2,0.6-2.5,2.1-2.5s2.1,1.3,2,2.6L63.9,219.8L63.9,219.8z M67,219.3c0-0.9-0.6-1.7-1.5-1.7s-1.4,0.8-1.5,1.7H67z"/>
		<path d="M68.1,217.3h0.6v0.8l0,0c0.2-0.6,0.8-0.9,1.5-0.9c1.3,0,1.7,0.7,1.7,1.8v3h-0.6v-2.9c0-0.8-0.3-1.4-1.2-1.4
			c-0.9,0-1.4,0.7-1.5,1.6v2.7H68L68.1,217.3L68.1,217.3z"/>
		<path d="M75.5,218.7c0-0.7-0.6-1-1.2-1c-0.5,0-1.1,0.2-1.1,0.8c0,0.5,0.6,0.7,1,0.8l0.8,0.2c0.6,0.1,1.3,0.5,1.3,1.3
			c0,1-1,1.4-1.9,1.4c-1.1,0-1.8-0.5-1.9-1.6H73c0,0.8,0.6,1.2,1.4,1.2c0.5,0,1.3-0.2,1.3-0.9c0-0.5-0.5-0.7-1-0.8l-0.7-0.2
			c-0.7-0.2-1.3-0.5-1.3-1.2c0-0.9,0.9-1.3,1.7-1.3c0.9,0,1.7,0.5,1.7,1.5h-0.6V218.7z"/>
		<path d="M76.7,218.8c0.1-1.1,0.8-1.6,1.9-1.6c0.8,0,1.7,0.3,1.7,1.5v2.5c0,0.2,0.1,0.3,0.3,0.3c0.1,0,0.1,0,0.2,0v0.5
			c-0.1,0-0.2,0-0.4,0c-0.6,0-0.7-0.3-0.7-0.8l0,0c-0.4,0.6-0.8,0.9-1.7,0.9c-0.9,0-1.6-0.4-1.6-1.4c0-1.3,1.3-1.4,2.5-1.5
			c0.5-0.1,0.7-0.1,0.7-0.6c0-0.8-0.5-1-1.2-1s-1.2,0.3-1.2,1.1h-0.5C76.7,218.7,76.7,218.8,76.7,218.8z M79.7,219.4L79.7,219.4
			c-0.1,0.1-0.3,0.2-0.5,0.2c-1,0.2-2.2,0.2-2.2,1.1c0,0.6,0.5,0.9,1,0.9c0.9,0,1.6-0.5,1.6-1.5L79.7,219.4L79.7,219.4z"/>
	</g>
	<rect x="1.8" y="184.8" class="st0" width="7.9" height="7.9"/>
	<rect x="1.8" y="203.3" class="st1" width="7.9" height="7.9"/>
</g>
<script>parent.mapaBotaoAcao(document)</script>
</svg>
